<?xml version="1.0" encoding="UTF-8"?>
<svg xmlns="http://www.w3.org/2000/svg" xmlns:xlink="http://www.w3.org/1999/xlink" width="375pt" height="374.999991pt" viewBox="0 0 375 374.999991" version="1.2">
<g id="surface1">
<path style=" stroke:none;fill-rule:nonzero;fill:rgb(0%,0%,0%);fill-opacity:1;" d="M 316.71875 306.304688 C 171.761719 375.71875 81.914062 317.570312 24.386719 282.273438 C 20.847656 279.886719 14.734375 282.746094 20.0625 288.859375 C 39.296875 312.242188 102.0625 368.964844 184.078125 368.964844 C 266.09375 368.964844 314.988281 323.746094 321.027344 315.808594 L 321.027344 315.824219 C 327.144531 307.886719 322.613281 303.371094 316.71875 306.304688 Z M 316.71875 306.304688 "/>
<path style=" stroke:none;fill-rule:nonzero;fill:rgb(0%,0%,0%);fill-opacity:1;" d="M 214.300781 117.265625 C 176.082031 118.683594 81.277344 129.566406 81.277344 210.472656 C 81.277344 297.34375 189.824219 300.914062 225.300781 244.734375 C 230.410156 252.820312 253.078125 274.484375 260.851562 281.871094 L 305.4375 237.449219 C 305.4375 237.449219 280.085938 217.386719 280.085938 195.5625 L 280.085938 78.882812 C 280.085938 58.820312 260.867188 13.601562 191.957031 13.601562 C 122.898438 13.601562 86.25 57.222656 86.25 96.339844 L 143.921875 101.746094 C 156.714844 62.476562 186.464844 62.476562 186.464844 62.476562 C 218.417969 62.390625 214.328125 86.125 214.328125 117.292969 Z M 214.300781 186.117188 C 214.300781 249.578125 148.21875 240.070312 148.21875 199.753906 C 148.21875 162.320312 187.839844 154.769531 214.300781 153.910156 Z M 214.300781 186.117188 "/>
<path style=" stroke:none;fill-rule:nonzero;fill:rgb(0%,0%,0%);fill-opacity:1;" d="M 357.363281 283.367188 C 353.457031 278.230469 333.585938 277.429688 321.265625 278.851562 C 308.855469 280.421875 290.023438 288.210938 291.828125 292.726562 C 292.613281 294.546875 294.347656 293.761719 302.816406 292.960938 C 311.449219 292.089844 335.375 288.917969 340.484375 295.492188 C 345.667969 302.230469 332.875 333.960938 330.519531 339.113281 C 328.179688 344.28125 331.304688 345.703125 335.628906 342.121094 C 339.714844 338.789062 347.164062 330.066406 352.269531 317.527344 L 352.257812 317.527344 C 357.363281 304.867188 360.265625 287.410156 357.363281 283.367188 Z M 357.363281 283.367188 "/>
</g>
</svg>
