<?xml version="1.0" encoding="UTF-8"?>
<svg xmlns="http://www.w3.org/2000/svg" xmlns:xlink="http://www.w3.org/1999/xlink" width="375pt" height="374.999991pt" viewBox="0 0 375 374.999991" version="1.2">
<g id="surface1">
<path style=" stroke:none;fill-rule:nonzero;fill:rgb(100%,75.689697%,2.749634%);fill-opacity:1;" d="M 310.503906 299.882812 C 168.039062 368.019531 79.738281 310.945312 23.203125 276.296875 C 19.726562 273.957031 13.71875 276.761719 18.957031 282.761719 C 37.859375 305.710938 99.542969 361.390625 180.148438 361.390625 C 260.75 361.390625 308.800781 317.003906 314.738281 309.214844 L 314.738281 309.230469 C 320.746094 301.4375 316.292969 297.007812 310.503906 299.882812 Z M 310.503906 299.882812 "/>
<path style=" stroke:none;fill-rule:nonzero;fill:rgb(12.939453%,12.939453%,12.939453%);fill-opacity:1;" d="M 209.847656 114.328125 C 172.289062 115.726562 79.113281 126.40625 79.113281 205.820312 C 79.113281 291.089844 185.792969 294.59375 220.660156 239.453125 C 225.679688 247.386719 247.957031 268.648438 255.597656 275.902344 L 299.414062 232.300781 C 299.414062 232.300781 274.5 212.609375 274.5 191.183594 L 274.5 76.65625 C 274.5 56.964844 255.613281 12.578125 187.886719 12.578125 C 120.019531 12.578125 84.003906 55.394531 84.003906 93.792969 L 140.683594 99.097656 C 153.253906 60.554688 182.488281 60.554688 182.488281 60.554688 C 213.890625 60.46875 209.875 83.765625 209.875 114.359375 Z M 209.847656 181.910156 C 209.847656 244.203125 144.902344 234.875 144.902344 195.296875 C 144.902344 158.554688 183.84375 151.144531 209.847656 150.300781 Z M 209.847656 181.910156 "/>
<path style=" stroke:none;fill-rule:nonzero;fill:rgb(100%,75.689697%,2.749634%);fill-opacity:1;" d="M 350.449219 277.371094 C 346.605469 272.328125 327.078125 271.542969 314.96875 272.9375 C 302.777344 274.476562 284.265625 282.125 286.039062 286.554688 C 286.8125 288.34375 288.515625 287.574219 296.839844 286.789062 C 305.320312 285.929688 328.835938 282.820312 333.859375 289.273438 C 338.953125 295.886719 326.378906 327.03125 324.066406 332.089844 C 321.765625 337.164062 324.835938 338.558594 329.085938 335.042969 C 333.101562 331.769531 340.421875 323.210938 345.441406 310.898438 L 345.425781 310.898438 C 350.449219 298.472656 353.300781 281.339844 350.449219 277.371094 Z M 350.449219 277.371094 "/>
</g>
</svg>
