<?xml version="1.0" encoding="UTF-8"?>
<svg xmlns="http://www.w3.org/2000/svg" xmlns:xlink="http://www.w3.org/1999/xlink" width="375pt" height="374.999991pt" viewBox="0 0 375 374.999991" version="1.2">
<g id="surface1">
<rect x="0" y="0" width="375" height="374.999991" style="fill:rgb(100%,100%,100%);fill-opacity:1;stroke:none;"/>
<rect x="0" y="0" width="375" height="374.999991" style="fill:rgb(100%,100%,100%);fill-opacity:1;stroke:none;"/>
<rect x="0" y="0" width="375" height="374.999991" style="fill:rgb(100%,100%,100%);fill-opacity:1;stroke:none;"/>
<path style=" stroke:none;fill-rule:nonzero;fill:rgb(100%,100%,100%);fill-opacity:1;" d="M 47.941406 213.1875 C 47.660156 213.1875 47.378906 213.214844 47.101562 213.269531 C 46.824219 213.324219 46.558594 213.40625 46.296875 213.515625 C 46.035156 213.621094 45.789062 213.753906 45.554688 213.910156 C 45.320312 214.070312 45.101562 214.246094 44.902344 214.445312 C 44.703125 214.644531 44.523438 214.863281 44.367188 215.097656 C 44.210938 215.332031 44.078125 215.582031 43.96875 215.839844 C 43.863281 216.101562 43.78125 216.371094 43.726562 216.648438 C 43.671875 216.925781 43.644531 217.203125 43.644531 217.484375 C 43.644531 217.769531 43.671875 218.046875 43.726562 218.324219 C 43.78125 218.601562 43.863281 218.871094 43.96875 219.128906 C 44.078125 219.390625 44.210938 219.640625 44.367188 219.875 C 44.523438 220.109375 44.703125 220.324219 44.902344 220.523438 C 45.101562 220.726562 45.320312 220.902344 45.554688 221.058594 C 45.789062 221.214844 46.035156 221.347656 46.296875 221.457031 C 46.558594 221.566406 46.824219 221.648438 47.101562 221.703125 C 47.378906 221.757812 47.660156 221.785156 47.941406 221.785156 C 48.222656 221.785156 48.503906 221.757812 48.78125 221.703125 C 49.054688 221.648438 49.324219 221.566406 49.585938 221.457031 C 49.847656 221.347656 50.09375 221.214844 50.328125 221.058594 C 50.5625 220.902344 50.78125 220.726562 50.980469 220.523438 C 51.179688 220.324219 51.359375 220.109375 51.515625 219.875 C 51.671875 219.640625 51.804688 219.390625 51.914062 219.128906 C 52.019531 218.871094 52.101562 218.601562 52.15625 218.324219 C 52.210938 218.046875 52.238281 217.769531 52.238281 217.484375 C 52.238281 217.203125 52.210938 216.925781 52.15625 216.648438 C 52.101562 216.371094 52.019531 216.101562 51.914062 215.839844 C 51.804688 215.582031 51.671875 215.332031 51.515625 215.097656 C 51.359375 214.863281 51.179688 214.644531 50.980469 214.445312 C 50.78125 214.246094 50.5625 214.070312 50.328125 213.910156 C 50.09375 213.753906 49.847656 213.621094 49.585938 213.515625 C 49.324219 213.40625 49.054688 213.324219 48.78125 213.269531 C 48.503906 213.214844 48.222656 213.1875 47.941406 213.1875 Z M 330.199219 95.222656 C 329.753906 95.222656 329.328125 95.304688 328.914062 95.476562 C 328.503906 95.644531 328.144531 95.886719 327.828125 96.199219 C 327.515625 96.511719 327.273438 96.875 327.101562 97.285156 C 326.933594 97.695312 326.847656 98.121094 326.847656 98.566406 C 326.847656 99.007812 326.933594 99.4375 327.101562 99.847656 C 327.273438 100.257812 327.515625 100.617188 327.828125 100.933594 C 328.144531 101.246094 328.503906 101.488281 328.914062 101.65625 C 329.328125 101.824219 329.753906 101.910156 330.199219 101.910156 C 330.640625 101.910156 331.070312 101.824219 331.480469 101.65625 C 331.890625 101.488281 332.25 101.246094 332.566406 100.933594 C 332.878906 100.617188 333.121094 100.257812 333.292969 99.847656 C 333.460938 99.4375 333.546875 99.007812 333.546875 98.566406 C 333.546875 98.121094 333.460938 97.695312 333.292969 97.285156 C 333.121094 96.875 332.878906 96.511719 332.566406 96.199219 C 332.25 95.886719 331.890625 95.644531 331.480469 95.476562 C 331.070312 95.304688 330.640625 95.222656 330.199219 95.222656 Z M 330.199219 95.222656 "/>
<path style=" stroke:none;fill-rule:nonzero;fill:rgb(94.509888%,73.728943%,9.799194%);fill-opacity:1;" d="M 317.300781 3.523438 C 317.019531 3.523438 316.742188 3.554688 316.464844 3.609375 C 316.1875 3.664062 315.917969 3.746094 315.65625 3.851562 C 315.398438 3.960938 315.148438 4.09375 314.914062 4.25 C 314.679688 4.40625 314.460938 4.585938 314.261719 4.785156 C 314.0625 4.984375 313.886719 5.199219 313.726562 5.433594 C 313.570312 5.671875 313.4375 5.917969 313.332031 6.179688 C 313.222656 6.4375 313.140625 6.707031 313.085938 6.984375 C 313.03125 7.261719 313.003906 7.542969 313.003906 7.824219 C 313.003906 8.105469 313.03125 8.386719 313.085938 8.660156 C 313.140625 8.9375 313.222656 9.207031 313.332031 9.46875 C 313.4375 9.730469 313.570312 9.976562 313.726562 10.210938 C 313.886719 10.445312 314.0625 10.664062 314.261719 10.863281 C 314.460938 11.0625 314.679688 11.242188 314.914062 11.398438 C 315.148438 11.554688 315.398438 11.6875 315.65625 11.792969 C 315.917969 11.902344 316.1875 11.984375 316.464844 12.039062 C 316.742188 12.09375 317.019531 12.121094 317.300781 12.121094 C 317.585938 12.121094 317.863281 12.09375 318.140625 12.039062 C 318.417969 11.984375 318.6875 11.902344 318.945312 11.792969 C 319.207031 11.6875 319.457031 11.554688 319.691406 11.398438 C 319.925781 11.242188 320.140625 11.0625 320.339844 10.863281 C 320.542969 10.664062 320.71875 10.445312 320.875 10.210938 C 321.03125 9.976562 321.164062 9.730469 321.273438 9.46875 C 321.382812 9.207031 321.464844 8.9375 321.519531 8.660156 C 321.574219 8.386719 321.601562 8.105469 321.601562 7.824219 C 321.601562 7.542969 321.574219 7.261719 321.519531 6.984375 C 321.464844 6.707031 321.382812 6.4375 321.273438 6.179688 C 321.164062 5.917969 321.03125 5.671875 320.875 5.433594 C 320.71875 5.199219 320.542969 4.984375 320.339844 4.785156 C 320.140625 4.585938 319.925781 4.40625 319.691406 4.25 C 319.457031 4.09375 319.207031 3.960938 318.945312 3.851562 C 318.6875 3.746094 318.417969 3.664062 318.140625 3.609375 C 317.863281 3.554688 317.585938 3.523438 317.300781 3.523438 Z M 50.328125 249.960938 C 50.046875 249.960938 49.765625 249.988281 49.492188 250.042969 C 49.214844 250.101562 48.945312 250.179688 48.683594 250.289062 C 48.421875 250.398438 48.175781 250.53125 47.941406 250.6875 C 47.707031 250.84375 47.488281 251.019531 47.289062 251.222656 C 47.089844 251.421875 46.910156 251.636719 46.753906 251.871094 C 46.597656 252.105469 46.464844 252.355469 46.359375 252.617188 C 46.25 252.875 46.167969 253.144531 46.113281 253.421875 C 46.058594 253.699219 46.03125 253.976562 46.03125 254.261719 C 46.03125 254.542969 46.058594 254.820312 46.113281 255.097656 C 46.167969 255.375 46.25 255.644531 46.359375 255.90625 C 46.464844 256.167969 46.597656 256.414062 46.753906 256.648438 C 46.910156 256.882812 47.089844 257.101562 47.289062 257.300781 C 47.488281 257.5 47.707031 257.675781 47.941406 257.835938 C 48.175781 257.992188 48.421875 258.125 48.683594 258.230469 C 48.945312 258.339844 49.214844 258.421875 49.492188 258.476562 C 49.765625 258.53125 50.046875 258.558594 50.328125 258.558594 C 50.613281 258.558594 50.890625 258.53125 51.167969 258.476562 C 51.445312 258.421875 51.714844 258.339844 51.972656 258.230469 C 52.234375 258.125 52.484375 257.992188 52.71875 257.835938 C 52.953125 257.675781 53.167969 257.5 53.367188 257.300781 C 53.566406 257.101562 53.746094 256.882812 53.902344 256.648438 C 54.058594 256.414062 54.191406 256.167969 54.300781 255.90625 C 54.410156 255.644531 54.488281 255.375 54.542969 255.097656 C 54.601562 254.820312 54.628906 254.542969 54.628906 254.261719 C 54.628906 253.976562 54.601562 253.699219 54.542969 253.421875 C 54.488281 253.144531 54.410156 252.875 54.300781 252.617188 C 54.191406 252.355469 54.058594 252.105469 53.902344 251.871094 C 53.746094 251.636719 53.566406 251.421875 53.367188 251.222656 C 53.167969 251.019531 52.953125 250.84375 52.71875 250.6875 C 52.484375 250.53125 52.234375 250.398438 51.972656 250.289062 C 51.714844 250.179688 51.445312 250.101562 51.167969 250.042969 C 50.890625 249.988281 50.613281 249.960938 50.328125 249.960938 Z M 50.328125 249.960938 "/>
<path style=" stroke:none;fill-rule:nonzero;fill:rgb(75.289917%,89.7995%,89.408875%);fill-opacity:1;" d="M 187.875 6.867188 C 184.953125 6.867188 182.03125 6.941406 179.109375 7.082031 C 176.191406 7.226562 173.277344 7.441406 170.367188 7.726562 C 167.457031 8.015625 164.558594 8.371094 161.667969 8.800781 C 158.773438 9.230469 155.894531 9.730469 153.027344 10.300781 C 150.160156 10.871094 147.308594 11.511719 144.472656 12.222656 C 141.640625 12.929688 138.820312 13.710938 136.023438 14.558594 C 133.226562 15.40625 130.453125 16.324219 127.699219 17.308594 C 124.949219 18.292969 122.222656 19.347656 119.519531 20.464844 C 116.820312 21.582031 114.148438 22.769531 111.503906 24.019531 C 108.863281 25.265625 106.253906 26.582031 103.675781 27.960938 C 101.097656 29.335938 98.554688 30.777344 96.046875 32.28125 C 93.539062 33.785156 91.070312 35.347656 88.640625 36.972656 C 86.210938 38.59375 83.820312 40.277344 81.472656 42.019531 C 79.125 43.761719 76.820312 45.558594 74.5625 47.414062 C 72.300781 49.265625 70.089844 51.175781 67.921875 53.140625 C 65.757812 55.101562 63.640625 57.117188 61.574219 59.183594 C 59.503906 61.25 57.492188 63.367188 55.527344 65.535156 C 53.5625 67.699219 51.65625 69.914062 49.800781 72.171875 C 47.945312 74.433594 46.148438 76.734375 44.40625 79.085938 C 42.664062 81.433594 40.984375 83.820312 39.359375 86.25 C 37.734375 88.683594 36.171875 91.152344 34.667969 93.660156 C 33.164062 96.167969 31.726562 98.707031 30.347656 101.285156 C 28.96875 103.863281 27.65625 106.476562 26.40625 109.117188 C 25.15625 111.761719 23.972656 114.433594 22.851562 117.132812 C 21.734375 119.832031 20.683594 122.558594 19.699219 125.3125 C 18.710938 128.066406 17.796875 130.839844 16.949219 133.636719 C 16.097656 136.433594 15.320312 139.25 14.609375 142.085938 C 13.898438 144.921875 13.257812 147.773438 12.6875 150.640625 C 12.117188 153.507812 11.617188 156.386719 11.191406 159.277344 C 10.761719 162.171875 10.402344 165.070312 10.117188 167.980469 C 9.828125 170.890625 9.613281 173.804688 9.472656 176.722656 C 9.328125 179.644531 9.257812 182.5625 9.257812 185.488281 C 9.257812 188.410156 9.328125 191.332031 9.472656 194.25 C 9.613281 197.171875 9.828125 200.085938 10.117188 202.996094 C 10.402344 205.902344 10.761719 208.804688 11.191406 211.695312 C 11.617188 214.585938 12.117188 217.46875 12.6875 220.335938 C 13.257812 223.203125 13.898438 226.050781 14.609375 228.886719 C 15.320312 231.722656 16.097656 234.539062 16.949219 237.335938 C 17.796875 240.136719 18.710938 242.910156 19.699219 245.664062 C 20.683594 248.414062 21.734375 251.140625 22.851562 253.84375 C 23.972656 256.542969 25.15625 259.214844 26.40625 261.855469 C 27.65625 264.5 28.96875 267.109375 30.347656 269.6875 C 31.726562 272.265625 33.164062 274.808594 34.667969 277.316406 C 36.171875 279.824219 37.734375 282.292969 39.359375 284.722656 C 40.984375 287.152344 42.664062 289.542969 44.40625 291.890625 C 46.148438 294.238281 47.945312 296.542969 49.800781 298.800781 C 51.65625 301.0625 53.5625 303.273438 55.527344 305.441406 C 57.492188 307.605469 59.503906 309.722656 61.574219 311.789062 C 63.640625 313.855469 65.757812 315.871094 67.921875 317.835938 C 70.089844 319.796875 72.300781 321.707031 74.5625 323.5625 C 76.820312 325.417969 79.125 327.214844 81.472656 328.957031 C 83.820312 330.695312 86.210938 332.378906 88.640625 334.003906 C 91.070312 335.628906 93.539062 337.191406 96.046875 338.695312 C 98.554688 340.195312 101.097656 341.636719 103.675781 343.015625 C 106.253906 344.394531 108.863281 345.707031 111.503906 346.957031 C 114.148438 348.207031 116.820312 349.390625 119.519531 350.507812 C 122.222656 351.628906 124.949219 352.679688 127.699219 353.664062 C 130.453125 354.648438 133.226562 355.566406 136.023438 356.414062 C 138.820312 357.261719 141.640625 358.042969 144.472656 358.753906 C 147.308594 359.464844 150.160156 360.105469 153.027344 360.675781 C 155.894531 361.246094 158.773438 361.742188 161.667969 362.171875 C 164.558594 362.601562 167.457031 362.960938 170.367188 363.246094 C 173.277344 363.53125 176.191406 363.746094 179.109375 363.890625 C 182.03125 364.035156 184.953125 364.105469 187.875 364.105469 C 190.796875 364.105469 193.71875 364.035156 196.640625 363.890625 C 199.558594 363.746094 202.472656 363.53125 205.382812 363.246094 C 208.292969 362.960938 211.191406 362.601562 214.085938 362.171875 C 216.976562 361.742188 219.855469 361.246094 222.722656 360.675781 C 225.589844 360.105469 228.441406 359.464844 231.277344 358.753906 C 234.113281 358.042969 236.929688 357.261719 239.726562 356.414062 C 242.523438 355.566406 245.296875 354.648438 248.050781 353.664062 C 250.800781 352.679688 253.527344 351.628906 256.230469 350.507812 C 258.929688 349.390625 261.601562 348.207031 264.246094 346.957031 C 266.886719 345.707031 269.496094 344.394531 272.074219 343.015625 C 274.652344 341.636719 277.195312 340.195312 279.703125 338.695312 C 282.210938 337.191406 284.679688 335.628906 287.109375 334.003906 C 289.542969 332.378906 291.929688 330.695312 294.277344 328.957031 C 296.625 327.214844 298.929688 325.417969 301.191406 323.5625 C 303.449219 321.707031 305.664062 319.796875 307.828125 317.835938 C 309.996094 315.871094 312.109375 313.855469 314.179688 311.789062 C 316.246094 309.722656 318.261719 307.605469 320.222656 305.441406 C 322.1875 303.273438 324.09375 301.0625 325.949219 298.800781 C 327.804688 296.542969 329.601562 294.238281 331.34375 291.890625 C 333.085938 289.542969 334.765625 287.152344 336.390625 284.722656 C 338.015625 282.292969 339.578125 279.824219 341.082031 277.316406 C 342.585938 274.808594 344.023438 272.265625 345.402344 269.6875 C 346.78125 267.109375 348.09375 264.5 349.34375 261.855469 C 350.59375 259.214844 351.777344 256.542969 352.898438 253.84375 C 354.015625 251.140625 355.066406 248.414062 356.054688 245.664062 C 357.039062 242.910156 357.953125 240.136719 358.804688 237.335938 C 359.652344 234.539062 360.429688 231.722656 361.140625 228.886719 C 361.851562 226.050781 362.492188 223.203125 363.0625 220.335938 C 363.632812 217.46875 364.132812 214.585938 364.5625 211.695312 C 364.988281 208.804688 365.347656 205.902344 365.632812 202.996094 C 365.921875 200.085938 366.136719 197.171875 366.277344 194.25 C 366.421875 191.332031 366.496094 188.410156 366.496094 185.488281 C 366.496094 182.5625 366.421875 179.644531 366.277344 176.722656 C 366.136719 173.804688 365.921875 170.890625 365.632812 167.980469 C 365.347656 165.070312 364.988281 162.171875 364.5625 159.277344 C 364.132812 156.386719 363.632812 153.507812 363.0625 150.640625 C 362.492188 147.773438 361.851562 144.921875 361.140625 142.085938 C 360.429688 139.25 359.652344 136.433594 358.804688 133.636719 C 357.953125 130.839844 357.039062 128.066406 356.054688 125.3125 C 355.066406 122.558594 354.015625 119.832031 352.898438 117.132812 C 351.777344 114.433594 350.59375 111.761719 349.34375 109.117188 C 348.09375 106.476562 346.78125 103.863281 345.402344 101.285156 C 344.023438 98.707031 342.585938 96.167969 341.082031 93.660156 C 339.578125 91.152344 338.015625 88.683594 336.390625 86.25 C 334.765625 83.820312 333.085938 81.433594 331.34375 79.085938 C 329.601562 76.734375 327.804688 74.433594 325.949219 72.171875 C 324.09375 69.914062 322.1875 67.699219 320.222656 65.535156 C 318.261719 63.367188 316.246094 61.25 314.179688 59.183594 C 312.109375 57.117188 309.996094 55.101562 307.828125 53.140625 C 305.664062 51.175781 303.449219 49.265625 301.191406 47.414062 C 298.929688 45.558594 296.625 43.761719 294.277344 42.019531 C 291.929688 40.277344 289.542969 38.59375 287.109375 36.972656 C 284.679688 35.347656 282.210938 33.785156 279.703125 32.28125 C 277.195312 30.777344 274.652344 29.335938 272.074219 27.960938 C 269.496094 26.582031 266.886719 25.265625 264.246094 24.019531 C 261.601562 22.769531 258.929688 21.582031 256.230469 20.464844 C 253.527344 19.347656 250.800781 18.292969 248.050781 17.308594 C 245.296875 16.324219 242.523438 15.40625 239.726562 14.558594 C 236.929688 13.710938 234.113281 12.929688 231.277344 12.222656 C 228.441406 11.511719 225.589844 10.871094 222.722656 10.300781 C 219.855469 9.730469 216.976562 9.230469 214.085938 8.800781 C 211.191406 8.371094 208.292969 8.015625 205.382812 7.726562 C 202.472656 7.441406 199.558594 7.226562 196.640625 7.082031 C 193.71875 6.941406 190.796875 6.867188 187.875 6.867188 Z M 187.875 6.867188 "/>
<path style=" stroke:none;fill-rule:nonzero;fill:rgb(94.509888%,73.728943%,9.799194%);fill-opacity:1;" d="M 343.570312 -1.25 C 342.945312 -1.25 342.320312 -1.21875 341.699219 -1.160156 C 341.074219 -1.097656 340.457031 -1.003906 339.84375 -0.882812 C 339.230469 -0.761719 338.625 -0.609375 338.023438 -0.429688 C 337.425781 -0.246094 336.835938 -0.0351562 336.257812 0.203125 C 335.679688 0.441406 335.117188 0.710938 334.566406 1.003906 C 334.011719 1.300781 333.476562 1.621094 332.957031 1.96875 C 332.4375 2.316406 331.933594 2.6875 331.449219 3.085938 C 330.96875 3.484375 330.503906 3.902344 330.0625 4.34375 C 329.621094 4.785156 329.199219 5.25 328.800781 5.734375 C 328.40625 6.21875 328.035156 6.71875 327.6875 7.238281 C 327.339844 7.757812 327.015625 8.296875 326.722656 8.847656 C 326.425781 9.398438 326.160156 9.964844 325.921875 10.542969 C 325.679688 11.121094 325.46875 11.707031 325.289062 12.308594 C 325.105469 12.90625 324.957031 13.511719 324.832031 14.125 C 324.710938 14.738281 324.621094 15.359375 324.558594 15.980469 C 324.496094 16.601562 324.464844 17.226562 324.464844 17.851562 C 324.464844 18.480469 324.496094 19.101562 324.558594 19.726562 C 324.621094 20.347656 324.710938 20.964844 324.832031 21.578125 C 324.957031 22.195312 325.105469 22.800781 325.289062 23.398438 C 325.46875 23.996094 325.679688 24.585938 325.921875 25.164062 C 326.160156 25.742188 326.425781 26.304688 326.722656 26.859375 C 327.015625 27.410156 327.339844 27.945312 327.6875 28.464844 C 328.035156 28.988281 328.40625 29.488281 328.800781 29.972656 C 329.199219 30.457031 329.621094 30.917969 330.0625 31.359375 C 330.503906 31.804688 330.96875 32.222656 331.449219 32.621094 C 331.933594 33.015625 332.4375 33.390625 332.957031 33.738281 C 333.476562 34.085938 334.011719 34.40625 334.566406 34.699219 C 335.117188 34.996094 335.679688 35.261719 336.257812 35.503906 C 336.835938 35.742188 337.425781 35.953125 338.023438 36.132812 C 338.625 36.316406 339.230469 36.46875 339.84375 36.589844 C 340.457031 36.710938 341.074219 36.804688 341.699219 36.863281 C 342.320312 36.925781 342.945312 36.957031 343.570312 36.957031 C 344.195312 36.957031 344.820312 36.925781 345.441406 36.863281 C 346.066406 36.804688 346.683594 36.710938 347.296875 36.589844 C 347.910156 36.46875 348.515625 36.316406 349.117188 36.132812 C 349.714844 35.953125 350.300781 35.742188 350.878906 35.503906 C 351.457031 35.261719 352.023438 34.996094 352.574219 34.699219 C 353.128906 34.40625 353.664062 34.085938 354.183594 33.738281 C 354.703125 33.390625 355.207031 33.015625 355.6875 32.621094 C 356.171875 32.222656 356.636719 31.804688 357.078125 31.359375 C 357.519531 30.917969 357.941406 30.457031 358.335938 29.972656 C 358.734375 29.488281 359.105469 28.988281 359.453125 28.464844 C 359.800781 27.945312 360.121094 27.410156 360.417969 26.859375 C 360.710938 26.304688 360.980469 25.742188 361.21875 25.164062 C 361.457031 24.585938 361.667969 23.996094 361.851562 23.398438 C 362.03125 22.800781 362.183594 22.195312 362.304688 21.578125 C 362.429688 20.964844 362.519531 20.347656 362.582031 19.726562 C 362.644531 19.101562 362.671875 18.480469 362.671875 17.851562 C 362.671875 17.226562 362.644531 16.601562 362.582031 15.980469 C 362.519531 15.359375 362.429688 14.738281 362.304688 14.125 C 362.183594 13.511719 362.03125 12.90625 361.851562 12.308594 C 361.667969 11.707031 361.457031 11.121094 361.21875 10.542969 C 360.980469 9.964844 360.710938 9.398438 360.417969 8.847656 C 360.121094 8.296875 359.800781 7.757812 359.453125 7.238281 C 359.105469 6.71875 358.734375 6.21875 358.335938 5.734375 C 357.941406 5.25 357.519531 4.785156 357.078125 4.34375 C 356.636719 3.902344 356.171875 3.484375 355.6875 3.085938 C 355.207031 2.6875 354.703125 2.316406 354.183594 1.96875 C 353.664062 1.621094 353.128906 1.300781 352.574219 1.003906 C 352.023438 0.710938 351.457031 0.441406 350.878906 0.203125 C 350.300781 -0.0351562 349.714844 -0.246094 349.117188 -0.429688 C 348.515625 -0.609375 347.910156 -0.761719 347.296875 -0.882812 C 346.683594 -1.003906 346.066406 -1.097656 345.441406 -1.160156 C 344.820312 -1.21875 344.195312 -1.25 343.570312 -1.25 Z M 343.570312 -1.25 "/>
<path style=" stroke:none;fill-rule:nonzero;fill:rgb(46.669006%,79.60968%,82.348633%);fill-opacity:1;" d="M 362.671875 52.238281 C 362.078125 52.238281 361.488281 52.296875 360.902344 52.414062 C 360.320312 52.53125 359.75 52.703125 359.199219 52.929688 C 358.652344 53.160156 358.128906 53.4375 357.632812 53.769531 C 357.136719 54.101562 356.679688 54.476562 356.257812 54.898438 C 355.835938 55.320312 355.460938 55.777344 355.128906 56.273438 C 354.796875 56.769531 354.519531 57.289062 354.289062 57.839844 C 354.0625 58.390625 353.890625 58.960938 353.773438 59.542969 C 353.65625 60.128906 353.597656 60.71875 353.597656 61.3125 C 353.597656 61.910156 353.65625 62.5 353.773438 63.085938 C 353.890625 63.667969 354.0625 64.234375 354.289062 64.785156 C 354.519531 65.335938 354.796875 65.859375 355.128906 66.355469 C 355.460938 66.851562 355.835938 67.308594 356.257812 67.730469 C 356.679688 68.152344 357.136719 68.527344 357.632812 68.859375 C 358.128906 69.191406 358.652344 69.46875 359.199219 69.695312 C 359.75 69.925781 360.320312 70.097656 360.902344 70.214844 C 361.488281 70.328125 362.078125 70.386719 362.671875 70.386719 C 363.269531 70.386719 363.859375 70.328125 364.445312 70.214844 C 365.027344 70.097656 365.59375 69.925781 366.144531 69.695312 C 366.695312 69.46875 367.21875 69.191406 367.714844 68.859375 C 368.210938 68.527344 368.667969 68.152344 369.089844 67.730469 C 369.511719 67.308594 369.886719 66.851562 370.21875 66.355469 C 370.550781 65.859375 370.828125 65.335938 371.058594 64.785156 C 371.285156 64.234375 371.457031 63.667969 371.574219 63.085938 C 371.691406 62.5 371.746094 61.910156 371.746094 61.3125 C 371.746094 60.71875 371.691406 60.128906 371.574219 59.542969 C 371.457031 58.960938 371.285156 58.390625 371.058594 57.839844 C 370.828125 57.289062 370.550781 56.769531 370.21875 56.273438 C 369.886719 55.777344 369.511719 55.320312 369.089844 54.898438 C 368.667969 54.476562 368.210938 54.101562 367.714844 53.769531 C 367.21875 53.4375 366.695312 53.160156 366.144531 52.929688 C 365.59375 52.703125 365.027344 52.53125 364.445312 52.414062 C 363.859375 52.296875 363.269531 52.238281 362.671875 52.238281 Z M 362.671875 52.238281 "/>
<path style=" stroke:none;fill-rule:nonzero;fill:rgb(98.429871%,80.389404%,34.899902%);fill-opacity:1;" d="M 319.691406 302.496094 C 319.09375 302.496094 318.503906 302.554688 317.921875 302.671875 C 317.335938 302.789062 316.769531 302.960938 316.21875 303.1875 C 315.667969 303.414062 315.144531 303.695312 314.648438 304.027344 C 314.152344 304.355469 313.695312 304.734375 313.273438 305.15625 C 312.851562 305.574219 312.476562 306.035156 312.144531 306.53125 C 311.8125 307.023438 311.535156 307.546875 311.308594 308.097656 C 311.078125 308.648438 310.90625 309.214844 310.789062 309.800781 C 310.675781 310.386719 310.617188 310.976562 310.617188 311.570312 C 310.617188 312.167969 310.675781 312.757812 310.789062 313.339844 C 310.90625 313.925781 311.078125 314.492188 311.308594 315.042969 C 311.535156 315.59375 311.8125 316.117188 312.144531 316.613281 C 312.476562 317.109375 312.851562 317.566406 313.273438 317.988281 C 313.695312 318.410156 314.152344 318.785156 314.648438 319.117188 C 315.144531 319.445312 315.667969 319.726562 316.21875 319.953125 C 316.769531 320.183594 317.335938 320.355469 317.921875 320.472656 C 318.503906 320.585938 319.09375 320.644531 319.691406 320.644531 C 320.285156 320.644531 320.875 320.585938 321.460938 320.472656 C 322.046875 320.355469 322.613281 320.183594 323.164062 319.953125 C 323.714844 319.726562 324.234375 319.445312 324.730469 319.117188 C 325.226562 318.785156 325.683594 318.410156 326.105469 317.988281 C 326.527344 317.566406 326.902344 317.109375 327.234375 316.613281 C 327.566406 316.117188 327.847656 315.59375 328.074219 315.042969 C 328.300781 314.492188 328.472656 313.925781 328.589844 313.339844 C 328.707031 312.757812 328.765625 312.167969 328.765625 311.570312 C 328.765625 310.976562 328.707031 310.386719 328.589844 309.800781 C 328.472656 309.214844 328.300781 308.648438 328.074219 308.097656 C 327.847656 307.546875 327.566406 307.023438 327.234375 306.53125 C 326.902344 306.035156 326.527344 305.574219 326.105469 305.15625 C 325.683594 304.734375 325.226562 304.355469 324.730469 304.027344 C 324.234375 303.695312 323.714844 303.414062 323.164062 303.1875 C 322.613281 302.960938 322.046875 302.789062 321.460938 302.671875 C 320.875 302.554688 320.285156 302.496094 319.691406 302.496094 Z M 17.851562 230.859375 C 17.226562 230.859375 16.601562 230.890625 15.980469 230.949219 C 15.359375 231.011719 14.738281 231.101562 14.125 231.226562 C 13.511719 231.347656 12.90625 231.5 12.308594 231.679688 C 11.707031 231.863281 11.121094 232.074219 10.542969 232.3125 C 9.964844 232.550781 9.398438 232.820312 8.847656 233.113281 C 8.296875 233.410156 7.757812 233.730469 7.238281 234.078125 C 6.71875 234.425781 6.21875 234.796875 5.734375 235.195312 C 5.25 235.589844 4.785156 236.011719 4.34375 236.453125 C 3.902344 236.894531 3.484375 237.359375 3.085938 237.84375 C 2.6875 238.328125 2.316406 238.828125 1.96875 239.347656 C 1.621094 239.867188 1.300781 240.40625 1.003906 240.957031 C 0.710938 241.507812 0.441406 242.074219 0.203125 242.652344 C -0.0351562 243.230469 -0.246094 243.816406 -0.429688 244.417969 C -0.609375 245.015625 -0.761719 245.621094 -0.882812 246.234375 C -1.003906 246.847656 -1.097656 247.46875 -1.160156 248.089844 C -1.21875 248.710938 -1.25 249.335938 -1.25 249.960938 C -1.25 250.585938 -1.21875 251.210938 -1.160156 251.835938 C -1.097656 252.457031 -1.003906 253.074219 -0.882812 253.6875 C -0.761719 254.300781 -0.609375 254.910156 -0.429688 255.507812 C -0.246094 256.105469 -0.0351562 256.695312 0.203125 257.273438 C 0.441406 257.851562 0.710938 258.414062 1.003906 258.96875 C 1.300781 259.519531 1.621094 260.054688 1.96875 260.574219 C 2.316406 261.097656 2.6875 261.597656 3.085938 262.082031 C 3.484375 262.566406 3.902344 263.027344 4.34375 263.46875 C 4.785156 263.914062 5.25 264.332031 5.734375 264.730469 C 6.21875 265.125 6.71875 265.5 7.238281 265.847656 C 7.757812 266.195312 8.296875 266.515625 8.847656 266.808594 C 9.398438 267.105469 9.964844 267.371094 10.542969 267.613281 C 11.121094 267.851562 11.707031 268.0625 12.308594 268.242188 C 12.90625 268.425781 13.511719 268.578125 14.125 268.699219 C 14.738281 268.820312 15.359375 268.914062 15.980469 268.972656 C 16.601562 269.035156 17.226562 269.066406 17.851562 269.066406 C 18.480469 269.066406 19.101562 269.035156 19.726562 268.972656 C 20.347656 268.914062 20.964844 268.820312 21.578125 268.699219 C 22.195312 268.578125 22.800781 268.425781 23.398438 268.242188 C 23.996094 268.0625 24.585938 267.851562 25.164062 267.613281 C 25.742188 267.371094 26.304688 267.105469 26.859375 266.808594 C 27.410156 266.515625 27.945312 266.195312 28.464844 265.847656 C 28.988281 265.5 29.488281 265.125 29.972656 264.730469 C 30.457031 264.332031 30.917969 263.914062 31.359375 263.46875 C 31.804688 263.027344 32.222656 262.566406 32.621094 262.082031 C 33.015625 261.597656 33.390625 261.097656 33.738281 260.574219 C 34.085938 260.054688 34.40625 259.519531 34.699219 258.96875 C 34.996094 258.414062 35.261719 257.851562 35.503906 257.273438 C 35.742188 256.695312 35.953125 256.105469 36.132812 255.507812 C 36.316406 254.910156 36.46875 254.300781 36.589844 253.6875 C 36.710938 253.074219 36.804688 252.457031 36.863281 251.835938 C 36.925781 251.210938 36.957031 250.585938 36.957031 249.960938 C 36.957031 249.335938 36.925781 248.710938 36.863281 248.089844 C 36.804688 247.46875 36.710938 246.847656 36.589844 246.234375 C 36.46875 245.621094 36.316406 245.015625 36.132812 244.417969 C 35.953125 243.816406 35.742188 243.230469 35.503906 242.652344 C 35.261719 242.074219 34.996094 241.507812 34.699219 240.957031 C 34.40625 240.40625 34.085938 239.867188 33.738281 239.347656 C 33.390625 238.828125 33.015625 238.328125 32.621094 237.84375 C 32.222656 237.359375 31.804688 236.894531 31.359375 236.453125 C 30.917969 236.011719 30.457031 235.589844 29.972656 235.195312 C 29.488281 234.796875 28.988281 234.425781 28.464844 234.078125 C 27.945312 233.730469 27.410156 233.410156 26.859375 233.113281 C 26.304688 232.820312 25.742188 232.550781 25.164062 232.3125 C 24.585938 232.074219 23.996094 231.863281 23.398438 231.679688 C 22.800781 231.5 22.195312 231.347656 21.578125 231.226562 C 20.964844 231.101562 20.347656 231.011719 19.726562 230.949219 C 19.101562 230.890625 18.480469 230.859375 17.851562 230.859375 Z M 17.851562 230.859375 "/>
<path style=" stroke:none;fill-rule:nonzero;fill:rgb(46.669006%,79.60968%,82.348633%);fill-opacity:1;" d="M 67.042969 355.988281 C 66.449219 355.988281 65.859375 356.046875 65.273438 356.160156 C 64.691406 356.277344 64.121094 356.449219 63.570312 356.679688 C 63.023438 356.90625 62.5 357.183594 62.003906 357.515625 C 61.507812 357.847656 61.050781 358.222656 60.628906 358.644531 C 60.207031 359.066406 59.832031 359.523438 59.5 360.019531 C 59.167969 360.515625 58.890625 361.039062 58.660156 361.589844 C 58.433594 362.140625 58.261719 362.707031 58.144531 363.292969 C 58.027344 363.875 57.96875 364.464844 57.96875 365.0625 C 57.96875 365.65625 58.027344 366.246094 58.144531 366.832031 C 58.261719 367.417969 58.433594 367.984375 58.660156 368.535156 C 58.890625 369.085938 59.167969 369.605469 59.5 370.101562 C 59.832031 370.597656 60.207031 371.054688 60.628906 371.476562 C 61.050781 371.898438 61.507812 372.277344 62.003906 372.605469 C 62.5 372.9375 63.023438 373.21875 63.570312 373.445312 C 64.121094 373.671875 64.691406 373.84375 65.273438 373.960938 C 65.859375 374.078125 66.449219 374.136719 67.042969 374.136719 C 67.640625 374.136719 68.230469 374.078125 68.816406 373.960938 C 69.398438 373.84375 69.96875 373.671875 70.515625 373.445312 C 71.066406 373.21875 71.589844 372.9375 72.085938 372.605469 C 72.582031 372.277344 73.039062 371.898438 73.460938 371.476562 C 73.882812 371.054688 74.257812 370.597656 74.589844 370.101562 C 74.921875 369.605469 75.199219 369.085938 75.429688 368.535156 C 75.65625 367.984375 75.828125 367.417969 75.945312 366.832031 C 76.0625 366.246094 76.117188 365.65625 76.117188 365.0625 C 76.117188 364.464844 76.0625 363.875 75.945312 363.292969 C 75.828125 362.707031 75.65625 362.140625 75.429688 361.589844 C 75.199219 361.039062 74.921875 360.515625 74.589844 360.019531 C 74.257812 359.523438 73.882812 359.066406 73.460938 358.644531 C 73.039062 358.222656 72.582031 357.847656 72.085938 357.515625 C 71.589844 357.183594 71.066406 356.90625 70.515625 356.679688 C 69.96875 356.449219 69.398438 356.277344 68.816406 356.160156 C 68.230469 356.046875 67.640625 355.988281 67.042969 355.988281 Z M 67.042969 355.988281 "/>
<path style=" stroke:none;fill-rule:nonzero;fill:rgb(100%,100%,100%);fill-opacity:1;" d="M 313.480469 82.804688 C 312.917969 82.804688 312.359375 82.859375 311.804688 82.96875 C 311.25 83.082031 310.714844 83.242188 310.191406 83.460938 C 309.671875 83.675781 309.175781 83.941406 308.707031 84.253906 C 308.234375 84.566406 307.800781 84.925781 307.402344 85.324219 C 307.003906 85.722656 306.648438 86.15625 306.332031 86.625 C 306.019531 87.09375 305.753906 87.589844 305.539062 88.113281 C 305.324219 88.632812 305.160156 89.171875 305.050781 89.726562 C 304.941406 90.277344 304.886719 90.835938 304.886719 91.402344 C 304.886719 91.964844 304.941406 92.527344 305.050781 93.078125 C 305.160156 93.632812 305.324219 94.171875 305.539062 94.691406 C 305.753906 95.214844 306.019531 95.707031 306.332031 96.179688 C 306.648438 96.648438 307.003906 97.082031 307.402344 97.480469 C 307.800781 97.878906 308.234375 98.234375 308.707031 98.550781 C 309.175781 98.863281 309.671875 99.128906 310.191406 99.34375 C 310.714844 99.558594 311.25 99.722656 311.804688 99.832031 C 312.359375 99.945312 312.917969 100 313.480469 100 C 314.046875 100 314.605469 99.945312 315.160156 99.832031 C 315.710938 99.722656 316.25 99.558594 316.769531 99.34375 C 317.292969 99.128906 317.789062 98.863281 318.257812 98.550781 C 318.726562 98.234375 319.160156 97.878906 319.558594 97.480469 C 319.960938 97.082031 320.316406 96.648438 320.628906 96.179688 C 320.941406 95.707031 321.207031 95.214844 321.425781 94.691406 C 321.640625 94.171875 321.804688 93.632812 321.914062 93.078125 C 322.023438 92.527344 322.078125 91.964844 322.078125 91.402344 C 322.078125 90.835938 322.023438 90.277344 321.914062 89.726562 C 321.804688 89.171875 321.640625 88.632812 321.425781 88.113281 C 321.207031 87.589844 320.941406 87.09375 320.628906 86.625 C 320.316406 86.15625 319.960938 85.722656 319.558594 85.324219 C 319.160156 84.925781 318.726562 84.566406 318.257812 84.253906 C 317.789062 83.941406 317.292969 83.675781 316.769531 83.460938 C 316.25 83.242188 315.710938 83.082031 315.160156 82.96875 C 314.605469 82.859375 314.046875 82.804688 313.480469 82.804688 Z M 36 180.234375 C 35.21875 180.234375 34.441406 180.308594 33.671875 180.464844 C 32.902344 180.617188 32.15625 180.84375 31.433594 181.144531 C 30.707031 181.441406 30.019531 181.808594 29.367188 182.246094 C 28.714844 182.679688 28.113281 183.175781 27.558594 183.730469 C 27.003906 184.285156 26.507812 184.886719 26.074219 185.539062 C 25.636719 186.191406 25.269531 186.878906 24.96875 187.605469 C 24.671875 188.328125 24.445312 189.074219 24.292969 189.84375 C 24.136719 190.613281 24.0625 191.390625 24.0625 192.171875 C 24.0625 192.957031 24.136719 193.734375 24.292969 194.503906 C 24.445312 195.273438 24.671875 196.019531 24.96875 196.742188 C 25.269531 197.46875 25.636719 198.15625 26.074219 198.808594 C 26.507812 199.457031 27.003906 200.0625 27.558594 200.617188 C 28.113281 201.171875 28.714844 201.664062 29.367188 202.101562 C 30.019531 202.535156 30.707031 202.90625 31.433594 203.203125 C 32.15625 203.503906 32.902344 203.730469 33.671875 203.882812 C 34.441406 204.035156 35.21875 204.113281 36 204.113281 C 36.785156 204.113281 37.5625 204.035156 38.332031 203.882812 C 39.101562 203.730469 39.847656 203.503906 40.570312 203.203125 C 41.292969 202.90625 41.984375 202.535156 42.632812 202.101562 C 43.285156 201.664062 43.890625 201.171875 44.445312 200.617188 C 45 200.0625 45.492188 199.457031 45.929688 198.808594 C 46.363281 198.15625 46.730469 197.46875 47.03125 196.742188 C 47.332031 196.019531 47.558594 195.273438 47.710938 194.503906 C 47.863281 193.734375 47.941406 192.957031 47.941406 192.171875 C 47.941406 191.390625 47.863281 190.613281 47.710938 189.84375 C 47.558594 189.074219 47.332031 188.328125 47.03125 187.605469 C 46.730469 186.878906 46.363281 186.191406 45.929688 185.539062 C 45.492188 184.886719 45 184.285156 44.445312 183.730469 C 43.890625 183.175781 43.285156 182.679688 42.632812 182.246094 C 41.984375 181.808594 41.292969 181.441406 40.570312 181.144531 C 39.847656 180.84375 39.101562 180.617188 38.332031 180.464844 C 37.5625 180.308594 36.785156 180.234375 36 180.234375 Z M 36 180.234375 "/>
<path style=" stroke:none;fill-rule:nonzero;fill:rgb(98.039246%,74.899292%,50.979614%);fill-opacity:1;" d="M 276.230469 286.738281 C 274.320312 276.707031 270.019531 270.5 260.46875 267.632812 C 259.992188 267.632812 259.515625 267.15625 259.035156 267.15625 C 258.082031 266.679688 257.125 266.679688 256.171875 266.199219 C 250.441406 263.8125 214.621094 250.441406 214.621094 250.441406 C 211.753906 249.484375 209.84375 247.574219 208.890625 245.1875 C 206.980469 241.367188 207.933594 231.335938 207.933594 231.335938 C 207.933594 231.335938 193.128906 236.589844 184.054688 238.023438 C 174.980469 238.976562 155.398438 227.039062 155.398438 227.039062 C 155.398438 227.039062 154.921875 241.367188 154.445312 244.707031 C 153.964844 247.097656 151.101562 249.484375 148.234375 249.960938 L 113.371094 262.855469 C 109.550781 263.8125 106.207031 265.246094 102.863281 267.15625 C 94.265625 272.410156 89.96875 280.527344 87.582031 287.214844 C 87.582031 287.214844 85.191406 302.976562 85.191406 303.453125 C 85.191406 305.839844 84.714844 308.226562 84.714844 310.617188 C 121.96875 335.929688 151.578125 342.613281 202.679688 340.703125 C 226.082031 339.75 260.46875 328.285156 278.617188 319.210938 C 278.140625 298.675781 276.230469 286.738281 276.230469 286.738281 Z M 276.230469 286.738281 "/>
<path style=" stroke:none;fill-rule:nonzero;fill:rgb(53.329468%,80.389404%,84.309387%);fill-opacity:1;" d="M 260.46875 267.632812 C 259.992188 267.632812 259.515625 267.15625 259.035156 267.15625 C 258.082031 266.679688 257.125 266.679688 256.171875 266.199219 C 252.351562 264.765625 237.542969 259.035156 226.558594 255.214844 L 226.082031 255.214844 C 213.664062 260.945312 196.949219 270.019531 181.1875 270.019531 C 165.429688 270.019531 149.667969 261.425781 136.296875 254.738281 L 134.863281 255.214844 L 113.371094 262.855469 C 109.550781 263.8125 106.207031 265.246094 102.863281 267.15625 C 94.265625 272.410156 89.96875 280.527344 87.582031 287.214844 C 87.582031 287.214844 85.191406 302.976562 85.191406 303.453125 C 85.191406 305.839844 84.714844 329.242188 84.714844 332.109375 C 121.96875 357.421875 151.578125 364.105469 202.679688 362.195312 C 226.082031 361.242188 260.46875 349.777344 278.617188 340.703125 C 277.664062 320.644531 275.753906 287.214844 275.753906 287.214844 C 274.320312 276.707031 270.019531 270.976562 260.46875 267.632812 Z M 260.46875 267.632812 "/>
<path style=" stroke:none;fill-rule:nonzero;fill:rgb(74.508667%,47.059631%,25.489807%);fill-opacity:1;" d="M 130.085938 171.636719 C 129.132812 170.203125 111.9375 130.5625 125.3125 104.296875 C 131.042969 93.3125 141.070312 86.148438 154.921875 82.804688 C 163.039062 77.074219 173.070312 74.207031 182.621094 74.207031 C 190.742188 74.207031 198.859375 76.117188 206.023438 80.417969 C 209.84375 82.804688 213.1875 84.714844 216.054688 86.148438 C 224.648438 90.925781 227.515625 92.835938 232.292969 92.835938 C 232.769531 92.835938 233.246094 92.835938 234.203125 92.835938 L 234.679688 92.835938 C 235.632812 92.835938 236.113281 92.835938 236.589844 92.835938 C 240.886719 92.835938 242.320312 95.222656 242.320312 97.132812 C 242.796875 101.910156 241.367188 106.207031 239.457031 110.027344 C 238.023438 113.371094 237.066406 116.238281 237.542969 119.101562 C 246.140625 147.757812 232.769531 171.160156 232.292969 172.59375 L 228.949219 179.277344 L 228.949219 170.683594 C 228.949219 170.683594 228.949219 148.234375 223.695312 133.90625 C 217.007812 137.726562 208.890625 139.636719 199.816406 139.636719 C 184.53125 139.636719 167.339844 133.90625 150.144531 123.402344 C 134.863281 135.339844 134.863281 170.683594 134.863281 170.683594 L 134.863281 181.667969 Z M 130.085938 171.636719 "/>
<path style=" stroke:none;fill-rule:nonzero;fill:rgb(27.839661%,16.859436%,16.079712%);fill-opacity:1;" d="M 183.097656 76.117188 C 190.261719 76.117188 197.90625 78.03125 205.546875 82.328125 C 222.261719 91.878906 225.605469 94.746094 233.246094 94.746094 C 233.722656 94.746094 234.679688 94.746094 235.15625 94.746094 C 236.113281 94.746094 237.066406 94.746094 237.542969 94.746094 C 239.457031 94.746094 240.886719 95.222656 240.886719 97.132812 C 241.84375 105.730469 234.679688 112.894531 236.589844 119.578125 C 245.1875 147.757812 231.335938 171.160156 231.335938 171.160156 C 231.335938 171.160156 231.335938 145.371094 224.648438 131.042969 C 217.964844 135.339844 209.367188 137.726562 199.335938 137.726562 C 184.53125 137.726562 167.339844 132.476562 149.667969 121.011719 C 131.996094 131.996094 132.476562 170.203125 132.476562 170.203125 C 132.476562 170.203125 99.042969 96.65625 155.875 84.238281 C 163.519531 79.460938 172.59375 76.117188 183.097656 76.117188 M 183.097656 71.34375 L 183.097656 76.117188 L 183.097656 71.34375 C 173.070312 71.34375 163.039062 74.6875 154.445312 80.417969 C 139.160156 83.761719 129.132812 91.402344 122.921875 102.863281 C 109.074219 130.5625 127.222656 170.683594 127.699219 172.59375 L 136.773438 192.652344 L 136.773438 170.203125 C 136.773438 160.652344 139.160156 135.816406 149.667969 125.789062 C 166.382812 136.296875 183.578125 141.550781 199.335938 141.550781 C 207.457031 141.550781 215.574219 140.117188 221.785156 136.773438 C 226.082031 150.625 226.082031 170.203125 226.082031 170.203125 L 226.082031 187.875 L 235.15625 172.59375 C 235.632812 171.636719 249.960938 147.28125 240.886719 117.191406 C 240.410156 115.28125 241.367188 112.894531 242.796875 109.550781 C 244.230469 105.730469 246.140625 100.953125 245.664062 95.222656 C 245.664062 93.789062 244.230469 89.015625 237.542969 89.015625 C 236.589844 89.015625 236.113281 89.015625 235.15625 89.015625 L 234.679688 89.015625 C 234.203125 89.015625 233.722656 89.015625 233.246094 89.015625 C 228.949219 89.015625 226.558594 87.582031 217.964844 82.804688 C 215.097656 81.371094 212.234375 79.460938 207.933594 77.074219 C 199.816406 73.253906 191.21875 71.34375 183.097656 71.34375 Z M 183.097656 71.34375 "/>
<path style=" stroke:none;fill-rule:nonzero;fill:rgb(0%,64.709473%,64.709473%);fill-opacity:1;" d="M 117.667969 352.167969 C 116.714844 352.167969 116.238281 351.6875 116.238281 350.734375 L 116.238281 331.628906 C 116.238281 330.675781 116.714844 330.199219 117.667969 330.199219 C 118.625 330.199219 119.101562 330.675781 119.101562 331.628906 L 119.101562 350.734375 C 119.101562 351.6875 118.625 352.167969 117.667969 352.167969 Z M 243.277344 355.507812 C 242.320312 355.507812 241.84375 355.03125 241.84375 354.078125 L 241.84375 332.109375 C 241.84375 331.152344 242.320312 330.675781 243.277344 330.675781 C 244.230469 330.675781 244.707031 331.152344 244.707031 332.109375 L 244.707031 354.078125 C 244.707031 355.03125 244.230469 355.507812 243.277344 355.507812 Z M 243.277344 355.507812 "/>
<path style=" stroke:none;fill-rule:nonzero;fill:rgb(99.21875%,85.879517%,73.728943%);fill-opacity:1;" d="M 239.457031 160.175781 C 238.976562 160.175781 238.5 160.175781 237.542969 160.175781 C 232.769531 160.175781 233.246094 161.609375 233.722656 158.742188 C 234.203125 153.488281 231.8125 133.429688 231.8125 131.996094 C 231.8125 110.503906 209.367188 93.3125 181.667969 92.355469 C 181.667969 92.355469 181.1875 92.355469 181.1875 92.355469 C 181.1875 92.355469 180.710938 92.355469 180.710938 92.355469 C 153.011719 93.3125 130.5625 110.503906 130.5625 131.996094 C 130.5625 132.953125 130.085938 153.488281 130.085938 158.742188 C 130.085938 161.609375 129.132812 159.699219 124.355469 160.175781 C 123.878906 160.175781 123.402344 160.175781 122.445312 160.175781 C 117.191406 160.652344 113.371094 163.519531 112.414062 167.816406 C 112.894531 168.292969 115.28125 185.488281 119.101562 192.652344 C 121.011719 196.472656 124.355469 196.949219 127.699219 199.335938 C 129.609375 200.769531 130.085938 202.203125 130.5625 204.113281 C 132.476562 211.753906 137.726562 217.964844 143.460938 223.695312 C 146.324219 226.558594 164.949219 246.140625 181.1875 245.1875 C 197.425781 244.707031 216.054688 226.082031 218.917969 223.695312 C 224.648438 217.964844 229.902344 211.753906 231.8125 204.113281 C 232.292969 202.203125 232.769531 200.292969 234.679688 199.335938 C 238.023438 196.949219 241.367188 196.472656 243.277344 192.652344 C 247.097656 185.964844 249.484375 168.292969 249.960938 167.816406 C 248.53125 163.519531 244.707031 160.652344 239.457031 160.175781 Z M 239.457031 160.175781 "/>
<path style=" stroke:none;fill-rule:nonzero;fill:rgb(31.759644%,17.248535%,16.859436%);fill-opacity:1;" d="M 181.667969 194.082031 C 185.007812 194.082031 187.875 192.652344 190.261719 190.261719 C 190.261719 190.261719 190.261719 189.785156 190.261719 189.308594 C 190.261719 189.308594 189.785156 189.308594 189.308594 189.308594 C 187.875 191.21875 185.007812 192.171875 181.667969 192.171875 C 178.324219 192.171875 175.933594 191.21875 174.023438 189.308594 C 174.023438 189.308594 173.546875 189.308594 173.546875 189.308594 C 173.546875 189.308594 173.070312 189.308594 173.070312 189.308594 C 173.070312 189.308594 172.59375 189.785156 173.070312 190.261719 C 174.980469 192.652344 178.324219 194.082031 181.667969 194.082031 Z M 171.160156 149.667969 L 173.070312 145.847656 C 164.472656 143.9375 154.445312 143.9375 145.847656 146.800781 L 148.234375 150.625 C 155.398438 148.234375 163.996094 148.234375 171.160156 149.667969 Z M 215.097656 149.667969 L 217.007812 145.847656 C 208.410156 143.9375 198.382812 143.9375 189.785156 146.800781 L 192.171875 150.625 C 199.335938 148.234375 207.933594 148.234375 215.097656 149.667969 Z M 158.742188 155.398438 C 156.832031 155.398438 154.921875 156.832031 153.964844 158.742188 C 154.445312 158.742188 154.445312 158.742188 154.921875 158.742188 C 156.832031 158.742188 158.265625 160.175781 158.265625 162.085938 C 158.265625 163.996094 156.832031 165.429688 154.921875 165.429688 C 154.445312 165.429688 153.964844 165.429688 153.488281 164.949219 C 154.445312 168.292969 156.355469 170.203125 159.21875 170.203125 C 162.5625 170.203125 165.429688 166.859375 165.429688 162.5625 C 164.472656 158.742188 161.609375 155.398438 158.742188 155.398438 Z M 204.113281 155.398438 C 202.203125 155.398438 200.769531 156.355469 199.816406 157.785156 C 200.292969 157.785156 200.292969 157.785156 200.769531 157.785156 C 202.679688 157.785156 204.113281 159.21875 204.113281 161.128906 C 204.113281 163.039062 202.679688 164.472656 200.769531 164.472656 C 199.816406 164.472656 198.859375 163.996094 198.382812 163.039062 C 198.382812 167.339844 201.246094 170.683594 204.589844 170.683594 C 207.933594 170.683594 210.800781 167.339844 210.800781 163.039062 C 210.320312 158.742188 207.457031 155.398438 204.113281 155.398438 Z M 206.980469 202.679688 C 207.457031 202.679688 207.457031 202.203125 206.980469 201.726562 C 206.980469 201.246094 206.5 201.246094 206.023438 201.726562 C 200.769531 206.023438 191.695312 208.410156 181.667969 208.410156 C 171.636719 208.410156 162.5625 206.023438 157.308594 201.726562 C 157.308594 201.726562 157.308594 201.726562 156.832031 201.726562 C 156.832031 201.726562 156.355469 201.726562 156.355469 201.726562 C 156.355469 202.203125 156.355469 202.203125 156.355469 202.679688 C 162.5625 207.457031 172.113281 210.800781 181.667969 210.800781 C 191.21875 210.800781 200.769531 207.933594 206.980469 202.679688 Z M 188.351562 227.992188 C 188.832031 227.992188 188.832031 227.515625 188.832031 227.039062 C 188.832031 226.558594 188.351562 226.082031 188.351562 226.082031 L 175.933594 226.082031 C 175.457031 226.558594 175.457031 226.558594 175.457031 227.039062 C 175.457031 227.515625 175.933594 227.992188 175.933594 227.992188 Z M 188.351562 227.992188 "/>
<path style=" stroke:none;fill-rule:nonzero;fill:rgb(27.839661%,16.859436%,16.079712%);fill-opacity:1;" d="M 186.441406 365.539062 C 143.9375 365.539062 116.238281 356.941406 83.761719 334.972656 C 83.28125 334.496094 82.804688 333.539062 82.804688 332.585938 C 82.804688 332.109375 82.804688 330.199219 82.804688 327.808594 C 82.804688 317.300781 83.28125 295.8125 85.671875 287.214844 C 89.015625 275.753906 93.3125 270.976562 101.910156 265.722656 C 105.253906 263.8125 109.074219 262.378906 112.894531 260.945312 L 146.800781 248.53125 C 149.191406 248.050781 151.101562 246.140625 151.578125 244.707031 C 151.578125 244.230469 152.054688 241.84375 152.535156 235.15625 C 147.757812 231.8125 143.460938 228.46875 142.503906 227.515625 C 134.863281 220.351562 130.5625 213.664062 129.132812 206.5 C 128.652344 204.589844 128.175781 203.636719 127.222656 202.679688 C 126.265625 201.726562 125.3125 201.246094 124.355469 200.769531 C 121.96875 199.335938 119.578125 197.90625 118.148438 195.039062 C 114.328125 187.398438 110.984375 173.546875 110.984375 168.773438 C 110.984375 168.773438 110.984375 168.292969 110.984375 168.292969 C 111.9375 163.039062 117.191406 159.21875 123.402344 158.742188 C 123.878906 158.742188 124.832031 158.742188 125.3125 158.742188 C 126.742188 158.742188 127.699219 158.742188 128.652344 158.742188 C 128.652344 153.011719 128.652344 140.59375 129.132812 135.339844 C 129.132812 133.90625 129.132812 132.953125 129.132812 132.953125 C 129.132812 110.503906 152.054688 91.878906 180.710938 90.445312 C 180.710938 90.445312 181.1875 90.445312 181.1875 90.445312 L 181.667969 92.835938 L 181.667969 90.445312 C 181.667969 90.445312 182.144531 90.445312 182.144531 90.445312 C 211.277344 91.402344 234.203125 110.027344 234.203125 132.953125 C 234.203125 133.429688 234.203125 134.863281 234.679688 136.773438 C 235.632812 145.371094 236.589844 154.921875 236.113281 158.742188 L 236.113281 159.21875 C 236.589844 159.21875 237.066406 159.21875 237.066406 159.21875 L 237.542969 159.21875 C 238.023438 159.21875 238.5 159.21875 239.457031 159.21875 C 245.664062 159.699219 250.441406 163.519531 251.871094 168.773438 C 251.871094 168.773438 251.871094 169.25 251.871094 169.25 C 251.871094 174.503906 249.007812 188.351562 244.707031 195.515625 C 242.796875 198.859375 240.410156 200.292969 238.5 201.246094 C 237.542969 201.726562 236.589844 202.203125 235.632812 203.15625 C 234.679688 204.113281 234.203125 204.589844 233.722656 206.980469 C 231.8125 214.144531 227.515625 220.828125 220.351562 227.992188 C 218.917969 228.949219 214.621094 232.769531 209.84375 236.589844 C 209.84375 240.886719 210.320312 243.753906 210.800781 245.1875 C 211.277344 246.617188 212.710938 248.53125 215.097656 249.007812 C 217.007812 249.484375 250.917969 262.378906 256.648438 264.765625 C 257.605469 265.246094 258.558594 265.722656 259.515625 265.722656 C 259.992188 265.722656 260.46875 266.199219 260.945312 266.199219 C 270.976562 269.066406 276.230469 275.753906 278.617188 287.214844 C 278.617188 287.214844 278.617188 287.214844 278.617188 287.691406 C 278.617188 287.691406 280.527344 320.644531 281.484375 341.183594 C 281.484375 342.136719 281.003906 343.09375 280.050781 343.570312 C 260.945312 353.121094 226.082031 364.582031 203.15625 365.539062 C 197.425781 365.0625 191.695312 365.539062 186.441406 365.539062 Z M 87.582031 331.628906 C 122.921875 355.507812 152.054688 362.671875 203.160156 360.285156 C 224.648438 359.332031 257.605469 348.824219 276.707031 339.75 C 275.753906 320.167969 274.320312 290.558594 274.320312 288.167969 C 272.410156 278.140625 268.589844 273.363281 259.992188 270.976562 C 259.515625 270.976562 259.035156 270.5 258.082031 270.5 C 257.125 270.019531 256.171875 270.019531 255.214844 269.542969 C 249.484375 267.15625 214.144531 254.261719 213.664062 253.78125 C 210.800781 252.828125 207.933594 250.917969 206.5 247.574219 C 205.546875 245.1875 205.070312 241.367188 205.070312 235.632812 C 205.070312 234.679688 205.546875 234.203125 206.023438 233.722656 C 211.753906 229.425781 216.054688 226.082031 217.007812 225.128906 C 223.695312 218.441406 227.515625 212.710938 228.949219 206.5 C 229.425781 204.113281 229.902344 202.203125 232.769531 200.292969 C 233.722656 199.335938 235.15625 198.859375 236.113281 197.90625 C 238.023438 196.949219 239.457031 195.996094 240.886719 194.085938 C 244.707031 187.398438 247.097656 174.980469 247.097656 170.683594 C 246.140625 167.816406 243.277344 165.429688 239.457031 164.949219 C 238.976562 164.949219 238.5 164.949219 238.023438 164.949219 L 237.066406 164.949219 C 234.203125 164.949219 233.246094 164.949219 232.292969 163.519531 C 231.335938 162.5625 231.335938 161.128906 231.335938 160.175781 L 231.335938 159.699219 C 231.8125 156.355469 230.382812 144.414062 229.902344 138.683594 C 229.425781 136.296875 229.425781 134.863281 229.425781 134.386719 C 229.425781 114.328125 208.410156 97.609375 181.667969 96.65625 C 181.667969 96.65625 181.667969 96.65625 181.1875 96.65625 C 181.1875 96.65625 180.710938 96.65625 180.710938 96.65625 C 153.964844 97.609375 132.953125 114.328125 132.953125 134.386719 C 132.953125 134.386719 132.953125 135.339844 132.953125 136.773438 C 132.953125 142.503906 132.476562 156.832031 132.476562 161.128906 C 132.476562 162.085938 132.476562 163.519531 131.519531 164.472656 C 130.5625 165.429688 129.132812 165.429688 127.699219 164.949219 C 126.742188 164.949219 125.789062 164.472656 124.355469 164.949219 C 123.878906 164.949219 123.402344 164.949219 122.445312 164.949219 C 118.625 165.429688 115.28125 167.339844 114.804688 170.683594 C 114.804688 174.980469 117.667969 187.875 121.011719 194.082031 C 121.96875 195.996094 123.402344 196.949219 125.789062 197.90625 C 126.742188 198.382812 128.175781 199.335938 129.132812 200.292969 C 131.519531 202.203125 131.996094 204.589844 132.476562 206.5 C 133.90625 212.710938 137.726562 218.441406 144.414062 225.128906 C 145.371094 226.082031 149.667969 229.425781 154.921875 233.246094 C 155.398438 233.722656 155.875 234.679688 155.875 235.15625 C 155.398438 241.367188 155.398438 245.1875 154.921875 247.097656 C 153.964844 250.917969 150.625 253.304688 146.800781 254.261719 L 112.894531 266.679688 C 109.074219 267.632812 105.730469 269.066406 102.863281 270.976562 C 95.222656 275.753906 91.402344 279.09375 89.015625 289.601562 C 87.105469 297.722656 86.625 319.691406 86.625 329.242188 C 87.582031 329.242188 87.582031 330.675781 87.582031 331.628906 Z M 87.582031 331.628906 "/>
<path style=" stroke:none;fill-rule:nonzero;fill:rgb(53.729248%,36.468506%,23.919678%);fill-opacity:1;" d="M 239.933594 183.578125 L 237.066406 183.097656 L 238.023438 174.503906 L 233.246094 176.414062 L 232.292969 173.546875 L 239.457031 170.683594 C 239.933594 170.683594 240.410156 170.683594 240.886719 170.683594 C 241.367188 171.160156 241.367188 171.636719 241.367188 172.113281 Z M 124.355469 181.667969 L 122.921875 170.683594 C 122.921875 170.203125 122.921875 169.726562 123.402344 169.25 C 123.878906 168.773438 124.355469 168.773438 124.832031 169.25 L 131.996094 172.113281 L 131.042969 174.980469 L 126.265625 173.070312 L 127.222656 181.667969 Z M 124.355469 181.667969 "/>
<path style=" stroke:none;fill-rule:nonzero;fill:rgb(27.839661%,16.859436%,16.079712%);fill-opacity:1;" d="M 130.5625 203.160156 C 130.085938 203.160156 129.609375 202.679688 129.609375 202.203125 L 130.5625 161.128906 C 130.5625 160.652344 131.042969 160.175781 131.519531 160.175781 C 131.996094 160.175781 132.476562 160.652344 132.476562 161.128906 L 131.519531 202.203125 C 131.519531 202.679688 131.042969 203.160156 130.5625 203.160156 Z M 232.769531 203.160156 C 232.292969 203.160156 231.8125 202.679688 231.8125 202.203125 L 230.859375 161.128906 C 230.859375 160.652344 231.335938 160.175781 231.8125 160.175781 C 232.292969 160.175781 232.769531 160.652344 232.769531 161.128906 L 233.722656 202.203125 C 233.722656 202.679688 233.246094 203.160156 232.769531 203.160156 Z M 181.667969 246.617188 C 171.636719 246.617188 154.445312 234.203125 153.488281 233.722656 C 153.011719 233.246094 153.011719 232.769531 153.011719 232.292969 C 153.011719 231.8125 153.964844 231.8125 154.445312 231.8125 C 154.445312 231.8125 173.070312 245.1875 182.144531 244.230469 C 191.21875 243.277344 206.023438 232.769531 206.023438 232.769531 C 206.5 232.292969 207.457031 232.292969 207.457031 233.246094 C 207.457031 234.203125 207.933594 234.679688 206.980469 234.679688 C 206.5 235.15625 191.695312 245.664062 182.144531 246.617188 C 182.621094 246.617188 182.144531 246.617188 181.667969 246.617188 Z M 181.667969 246.617188 "/>
<path style=" stroke:none;fill-rule:nonzero;fill:rgb(74.508667%,47.059631%,25.489807%);fill-opacity:1;" d="M 240.886719 97.132812 C 240.410156 94.265625 237.542969 94.746094 234.679688 95.222656 C 225.605469 95.699219 223.695312 92.835938 205.070312 82.804688 C 186.921875 72.777344 168.292969 76.597656 155.875 85.671875 C 99.042969 98.089844 132.476562 171.636719 132.476562 171.636719 C 132.476562 171.636719 132.476562 132.953125 150.144531 121.488281 C 179.757812 140.59375 207.933594 142.980469 225.128906 131.519531 C 231.8125 146.324219 231.8125 171.636719 231.8125 171.636719 C 231.8125 171.636719 245.664062 148.234375 237.066406 120.058594 C 234.203125 112.414062 241.84375 105.730469 240.886719 97.132812 Z M 240.886719 97.132812 "/>
<path style=" stroke:none;fill-rule:nonzero;fill:rgb(27.839661%,16.859436%,16.079712%);fill-opacity:1;" d="M 233.246094 170.683594 L 230.859375 170.683594 C 230.859375 170.203125 230.859375 146.324219 225.128906 131.996094 C 206.5 143.460938 177.847656 139.160156 149.667969 121.488281 C 132.953125 133.429688 132.953125 170.203125 132.953125 170.203125 L 130.5625 170.203125 C 130.5625 168.773438 130.5625 130.5625 148.710938 118.625 C 149.191406 118.148438 149.667969 118.148438 150.144531 118.625 C 178.324219 136.296875 206.980469 140.117188 225.128906 128.652344 C 225.605469 128.652344 225.605469 128.175781 226.082031 128.652344 C 226.558594 128.652344 226.558594 129.132812 227.039062 129.132812 C 233.246094 144.414062 233.246094 169.25 233.246094 170.683594 Z M 233.246094 170.683594 "/>
</g>
</svg>
