<?xml version="1.0" encoding="UTF-8"?>
<svg xmlns="http://www.w3.org/2000/svg" xmlns:xlink="http://www.w3.org/1999/xlink" width="375pt" height="374.999991pt" viewBox="0 0 375 374.999991" version="1.2">
<defs>
<clipPath id="clip1">
  <path d="M 29 21.386719 L 346 21.386719 L 346 336.773438 L 29 336.773438 Z M 29 21.386719 "/>
</clipPath>
<clipPath id="clip2">
  <path d="M 312 21.386719 L 346 21.386719 L 346 55 L 312 55 Z M 312 21.386719 "/>
</clipPath>
</defs>
<g id="surface1">
<path style=" stroke:none;fill-rule:nonzero;fill:rgb(94.509888%,73.728943%,9.799194%);fill-opacity:1;" d="M 304.242188 25.945312 C 303.96875 25.945312 303.699219 25.96875 303.429688 26.023438 C 303.164062 26.078125 302.902344 26.15625 302.652344 26.257812 C 302.398438 26.363281 302.160156 26.492188 301.929688 26.640625 C 301.703125 26.792969 301.492188 26.964844 301.300781 27.15625 C 301.109375 27.351562 300.933594 27.558594 300.785156 27.785156 C 300.632812 28.011719 300.503906 28.25 300.398438 28.503906 C 300.292969 28.753906 300.214844 29.011719 300.164062 29.28125 C 300.109375 29.546875 300.082031 29.816406 300.082031 30.089844 C 300.082031 30.359375 300.109375 30.628906 300.164062 30.898438 C 300.214844 31.164062 300.292969 31.421875 300.398438 31.675781 C 300.503906 31.925781 300.632812 32.164062 300.785156 32.390625 C 300.933594 32.617188 301.109375 32.828125 301.300781 33.019531 C 301.492188 33.210938 301.703125 33.382812 301.929688 33.535156 C 302.160156 33.683594 302.398438 33.8125 302.652344 33.917969 C 302.902344 34.019531 303.164062 34.101562 303.429688 34.152344 C 303.699219 34.207031 303.96875 34.234375 304.242188 34.234375 C 304.515625 34.234375 304.785156 34.207031 305.054688 34.152344 C 305.324219 34.101562 305.582031 34.019531 305.835938 33.917969 C 306.085938 33.8125 306.328125 33.683594 306.554688 33.535156 C 306.78125 33.382812 306.992188 33.210938 307.183594 33.019531 C 307.378906 32.828125 307.550781 32.617188 307.703125 32.390625 C 307.855469 32.164062 307.980469 31.925781 308.085938 31.675781 C 308.191406 31.421875 308.269531 31.164062 308.324219 30.898438 C 308.375 30.628906 308.402344 30.359375 308.402344 30.089844 C 308.402344 29.816406 308.375 29.546875 308.324219 29.28125 C 308.269531 29.011719 308.191406 28.753906 308.085938 28.503906 C 307.980469 28.25 307.855469 28.011719 307.703125 27.785156 C 307.550781 27.558594 307.378906 27.351562 307.183594 27.15625 C 306.992188 26.964844 306.78125 26.792969 306.554688 26.640625 C 306.328125 26.492188 306.085938 26.363281 305.835938 26.257812 C 305.582031 26.15625 305.324219 26.078125 305.054688 26.023438 C 304.785156 25.96875 304.515625 25.945312 304.242188 25.945312 Z M 304.242188 25.945312 "/>
<g clip-path="url(#clip1)" clip-rule="nonzero">
<path style=" stroke:none;fill-rule:nonzero;fill:rgb(97.648621%,85.879517%,82.348633%);fill-opacity:1;" d="M 187.753906 21.800781 C 185.164062 21.800781 182.578125 21.863281 179.996094 21.988281 C 177.410156 22.117188 174.832031 22.304688 172.257812 22.558594 C 169.683594 22.8125 167.113281 23.125 164.554688 23.503906 C 161.996094 23.882812 159.449219 24.324219 156.910156 24.824219 C 154.371094 25.328125 151.847656 25.894531 149.339844 26.519531 C 146.828125 27.144531 144.335938 27.832031 141.859375 28.582031 C 139.382812 29.328125 136.929688 30.136719 134.492188 31.003906 C 132.054688 31.875 129.644531 32.800781 127.253906 33.789062 C 124.863281 34.773438 122.496094 35.816406 120.160156 36.921875 C 117.820312 38.023438 115.507812 39.179688 113.226562 40.394531 C 110.945312 41.609375 108.695312 42.878906 106.476562 44.207031 C 104.257812 45.53125 102.070312 46.910156 99.921875 48.339844 C 97.769531 49.773438 95.65625 51.257812 93.578125 52.792969 C 91.5 54.328125 89.460938 55.914062 87.460938 57.546875 C 85.460938 59.183594 83.5 60.867188 81.582031 62.597656 C 79.667969 64.328125 77.792969 66.105469 75.964844 67.925781 C 74.132812 69.75 72.351562 71.613281 70.613281 73.523438 C 68.875 75.433594 67.1875 77.386719 65.542969 79.378906 C 63.902344 81.371094 62.3125 83.402344 60.769531 85.472656 C 59.230469 87.542969 57.738281 89.648438 56.300781 91.792969 C 54.867188 93.933594 53.480469 96.109375 52.152344 98.320312 C 50.820312 100.53125 49.546875 102.773438 48.328125 105.046875 C 47.105469 107.320312 45.945312 109.621094 44.835938 111.953125 C 43.730469 114.28125 42.683594 116.636719 41.691406 119.019531 C 40.703125 121.398438 39.773438 123.804688 38.902344 126.230469 C 38.027344 128.65625 37.21875 131.105469 36.464844 133.570312 C 35.714844 136.035156 35.027344 138.519531 34.398438 141.019531 C 33.769531 143.519531 33.203125 146.035156 32.695312 148.5625 C 32.191406 151.089844 31.75 153.628906 31.371094 156.179688 C 30.992188 158.726562 30.675781 161.285156 30.421875 163.847656 C 30.167969 166.414062 29.976562 168.984375 29.847656 171.558594 C 29.722656 174.132812 29.660156 176.707031 29.660156 179.285156 C 29.660156 181.863281 29.722656 184.4375 29.847656 187.011719 C 29.976562 189.585938 30.167969 192.15625 30.421875 194.722656 C 30.675781 197.289062 30.992188 199.84375 31.371094 202.394531 C 31.75 204.945312 32.191406 207.480469 32.695312 210.011719 C 33.203125 212.539062 33.769531 215.050781 34.398438 217.550781 C 35.027344 220.050781 35.714844 222.535156 36.464844 225 C 37.21875 227.46875 38.027344 229.914062 38.902344 232.339844 C 39.773438 234.769531 40.703125 237.171875 41.691406 239.554688 C 42.683594 241.933594 43.730469 244.289062 44.835938 246.621094 C 45.945312 248.949219 47.105469 251.25 48.328125 253.523438 C 49.546875 255.796875 50.820312 258.039062 52.152344 260.25 C 53.480469 262.460938 54.867188 264.636719 56.300781 266.78125 C 57.738281 268.921875 59.230469 271.03125 60.769531 273.101562 C 62.3125 275.171875 63.902344 277.203125 65.542969 279.195312 C 67.1875 281.1875 68.875 283.136719 70.613281 285.046875 C 72.351562 286.957031 74.132812 288.824219 75.964844 290.644531 C 77.792969 292.46875 79.667969 294.246094 81.582031 295.976562 C 83.5 297.707031 85.460938 299.390625 87.460938 301.023438 C 89.460938 302.660156 91.5 304.246094 93.578125 305.78125 C 95.65625 307.316406 97.769531 308.800781 99.921875 310.230469 C 102.070312 311.664062 104.257812 313.042969 106.476562 314.367188 C 108.695312 315.691406 110.945312 316.960938 113.226562 318.175781 C 115.507812 319.390625 117.820312 320.550781 120.160156 321.652344 C 122.496094 322.753906 124.863281 323.796875 127.253906 324.785156 C 129.644531 325.769531 132.054688 326.699219 134.492188 327.566406 C 136.929688 328.433594 139.382812 329.242188 141.859375 329.992188 C 144.335938 330.738281 146.828125 331.425781 149.339844 332.050781 C 151.847656 332.679688 154.371094 333.242188 156.910156 333.746094 C 159.449219 334.25 161.996094 334.691406 164.554688 335.066406 C 167.113281 335.445312 169.683594 335.761719 172.257812 336.015625 C 174.832031 336.265625 177.410156 336.457031 179.996094 336.582031 C 182.578125 336.710938 185.164062 336.773438 187.753906 336.773438 C 190.339844 336.773438 192.925781 336.710938 195.511719 336.582031 C 198.09375 336.457031 200.671875 336.265625 203.25 336.015625 C 205.824219 335.761719 208.390625 335.445312 210.949219 335.066406 C 213.507812 334.691406 216.058594 334.25 218.59375 333.746094 C 221.132812 333.242188 223.65625 332.679688 226.167969 332.050781 C 228.675781 331.425781 231.167969 330.738281 233.644531 329.992188 C 236.121094 329.242188 238.578125 328.433594 241.011719 327.566406 C 243.449219 326.699219 245.863281 325.769531 248.253906 324.785156 C 250.644531 323.796875 253.007812 322.753906 255.347656 321.652344 C 257.683594 320.550781 259.996094 319.390625 262.277344 318.175781 C 264.558594 316.960938 266.808594 315.691406 269.027344 314.367188 C 271.25 313.042969 273.433594 311.664062 275.585938 310.230469 C 277.734375 308.800781 279.851562 307.316406 281.929688 305.78125 C 284.007812 304.246094 286.046875 302.660156 288.046875 301.023438 C 290.046875 299.390625 292.003906 297.707031 293.921875 295.976562 C 295.839844 294.246094 297.710938 292.46875 299.542969 290.644531 C 301.371094 288.824219 303.15625 286.957031 304.890625 285.046875 C 306.628906 283.136719 308.320312 281.1875 309.960938 279.195312 C 311.601562 277.203125 313.195312 275.171875 314.734375 273.101562 C 316.277344 271.03125 317.765625 268.921875 319.203125 266.78125 C 320.640625 264.636719 322.023438 262.460938 323.355469 260.25 C 324.683594 258.039062 325.960938 255.796875 327.179688 253.523438 C 328.398438 251.25 329.5625 248.949219 330.667969 246.621094 C 331.773438 244.289062 332.820312 241.933594 333.8125 239.554688 C 334.800781 237.171875 335.734375 234.769531 336.605469 232.339844 C 337.476562 229.914062 338.289062 227.46875 339.039062 225 C 339.789062 222.535156 340.480469 220.050781 341.109375 217.550781 C 341.738281 215.050781 342.304688 212.539062 342.808594 210.011719 C 343.3125 207.480469 343.753906 204.945312 344.136719 202.394531 C 344.515625 199.84375 344.832031 197.289062 345.085938 194.722656 C 345.339844 192.15625 345.527344 189.585938 345.65625 187.011719 C 345.78125 184.4375 345.847656 181.863281 345.847656 179.285156 C 345.847656 176.707031 345.78125 174.132812 345.65625 171.558594 C 345.527344 168.984375 345.339844 166.414062 345.085938 163.847656 C 344.832031 161.285156 344.515625 158.726562 344.136719 156.179688 C 343.753906 153.628906 343.3125 151.089844 342.808594 148.5625 C 342.304688 146.035156 341.738281 143.519531 341.109375 141.019531 C 340.480469 138.519531 339.789062 136.035156 339.039062 133.570312 C 338.289062 131.105469 337.476562 128.65625 336.605469 126.230469 C 335.734375 123.804688 334.800781 121.398438 333.8125 119.019531 C 332.820312 116.636719 331.773438 114.28125 330.667969 111.953125 C 329.5625 109.621094 328.398438 107.320312 327.179688 105.046875 C 325.960938 102.773438 324.683594 100.53125 323.355469 98.320312 C 322.023438 96.109375 320.640625 93.933594 319.203125 91.792969 C 317.765625 89.648438 316.277344 87.542969 314.734375 85.472656 C 313.195312 83.402344 311.601562 81.371094 309.960938 79.378906 C 308.320312 77.386719 306.628906 75.433594 304.890625 73.523438 C 303.15625 71.613281 301.371094 69.75 299.542969 67.925781 C 297.710938 66.105469 295.839844 64.328125 293.921875 62.597656 C 292.003906 60.867188 290.046875 59.183594 288.046875 57.546875 C 286.046875 55.914062 284.007812 54.328125 281.929688 52.792969 C 279.851562 51.257812 277.734375 49.773438 275.585938 48.339844 C 273.433594 46.910156 271.25 45.53125 269.027344 44.207031 C 266.808594 42.878906 264.558594 41.609375 262.277344 40.394531 C 259.996094 39.179688 257.683594 38.023438 255.347656 36.921875 C 253.007812 35.816406 250.644531 34.773438 248.253906 33.789062 C 245.863281 32.800781 243.449219 31.875 241.011719 31.003906 C 238.578125 30.136719 236.121094 29.328125 233.644531 28.582031 C 231.167969 27.832031 228.675781 27.144531 226.167969 26.519531 C 223.65625 25.894531 221.132812 25.328125 218.59375 24.824219 C 216.058594 24.324219 213.507812 23.882812 210.949219 23.503906 C 208.390625 23.125 205.824219 22.8125 203.25 22.558594 C 200.671875 22.304688 198.09375 22.117188 195.511719 21.988281 C 192.925781 21.863281 190.339844 21.800781 187.753906 21.800781 Z M 187.753906 21.800781 "/>
</g>
<g clip-path="url(#clip2)" clip-rule="nonzero">
<path style=" stroke:none;fill-rule:nonzero;fill:rgb(94.509888%,73.728943%,9.799194%);fill-opacity:1;" d="M 329.203125 21.800781 C 328.660156 21.800781 328.117188 21.828125 327.574219 21.878906 C 327.03125 21.933594 326.492188 22.011719 325.957031 22.117188 C 325.421875 22.222656 324.894531 22.355469 324.375 22.511719 C 323.851562 22.671875 323.339844 22.855469 322.835938 23.0625 C 322.332031 23.269531 321.839844 23.5 321.359375 23.757812 C 320.878906 24.011719 320.414062 24.292969 319.960938 24.59375 C 319.507812 24.894531 319.070312 25.21875 318.648438 25.5625 C 318.226562 25.90625 317.824219 26.269531 317.4375 26.65625 C 317.050781 27.039062 316.6875 27.441406 316.339844 27.859375 C 315.996094 28.28125 315.671875 28.714844 315.367188 29.167969 C 315.066406 29.617188 314.785156 30.082031 314.527344 30.5625 C 314.273438 31.042969 314.039062 31.53125 313.832031 32.03125 C 313.621094 32.535156 313.4375 33.046875 313.28125 33.566406 C 313.121094 34.085938 312.988281 34.609375 312.882812 35.144531 C 312.777344 35.675781 312.695312 36.210938 312.644531 36.753906 C 312.589844 37.292969 312.5625 37.835938 312.5625 38.378906 C 312.5625 38.921875 312.589844 39.460938 312.644531 40.003906 C 312.695312 40.542969 312.777344 41.078125 312.882812 41.609375 C 312.988281 42.144531 313.121094 42.667969 313.28125 43.1875 C 313.4375 43.707031 313.621094 44.21875 313.832031 44.722656 C 314.039062 45.222656 314.273438 45.710938 314.527344 46.191406 C 314.785156 46.671875 315.066406 47.136719 315.367188 47.585938 C 315.671875 48.039062 315.996094 48.472656 316.339844 48.894531 C 316.6875 49.3125 317.050781 49.714844 317.4375 50.097656 C 317.824219 50.484375 318.226562 50.847656 318.648438 51.191406 C 319.070312 51.535156 319.507812 51.859375 319.960938 52.160156 C 320.414062 52.460938 320.878906 52.742188 321.359375 52.996094 C 321.839844 53.253906 322.332031 53.484375 322.835938 53.691406 C 323.339844 53.902344 323.851562 54.082031 324.375 54.242188 C 324.894531 54.398438 325.421875 54.53125 325.957031 54.636719 C 326.492188 54.742188 327.03125 54.820312 327.574219 54.875 C 328.117188 54.929688 328.660156 54.953125 329.203125 54.953125 C 329.75 54.953125 330.292969 54.929688 330.835938 54.875 C 331.378906 54.820312 331.917969 54.742188 332.453125 54.636719 C 332.984375 54.53125 333.515625 54.398438 334.035156 54.242188 C 334.558594 54.082031 335.070312 53.902344 335.574219 53.691406 C 336.078125 53.484375 336.570312 53.253906 337.050781 52.996094 C 337.53125 52.742188 337.996094 52.460938 338.449219 52.160156 C 338.902344 51.859375 339.339844 51.535156 339.761719 51.191406 C 340.183594 50.847656 340.585938 50.484375 340.972656 50.097656 C 341.359375 49.714844 341.722656 49.3125 342.070312 48.894531 C 342.414062 48.472656 342.738281 48.039062 343.042969 47.585938 C 343.34375 47.136719 343.625 46.671875 343.882812 46.191406 C 344.136719 45.710938 344.371094 45.222656 344.578125 44.722656 C 344.789062 44.21875 344.972656 43.707031 345.128906 43.1875 C 345.289062 42.667969 345.421875 42.144531 345.527344 41.609375 C 345.632812 41.078125 345.710938 40.542969 345.765625 40.003906 C 345.820312 39.460938 345.847656 38.921875 345.847656 38.378906 C 345.847656 37.835938 345.820312 37.292969 345.765625 36.753906 C 345.710938 36.210938 345.632812 35.675781 345.527344 35.144531 C 345.421875 34.609375 345.289062 34.085938 345.128906 33.566406 C 344.972656 33.046875 344.789062 32.535156 344.578125 32.03125 C 344.371094 31.53125 344.136719 31.042969 343.882812 30.5625 C 343.625 30.082031 343.34375 29.617188 343.042969 29.167969 C 342.738281 28.714844 342.414062 28.28125 342.070312 27.859375 C 341.722656 27.441406 341.359375 27.039062 340.972656 26.65625 C 340.585938 26.269531 340.183594 25.90625 339.761719 25.5625 C 339.339844 25.21875 338.902344 24.894531 338.449219 24.59375 C 337.996094 24.292969 337.53125 24.011719 337.050781 23.757812 C 336.570312 23.5 336.078125 23.269531 335.574219 23.0625 C 335.070312 22.855469 334.558594 22.671875 334.035156 22.511719 C 333.515625 22.355469 332.984375 22.222656 332.453125 22.117188 C 331.917969 22.011719 331.378906 21.933594 330.835938 21.878906 C 330.292969 21.828125 329.75 21.800781 329.203125 21.800781 Z M 329.203125 21.800781 "/>
</g>
<path style=" stroke:none;fill-rule:nonzero;fill:rgb(93.328857%,24.308777%,32.939148%);fill-opacity:1;" d="M 37.980469 71.53125 C 37.433594 71.53125 36.890625 71.585938 36.355469 71.691406 C 35.820312 71.796875 35.300781 71.953125 34.796875 72.164062 C 34.289062 72.371094 33.8125 72.625 33.355469 72.929688 C 32.902344 73.230469 32.484375 73.574219 32.097656 73.960938 C 31.710938 74.34375 31.363281 74.761719 31.0625 75.214844 C 30.757812 75.667969 30.5 76.144531 30.292969 76.648438 C 30.082031 77.152344 29.925781 77.671875 29.820312 78.203125 C 29.710938 78.738281 29.660156 79.277344 29.660156 79.820312 C 29.660156 80.363281 29.710938 80.902344 29.820312 81.4375 C 29.925781 81.972656 30.082031 82.488281 30.292969 82.992188 C 30.5 83.496094 30.757812 83.972656 31.0625 84.425781 C 31.363281 84.878906 31.710938 85.296875 32.097656 85.683594 C 32.484375 86.066406 32.902344 86.410156 33.355469 86.710938 C 33.8125 87.015625 34.289062 87.269531 34.796875 87.480469 C 35.300781 87.6875 35.820312 87.84375 36.355469 87.949219 C 36.890625 88.054688 37.433594 88.109375 37.980469 88.109375 C 38.527344 88.109375 39.066406 88.054688 39.601562 87.949219 C 40.140625 87.84375 40.660156 87.6875 41.164062 87.480469 C 41.667969 87.269531 42.148438 87.015625 42.601562 86.710938 C 43.058594 86.410156 43.476562 86.066406 43.863281 85.683594 C 44.25 85.296875 44.59375 84.878906 44.898438 84.425781 C 45.203125 83.972656 45.457031 83.496094 45.667969 82.992188 C 45.875 82.488281 46.035156 81.972656 46.140625 81.4375 C 46.246094 80.902344 46.300781 80.363281 46.300781 79.820312 C 46.300781 79.277344 46.246094 78.738281 46.140625 78.203125 C 46.035156 77.671875 45.875 77.152344 45.667969 76.648438 C 45.457031 76.144531 45.203125 75.667969 44.898438 75.214844 C 44.59375 74.761719 44.25 74.34375 43.863281 73.960938 C 43.476562 73.574219 43.058594 73.230469 42.601562 72.929688 C 42.148438 72.625 41.667969 72.371094 41.164062 72.164062 C 40.660156 71.953125 40.140625 71.796875 39.601562 71.691406 C 39.066406 71.585938 38.527344 71.53125 37.980469 71.53125 Z M 37.980469 71.53125 "/>
<path style=" stroke:none;fill-rule:nonzero;fill:rgb(98.429871%,80.389404%,34.899902%);fill-opacity:1;" d="M 304.242188 282.894531 C 303.695312 282.894531 303.15625 282.949219 302.621094 283.054688 C 302.082031 283.160156 301.5625 283.316406 301.058594 283.527344 C 300.554688 283.734375 300.074219 283.988281 299.621094 284.292969 C 299.164062 284.59375 298.746094 284.9375 298.359375 285.324219 C 297.972656 285.707031 297.628906 286.125 297.324219 286.578125 C 297.019531 287.03125 296.765625 287.507812 296.554688 288.011719 C 296.347656 288.515625 296.1875 289.035156 296.082031 289.566406 C 295.976562 290.101562 295.921875 290.640625 295.921875 291.183594 C 295.921875 291.726562 295.976562 292.265625 296.082031 292.800781 C 296.1875 293.335938 296.347656 293.851562 296.554688 294.355469 C 296.765625 294.859375 297.019531 295.335938 297.324219 295.789062 C 297.628906 296.242188 297.972656 296.660156 298.359375 297.046875 C 298.746094 297.429688 299.164062 297.773438 299.621094 298.074219 C 300.074219 298.378906 300.554688 298.632812 301.058594 298.84375 C 301.5625 299.050781 302.082031 299.207031 302.621094 299.3125 C 303.15625 299.417969 303.695312 299.472656 304.242188 299.472656 C 304.789062 299.472656 305.332031 299.417969 305.867188 299.3125 C 306.402344 299.207031 306.921875 299.050781 307.425781 298.84375 C 307.933594 298.632812 308.410156 298.378906 308.867188 298.074219 C 309.320312 297.773438 309.738281 297.429688 310.125 297.046875 C 310.511719 296.660156 310.859375 296.242188 311.160156 295.789062 C 311.464844 295.335938 311.722656 294.859375 311.929688 294.355469 C 312.140625 293.851562 312.296875 293.335938 312.402344 292.800781 C 312.511719 292.265625 312.5625 291.726562 312.5625 291.183594 C 312.5625 290.640625 312.511719 290.101562 312.402344 289.566406 C 312.296875 289.035156 312.140625 288.515625 311.929688 288.011719 C 311.722656 287.507812 311.464844 287.03125 311.160156 286.578125 C 310.859375 286.125 310.511719 285.707031 310.125 285.324219 C 309.738281 284.9375 309.320312 284.59375 308.867188 284.292969 C 308.410156 283.988281 307.933594 283.734375 307.425781 283.527344 C 306.921875 283.316406 306.402344 283.160156 305.867188 283.054688 C 305.332031 282.949219 304.789062 282.894531 304.242188 282.894531 Z M 50.460938 278.75 C 49.914062 278.75 49.371094 278.777344 48.828125 278.832031 C 48.289062 278.882812 47.75 278.964844 47.214844 279.070312 C 46.679688 279.175781 46.152344 279.308594 45.628906 279.464844 C 45.109375 279.621094 44.597656 279.804688 44.09375 280.011719 C 43.589844 280.21875 43.097656 280.453125 42.617188 280.707031 C 42.136719 280.964844 41.667969 281.242188 41.214844 281.542969 C 40.761719 281.847656 40.324219 282.167969 39.902344 282.515625 C 39.480469 282.859375 39.078125 283.222656 38.695312 283.605469 C 38.308594 283.992188 37.941406 284.390625 37.597656 284.8125 C 37.25 285.230469 36.925781 285.667969 36.625 286.117188 C 36.320312 286.570312 36.042969 287.035156 35.785156 287.515625 C 35.527344 287.992188 35.292969 288.484375 35.085938 288.984375 C 34.878906 289.484375 34.695312 289.996094 34.535156 290.515625 C 34.378906 291.035156 34.246094 291.5625 34.140625 292.09375 C 34.03125 292.625 33.953125 293.164062 33.898438 293.703125 C 33.847656 294.242188 33.820312 294.785156 33.820312 295.328125 C 33.820312 295.871094 33.847656 296.414062 33.898438 296.953125 C 33.953125 297.492188 34.03125 298.03125 34.140625 298.5625 C 34.246094 299.09375 34.378906 299.621094 34.535156 300.140625 C 34.695312 300.660156 34.878906 301.171875 35.085938 301.671875 C 35.292969 302.175781 35.527344 302.664062 35.785156 303.144531 C 36.042969 303.621094 36.320312 304.085938 36.625 304.539062 C 36.925781 304.988281 37.25 305.425781 37.597656 305.84375 C 37.941406 306.265625 38.308594 306.667969 38.695312 307.050781 C 39.078125 307.433594 39.480469 307.796875 39.902344 308.144531 C 40.324219 308.488281 40.761719 308.808594 41.214844 309.113281 C 41.667969 309.414062 42.136719 309.691406 42.617188 309.949219 C 43.097656 310.203125 43.589844 310.4375 44.09375 310.644531 C 44.597656 310.851562 45.109375 311.035156 45.628906 311.191406 C 46.152344 311.351562 46.679688 311.480469 47.214844 311.585938 C 47.75 311.695312 48.289062 311.773438 48.828125 311.828125 C 49.371094 311.878906 49.914062 311.90625 50.460938 311.90625 C 51.007812 311.90625 51.550781 311.878906 52.09375 311.828125 C 52.632812 311.773438 53.171875 311.695312 53.707031 311.585938 C 54.242188 311.480469 54.769531 311.351562 55.292969 311.191406 C 55.8125 311.035156 56.324219 310.851562 56.828125 310.644531 C 57.332031 310.4375 57.824219 310.203125 58.304688 309.949219 C 58.785156 309.691406 59.253906 309.414062 59.707031 309.113281 C 60.160156 308.8125 60.597656 308.488281 61.019531 308.144531 C 61.4375 307.796875 61.84375 307.433594 62.226562 307.050781 C 62.613281 306.667969 62.980469 306.265625 63.324219 305.84375 C 63.671875 305.425781 63.996094 304.988281 64.296875 304.539062 C 64.601562 304.085938 64.878906 303.621094 65.136719 303.144531 C 65.394531 302.664062 65.628906 302.175781 65.835938 301.671875 C 66.042969 301.171875 66.226562 300.660156 66.386719 300.140625 C 66.542969 299.621094 66.675781 299.09375 66.78125 298.5625 C 66.890625 298.03125 66.96875 297.492188 67.023438 296.953125 C 67.074219 296.414062 67.101562 295.871094 67.101562 295.328125 C 67.101562 294.785156 67.074219 294.242188 67.023438 293.703125 C 66.96875 293.164062 66.890625 292.625 66.78125 292.09375 C 66.675781 291.5625 66.542969 291.035156 66.386719 290.515625 C 66.226562 289.996094 66.042969 289.484375 65.835938 288.984375 C 65.628906 288.484375 65.394531 287.992188 65.136719 287.515625 C 64.878906 287.035156 64.601562 286.570312 64.296875 286.117188 C 63.996094 285.667969 63.671875 285.230469 63.324219 284.8125 C 62.980469 284.390625 62.613281 283.992188 62.226562 283.605469 C 61.84375 283.222656 61.4375 282.859375 61.019531 282.515625 C 60.597656 282.167969 60.160156 281.847656 59.707031 281.542969 C 59.253906 281.242188 58.785156 280.964844 58.304688 280.707031 C 57.824219 280.453125 57.332031 280.21875 56.828125 280.011719 C 56.324219 279.804688 55.8125 279.621094 55.292969 279.464844 C 54.769531 279.308594 54.242188 279.175781 53.707031 279.070312 C 53.171875 278.964844 52.632812 278.882812 52.09375 278.832031 C 51.550781 278.777344 51.007812 278.75 50.460938 278.75 Z M 50.460938 278.75 "/>
<path style=" stroke:none;fill-rule:nonzero;fill:rgb(93.328857%,24.308777%,32.939148%);fill-opacity:1;" d="M 79.582031 307.761719 C 79.035156 307.761719 78.496094 307.816406 77.960938 307.921875 C 77.425781 308.027344 76.902344 308.183594 76.398438 308.390625 C 75.894531 308.601562 75.414062 308.855469 74.960938 309.160156 C 74.507812 309.460938 74.085938 309.804688 73.699219 310.1875 C 73.3125 310.574219 72.96875 310.992188 72.664062 311.445312 C 72.363281 311.898438 72.105469 312.375 71.894531 312.878906 C 71.6875 313.382812 71.527344 313.898438 71.421875 314.433594 C 71.316406 314.96875 71.261719 315.507812 71.261719 316.050781 C 71.261719 316.59375 71.316406 317.132812 71.421875 317.667969 C 71.527344 318.203125 71.6875 318.71875 71.894531 319.222656 C 72.105469 319.726562 72.363281 320.203125 72.664062 320.65625 C 72.96875 321.109375 73.3125 321.527344 73.699219 321.910156 C 74.085938 322.296875 74.507812 322.640625 74.960938 322.941406 C 75.414062 323.246094 75.894531 323.5 76.398438 323.707031 C 76.902344 323.917969 77.425781 324.074219 77.960938 324.179688 C 78.496094 324.285156 79.035156 324.339844 79.582031 324.339844 C 80.128906 324.339844 80.671875 324.285156 81.207031 324.179688 C 81.742188 324.074219 82.261719 323.917969 82.769531 323.707031 C 83.273438 323.5 83.75 323.246094 84.207031 322.941406 C 84.660156 322.640625 85.082031 322.296875 85.46875 321.910156 C 85.851562 321.527344 86.199219 321.109375 86.5 320.65625 C 86.804688 320.203125 87.0625 319.726562 87.269531 319.222656 C 87.480469 318.71875 87.636719 318.203125 87.746094 317.667969 C 87.851562 317.132812 87.902344 316.59375 87.902344 316.050781 C 87.902344 315.507812 87.851562 314.96875 87.746094 314.433594 C 87.636719 313.898438 87.480469 313.382812 87.269531 312.878906 C 87.0625 312.375 86.804688 311.898438 86.5 311.445312 C 86.199219 310.992188 85.851562 310.574219 85.46875 310.1875 C 85.082031 309.804688 84.660156 309.460938 84.207031 309.160156 C 83.75 308.855469 83.273438 308.601562 82.769531 308.390625 C 82.261719 308.183594 81.742188 308.027344 81.207031 307.921875 C 80.671875 307.816406 80.128906 307.761719 79.582031 307.761719 Z M 79.582031 307.761719 "/>
<path style=" stroke:none;fill-rule:nonzero;fill:rgb(100%,100%,100%);fill-opacity:1;" d="M 256.328125 287.179688 C 255.648438 287.179688 254.976562 287.246094 254.3125 287.378906 C 253.648438 287.511719 253 287.707031 252.375 287.964844 C 251.75 288.222656 251.152344 288.539062 250.589844 288.914062 C 250.023438 289.289062 249.503906 289.71875 249.023438 290.195312 C 248.542969 290.671875 248.117188 291.191406 247.738281 291.753906 C 247.363281 292.316406 247.042969 292.910156 246.785156 293.53125 C 246.523438 294.15625 246.328125 294.800781 246.195312 295.464844 C 246.0625 296.125 245.996094 296.796875 245.996094 297.472656 C 245.996094 298.148438 246.0625 298.816406 246.195312 299.480469 C 246.328125 300.140625 246.523438 300.785156 246.785156 301.410156 C 247.042969 302.035156 247.363281 302.625 247.738281 303.1875 C 248.117188 303.75 248.542969 304.269531 249.023438 304.746094 C 249.503906 305.226562 250.023438 305.652344 250.589844 306.027344 C 251.152344 306.402344 251.75 306.71875 252.375 306.976562 C 253 307.238281 253.648438 307.433594 254.3125 307.5625 C 254.976562 307.695312 255.648438 307.761719 256.328125 307.761719 C 257.007812 307.761719 257.679688 307.695312 258.34375 307.5625 C 259.007812 307.433594 259.65625 307.238281 260.28125 306.976562 C 260.90625 306.71875 261.503906 306.402344 262.066406 306.027344 C 262.632812 305.652344 263.152344 305.226562 263.632812 304.746094 C 264.113281 304.269531 264.539062 303.75 264.917969 303.1875 C 265.292969 302.625 265.613281 302.035156 265.871094 301.410156 C 266.132812 300.785156 266.328125 300.140625 266.460938 299.480469 C 266.59375 298.816406 266.65625 298.148438 266.65625 297.472656 C 266.65625 296.796875 266.59375 296.125 266.460938 295.464844 C 266.328125 294.800781 266.132812 294.15625 265.871094 293.53125 C 265.613281 292.910156 265.292969 292.316406 264.917969 291.753906 C 264.539062 291.191406 264.113281 290.671875 263.632812 290.195312 C 263.152344 289.71875 262.632812 289.289062 262.066406 288.914062 C 261.503906 288.539062 260.90625 288.222656 260.28125 287.964844 C 259.65625 287.707031 259.007812 287.511719 258.34375 287.378906 C 257.679688 287.246094 257.007812 287.179688 256.328125 287.179688 Z M 46.300781 166.851562 C 46.027344 166.851562 45.757812 166.878906 45.488281 166.933594 C 45.222656 166.984375 44.960938 167.0625 44.707031 167.167969 C 44.457031 167.273438 44.214844 167.398438 43.988281 167.550781 C 43.761719 167.703125 43.550781 167.875 43.359375 168.066406 C 43.164062 168.257812 42.992188 168.46875 42.839844 168.695312 C 42.691406 168.921875 42.5625 169.160156 42.457031 169.410156 C 42.351562 169.664062 42.273438 169.921875 42.21875 170.1875 C 42.167969 170.457031 42.140625 170.726562 42.140625 170.996094 C 42.140625 171.269531 42.167969 171.539062 42.21875 171.804688 C 42.273438 172.074219 42.351562 172.332031 42.457031 172.582031 C 42.5625 172.835938 42.691406 173.074219 42.839844 173.300781 C 42.992188 173.527344 43.164062 173.734375 43.359375 173.925781 C 43.550781 174.121094 43.761719 174.292969 43.988281 174.441406 C 44.214844 174.59375 44.457031 174.722656 44.707031 174.824219 C 44.960938 174.929688 45.222656 175.007812 45.488281 175.0625 C 45.757812 175.113281 46.027344 175.140625 46.300781 175.140625 C 46.574219 175.140625 46.84375 175.113281 47.113281 175.0625 C 47.378906 175.007812 47.640625 174.929688 47.894531 174.824219 C 48.144531 174.722656 48.386719 174.59375 48.613281 174.441406 C 48.839844 174.292969 49.050781 174.121094 49.242188 173.925781 C 49.433594 173.734375 49.609375 173.527344 49.757812 173.300781 C 49.910156 173.074219 50.039062 172.835938 50.144531 172.582031 C 50.25 172.332031 50.328125 172.074219 50.382812 171.804688 C 50.433594 171.539062 50.460938 171.269531 50.460938 170.996094 C 50.460938 170.726562 50.433594 170.457031 50.382812 170.1875 C 50.328125 169.921875 50.25 169.664062 50.144531 169.410156 C 50.039062 169.160156 49.910156 168.921875 49.757812 168.695312 C 49.609375 168.46875 49.433594 168.257812 49.242188 168.066406 C 49.050781 167.875 48.839844 167.703125 48.613281 167.550781 C 48.386719 167.398438 48.144531 167.273438 47.894531 167.167969 C 47.640625 167.0625 47.378906 166.984375 47.113281 166.933594 C 46.84375 166.878906 46.574219 166.851562 46.300781 166.851562 Z M 46.300781 166.851562 "/>
<path style=" stroke:none;fill-rule:nonzero;fill:rgb(94.509888%,73.728943%,9.799194%);fill-opacity:1;" d="M 337.527344 96.398438 C 337.253906 96.398438 336.980469 96.425781 336.714844 96.476562 C 336.445312 96.53125 336.1875 96.609375 335.933594 96.714844 C 335.679688 96.816406 335.441406 96.945312 335.214844 97.097656 C 334.988281 97.246094 334.777344 97.417969 334.582031 97.613281 C 334.390625 97.804688 334.21875 98.015625 334.066406 98.242188 C 333.914062 98.464844 333.785156 98.707031 333.683594 98.957031 C 333.578125 99.207031 333.5 99.46875 333.445312 99.734375 C 333.390625 100 333.367188 100.269531 333.367188 100.542969 C 333.367188 100.816406 333.390625 101.085938 333.445312 101.351562 C 333.5 101.617188 333.578125 101.878906 333.683594 102.128906 C 333.785156 102.378906 333.914062 102.617188 334.066406 102.84375 C 334.21875 103.070312 334.390625 103.28125 334.582031 103.472656 C 334.777344 103.664062 334.988281 103.835938 335.214844 103.988281 C 335.441406 104.140625 335.679688 104.265625 335.933594 104.371094 C 336.1875 104.476562 336.445312 104.554688 336.714844 104.609375 C 336.980469 104.660156 337.253906 104.6875 337.527344 104.6875 C 337.800781 104.6875 338.070312 104.660156 338.335938 104.609375 C 338.605469 104.554688 338.867188 104.476562 339.117188 104.371094 C 339.371094 104.265625 339.609375 104.140625 339.835938 103.988281 C 340.0625 103.835938 340.273438 103.664062 340.46875 103.472656 C 340.660156 103.28125 340.832031 103.070312 340.984375 102.84375 C 341.136719 102.617188 341.265625 102.378906 341.371094 102.128906 C 341.472656 101.878906 341.554688 101.617188 341.605469 101.351562 C 341.660156 101.085938 341.6875 100.816406 341.6875 100.542969 C 341.6875 100.269531 341.660156 100 341.605469 99.734375 C 341.554688 99.46875 341.472656 99.207031 341.371094 98.957031 C 341.265625 98.707031 341.136719 98.464844 340.984375 98.242188 C 340.832031 98.015625 340.660156 97.804688 340.46875 97.613281 C 340.273438 97.417969 340.0625 97.246094 339.835938 97.097656 C 339.609375 96.945312 339.371094 96.816406 339.117188 96.714844 C 338.867188 96.609375 338.605469 96.53125 338.335938 96.476562 C 338.070312 96.425781 337.800781 96.398438 337.527344 96.398438 Z M 337.527344 96.398438 "/>
<path style=" stroke:none;fill-rule:nonzero;fill:rgb(100%,100%,100%);fill-opacity:1;" d="M 312.5625 237.308594 C 312.015625 237.308594 311.476562 237.359375 310.941406 237.464844 C 310.40625 237.574219 309.882812 237.730469 309.378906 237.9375 C 308.875 238.144531 308.394531 238.402344 307.941406 238.703125 C 307.488281 239.007812 307.066406 239.351562 306.679688 239.734375 C 306.292969 240.121094 305.949219 240.539062 305.644531 240.992188 C 305.339844 241.445312 305.085938 241.921875 304.875 242.425781 C 304.667969 242.925781 304.507812 243.445312 304.402344 243.980469 C 304.296875 244.511719 304.242188 245.050781 304.242188 245.597656 C 304.242188 246.140625 304.296875 246.679688 304.402344 247.214844 C 304.507812 247.746094 304.667969 248.265625 304.875 248.769531 C 305.085938 249.269531 305.339844 249.75 305.644531 250.199219 C 305.949219 250.652344 306.292969 251.070312 306.679688 251.457031 C 307.066406 251.84375 307.488281 252.183594 307.941406 252.488281 C 308.394531 252.789062 308.875 253.046875 309.378906 253.253906 C 309.882812 253.460938 310.40625 253.621094 310.941406 253.726562 C 311.476562 253.832031 312.015625 253.882812 312.5625 253.882812 C 313.109375 253.882812 313.652344 253.832031 314.1875 253.726562 C 314.722656 253.621094 315.242188 253.460938 315.746094 253.253906 C 316.253906 253.046875 316.730469 252.789062 317.1875 252.488281 C 317.640625 252.183594 318.0625 251.84375 318.445312 251.457031 C 318.832031 251.070312 319.179688 250.652344 319.480469 250.199219 C 319.785156 249.75 320.042969 249.269531 320.25 248.769531 C 320.460938 248.265625 320.617188 247.746094 320.722656 247.214844 C 320.832031 246.679688 320.882812 246.140625 320.882812 245.597656 C 320.882812 245.050781 320.832031 244.511719 320.722656 243.980469 C 320.617188 243.445312 320.460938 242.925781 320.25 242.425781 C 320.042969 241.921875 319.785156 241.445312 319.480469 240.992188 C 319.179688 240.539062 318.832031 240.121094 318.445312 239.734375 C 318.0625 239.351562 317.640625 239.007812 317.1875 238.703125 C 316.730469 238.402344 316.253906 238.144531 315.746094 237.9375 C 315.242188 237.730469 314.722656 237.574219 314.1875 237.464844 C 313.652344 237.359375 313.109375 237.308594 312.5625 237.308594 Z M 312.5625 237.308594 "/>
<path style=" stroke:none;fill-rule:nonzero;fill:rgb(28.239441%,74.508667%,84.709167%);fill-opacity:1;" d="M 99.136719 93.488281 C 99.136719 85.269531 105.984375 78.578125 114.398438 78.578125 L 221.382812 78.578125 C 224.171875 78.578125 226.445312 80.839844 226.445312 83.621094 L 226.445312 199.171875 L 117.636719 198.835938 L 99.140625 209.484375 L 99.140625 93.488281 Z M 99.136719 93.488281 "/>
<path style=" stroke:none;fill-rule:nonzero;fill:rgb(27.839661%,16.859436%,16.079712%);fill-opacity:1;" d="M 221.382812 81.480469 C 222.566406 81.480469 223.53125 82.441406 223.53125 83.621094 L 223.53125 196.261719 L 118.433594 195.933594 L 116.859375 195.929688 L 115.5 196.714844 L 102.050781 204.453125 L 102.050781 93.488281 C 102.050781 86.867188 107.589844 81.480469 114.398438 81.480469 L 221.382812 81.480469 M 221.382812 75.675781 L 114.398438 75.675781 C 104.363281 75.675781 96.226562 83.648438 96.226562 93.488281 L 96.226562 214.511719 L 118.410156 201.734375 L 229.355469 202.078125 L 229.355469 83.621094 C 229.355469 79.230469 225.785156 75.675781 221.382812 75.675781 Z M 221.382812 75.675781 "/>
<path style=" stroke:none;fill-rule:nonzero;fill:rgb(53.329468%,80.389404%,84.309387%);fill-opacity:1;" d="M 102.203125 209.332031 L 116.507812 209.332031 L 116.507812 81.375 L 114.425781 81.375 C 107.679688 81.375 102.203125 86.824219 102.203125 93.550781 Z M 102.203125 209.332031 "/>
<path style=" stroke:none;fill-rule:nonzero;fill:rgb(99.21875%,85.879517%,73.728943%);fill-opacity:1;" d="M 112.867188 226.117188 C 105.296875 226.117188 99.136719 219.984375 99.136719 212.441406 C 99.136719 204.898438 105.292969 198.765625 112.867188 198.765625 L 224.242188 198.765625 C 219.722656 207.691406 219.753906 216.855469 224.339844 226.117188 Z M 112.867188 226.117188 "/>
<path style=" stroke:none;fill-rule:nonzero;fill:rgb(27.839661%,16.859436%,16.079712%);fill-opacity:1;" d="M 219.855469 201.664062 C 217.359375 208.722656 217.394531 215.988281 219.964844 223.214844 L 112.867188 223.214844 C 106.898438 223.214844 102.050781 218.378906 102.050781 212.441406 C 102.050781 206.503906 106.898438 201.664062 112.867188 201.664062 L 219.855469 201.664062 M 229.355469 195.863281 L 112.867188 195.863281 C 103.675781 195.863281 96.226562 203.285156 96.226562 212.441406 C 96.226562 221.597656 103.675781 229.019531 112.867188 229.019531 L 229.355469 229.019531 C 222.230469 218.082031 221.683594 207.027344 229.355469 195.863281 Z M 229.355469 195.863281 "/>
<path style=" stroke:none;fill-rule:nonzero;fill:rgb(27.839661%,16.859436%,16.079712%);fill-opacity:1;" d="M 114.945312 108.832031 C 113.796875 108.832031 112.867188 107.902344 112.867188 106.757812 L 112.867188 94.328125 C 112.867188 93.183594 113.796875 92.253906 114.945312 92.253906 C 116.09375 92.253906 117.027344 93.183594 117.027344 94.328125 L 117.027344 106.757812 C 117.027344 107.902344 116.09375 108.832031 114.945312 108.832031 Z M 114.945312 108.832031 "/>
<path style=" stroke:none;fill-rule:nonzero;fill:rgb(27.839661%,16.859436%,16.079712%);fill-opacity:1;" d="M 114.945312 191.71875 C 113.796875 191.71875 112.867188 190.789062 112.867188 189.648438 L 112.867188 115.046875 C 112.867188 113.902344 113.796875 112.976562 114.945312 112.976562 C 116.09375 112.976562 117.027344 113.902344 117.027344 115.046875 L 117.027344 189.648438 C 117.027344 190.789062 116.09375 191.71875 114.945312 191.71875 Z M 114.945312 191.71875 "/>
<path style=" stroke:none;fill-rule:nonzero;fill:rgb(91.758728%,31.759644%,40.388489%);fill-opacity:1;" d="M 157.382812 134.933594 C 157.382812 126.714844 164.230469 120.019531 172.640625 120.019531 L 280.160156 120.019531 C 282.660156 120.019531 284.6875 122.042969 284.6875 124.535156 L 284.6875 236.089844 C 284.6875 238.574219 282.660156 240.597656 280.164062 240.597656 L 175.882812 240.277344 L 157.386719 250.929688 L 157.386719 134.933594 Z M 157.382812 134.933594 "/>
<path style=" stroke:none;fill-rule:nonzero;fill:rgb(27.839661%,16.859436%,16.079712%);fill-opacity:1;" d="M 280.160156 122.921875 C 281.046875 122.921875 281.777344 123.648438 281.777344 124.535156 L 281.777344 236.089844 C 281.777344 236.976562 281.054688 237.699219 280.15625 237.699219 L 176.679688 237.378906 L 175.105469 237.375 L 173.746094 238.15625 L 160.292969 245.898438 L 160.292969 134.933594 C 160.292969 128.308594 165.835938 122.921875 172.640625 122.921875 L 280.160156 122.921875 M 280.160156 117.121094 L 172.640625 117.121094 C 162.609375 117.121094 154.46875 125.09375 154.46875 134.933594 L 154.46875 255.957031 L 176.65625 243.179688 L 280.132812 243.503906 C 280.140625 243.503906 280.148438 243.503906 280.160156 243.503906 C 284.265625 243.503906 287.601562 240.183594 287.601562 236.089844 L 287.601562 124.535156 C 287.601562 120.441406 284.269531 117.121094 280.160156 117.121094 Z M 280.160156 117.121094 "/>
<path style=" stroke:none;fill-rule:nonzero;fill:rgb(93.728638%,49.01886%,59.999084%);fill-opacity:1;" d="M 160.449219 250.777344 L 174.75 250.777344 L 174.75 122.820312 L 172.671875 122.820312 C 165.921875 122.820312 160.449219 128.269531 160.449219 134.996094 Z M 160.449219 250.777344 "/>
<path style=" stroke:none;fill-rule:nonzero;fill:rgb(99.21875%,85.879517%,73.728943%);fill-opacity:1;" d="M 171.113281 267.5625 C 163.542969 267.5625 157.382812 261.425781 157.382812 253.882812 C 157.382812 246.34375 163.539062 240.207031 171.113281 240.207031 L 282.492188 240.207031 C 278.375 248.355469 278.039062 256.734375 281.519531 265.191406 C 281.8125 265.910156 281.539062 266.492188 281.347656 266.773438 C 281.191406 267.015625 280.734375 267.558594 279.875 267.558594 L 171.113281 267.558594 Z M 171.113281 267.5625 "/>
<path style=" stroke:none;fill-rule:nonzero;fill:rgb(27.839661%,16.859436%,16.079712%);fill-opacity:1;" d="M 278.070312 243.109375 C 275.542969 250.167969 275.582031 257.382812 278.195312 264.660156 L 171.113281 264.660156 C 165.144531 264.660156 160.292969 259.824219 160.292969 253.882812 C 160.292969 247.945312 165.144531 243.109375 171.113281 243.109375 L 278.070312 243.109375 M 287.601562 237.308594 L 171.113281 237.308594 C 161.921875 237.308594 154.46875 244.730469 154.46875 253.882812 C 154.46875 263.039062 161.921875 270.460938 171.113281 270.460938 L 279.875 270.460938 C 283.175781 270.460938 285.457031 267.132812 284.210938 264.09375 C 280.570312 255.238281 281.414062 246.308594 287.601562 237.308594 Z M 287.601562 237.308594 "/>
<path style=" stroke:none;fill-rule:nonzero;fill:rgb(27.839661%,16.859436%,16.079712%);fill-opacity:1;" d="M 173.191406 150.273438 C 172.042969 150.273438 171.113281 149.347656 171.113281 148.203125 L 171.113281 135.769531 C 171.113281 134.625 172.042969 133.699219 173.191406 133.699219 C 174.339844 133.699219 175.273438 134.625 175.273438 135.769531 L 175.273438 148.203125 C 175.273438 149.347656 174.339844 150.273438 173.191406 150.273438 Z M 173.191406 150.273438 "/>
<path style=" stroke:none;fill-rule:nonzero;fill:rgb(27.839661%,16.859436%,16.079712%);fill-opacity:1;" d="M 173.191406 233.164062 C 172.042969 233.164062 171.113281 232.234375 171.113281 231.089844 L 171.113281 173.070312 C 171.113281 171.925781 172.042969 170.996094 173.191406 170.996094 C 174.339844 170.996094 175.273438 171.925781 175.273438 173.070312 L 175.273438 231.089844 C 175.273438 232.234375 174.339844 233.164062 173.191406 233.164062 Z M 173.191406 233.164062 "/>
<path style=" stroke:none;fill-rule:nonzero;fill:rgb(27.839661%,16.859436%,16.079712%);fill-opacity:1;" d="M 173.191406 165.6875 C 172.042969 165.6875 171.113281 164.761719 171.113281 163.617188 L 171.113281 156.492188 C 171.113281 155.347656 172.042969 154.417969 173.191406 154.417969 C 174.339844 154.417969 175.273438 155.347656 175.273438 156.492188 L 175.273438 163.617188 C 175.273438 164.761719 174.339844 165.6875 173.191406 165.6875 Z M 173.191406 165.6875 "/>
<path style=" stroke:none;fill-rule:nonzero;fill:rgb(27.839661%,16.859436%,16.079712%);fill-opacity:1;" d="M 248.078125 182.394531 L 198.152344 182.394531 C 197.578125 182.394531 197.113281 181.929688 197.113281 181.359375 L 197.113281 152.347656 C 197.113281 151.777344 197.578125 151.3125 198.152344 151.3125 L 201.664062 151.3125 C 202.238281 151.3125 202.707031 151.777344 202.707031 152.347656 C 202.707031 152.917969 202.238281 153.382812 201.664062 153.382812 L 199.195312 153.382812 L 199.195312 180.320312 L 248.078125 180.320312 C 248.652344 180.320312 249.117188 180.785156 249.117188 181.359375 C 249.117188 181.929688 248.652344 182.394531 248.078125 182.394531 Z M 248.078125 182.394531 "/>
<path style=" stroke:none;fill-rule:nonzero;fill:rgb(27.839661%,16.859436%,16.079712%);fill-opacity:1;" d="M 260.558594 182.394531 L 254.710938 182.394531 C 254.136719 182.394531 253.667969 181.929688 253.667969 181.359375 C 253.667969 180.785156 254.136719 180.320312 254.710938 180.320312 L 259.519531 180.320312 L 259.519531 153.382812 L 219.476562 153.382812 C 218.902344 153.382812 218.433594 152.917969 218.433594 152.347656 C 218.433594 151.777344 218.902344 151.3125 219.476562 151.3125 L 260.558594 151.3125 C 261.132812 151.3125 261.597656 151.777344 261.597656 152.347656 L 261.597656 181.359375 C 261.597656 181.929688 261.132812 182.394531 260.558594 182.394531 Z M 260.558594 182.394531 "/>
<path style=" stroke:none;fill-rule:nonzero;fill:rgb(27.839661%,16.859436%,16.079712%);fill-opacity:1;" d="M 214.796875 153.382812 L 206.472656 153.382812 C 205.898438 153.382812 205.433594 152.917969 205.433594 152.347656 C 205.433594 151.777344 205.898438 151.3125 206.472656 151.3125 L 214.796875 151.3125 C 215.371094 151.3125 215.835938 151.777344 215.835938 152.347656 C 215.835938 152.917969 215.371094 153.382812 214.796875 153.382812 Z M 214.796875 153.382812 "/>
</g>
</svg>
