<?xml version="1.0" encoding="UTF-8"?>
<svg xmlns="http://www.w3.org/2000/svg" xmlns:xlink="http://www.w3.org/1999/xlink" width="375pt" height="374.999991pt" viewBox="0 0 375 374.999991" version="1.2">
<defs>
<clipPath id="clip1">
  <path d="M 4.546875 11.21875 L 370.535156 11.21875 L 370.535156 351.71875 L 4.546875 351.71875 Z M 4.546875 11.21875 "/>
</clipPath>
</defs>
<g id="surface1">
<g clip-path="url(#clip1)" clip-rule="nonzero">
<path style=" stroke:none;fill-rule:nonzero;fill:rgb(6.269836%,5.879211%,5.099487%);fill-opacity:1;" d="M 16.746094 274.039062 L 288.300781 274.039062 L 289.488281 274.5 L 290.71875 274.039062 L 358.335938 274.039062 L 358.335938 286.265625 L 16.746094 286.265625 Z M 35.046875 237.367188 L 83.84375 237.367188 L 83.84375 261.816406 L 35.046875 261.816406 Z M 83.84375 23.445312 L 83.84375 200.695312 L 35.046875 200.695312 L 35.046875 23.445312 Z M 144.84375 48.503906 L 144.84375 200.695312 L 96.042969 200.695312 L 96.042969 23.445312 L 144.84375 23.445312 Z M 205.839844 54.003906 L 205.839844 78.453125 L 157.042969 78.453125 L 157.042969 54.003906 Z M 266.039062 48.441406 L 274.558594 71.347656 L 228.835938 88.421875 L 220.3125 65.511719 Z M 292.738281 260.238281 L 284.21875 237.332031 L 329.941406 220.253906 L 338.464844 243.167969 Z M 325.683594 208.800781 L 279.960938 225.878906 L 233.09375 99.878906 L 278.820312 82.800781 Z M 218.039062 231.867188 L 218.039062 94.417969 L 219.324219 97.871094 C 219.324219 97.871094 219.328125 97.871094 219.328125 97.871094 L 270.867188 236.441406 C 270.867188 236.441406 270.867188 236.445312 270.867188 236.445312 L 280.304688 261.816406 L 218.039062 261.816406 Z M 157.042969 237.367188 L 205.839844 237.367188 L 205.839844 261.816406 L 157.042969 261.816406 Z M 96.042969 237.367188 L 144.84375 237.367188 L 144.84375 261.816406 L 96.042969 261.816406 Z M 144.84375 225.144531 L 96.042969 225.144531 L 96.042969 212.917969 L 144.84375 212.917969 Z M 205.839844 225.144531 L 157.042969 225.144531 L 157.042969 90.675781 L 205.839844 90.675781 Z M 35.046875 212.917969 L 83.84375 212.917969 L 83.84375 225.144531 L 35.046875 225.144531 Z M 291.238281 327.199219 L 291.238281 298.488281 L 310.339844 298.488281 Z M 83.84375 327.199219 L 64.746094 298.488281 L 83.84375 298.488281 Z M 11.257812 298.488281 L 50.082031 298.488281 L 83.742188 349.078125 C 85.015625 351.003906 87.109375 352.09375 89.3125 352.09375 C 89.957031 352.09375 90.621094 352 91.269531 351.804688 C 94.125 350.945312 96.042969 348.355469 96.042969 345.367188 L 96.042969 298.488281 L 279.039062 298.488281 L 279.039062 345.367188 C 279.039062 348.355469 280.957031 350.945312 283.8125 351.804688 C 284.464844 352 285.125 352.09375 285.773438 352.09375 C 287.976562 352.09375 290.0625 351.011719 291.332031 349.09375 L 325.003906 298.488281 L 363.824219 298.488281 C 367.527344 298.488281 370.535156 295.472656 370.535156 291.765625 L 370.535156 268.539062 C 370.535156 264.832031 367.527344 261.816406 363.824219 261.816406 L 323.453125 261.816406 L 347.871094 252.699219 L 347.894531 252.691406 C 347.898438 252.691406 347.898438 252.6875 347.902344 252.683594 L 350.589844 251.480469 L 351.425781 249.476562 C 351.5625 249.210938 351.660156 248.945312 351.761719 248.664062 L 352.695312 246.417969 L 339.453125 210.808594 C 339.453125 210.808594 339.449219 210.808594 339.449219 210.808594 L 275.542969 38.988281 L 274.335938 36.289062 L 269.285156 34.179688 L 218.039062 53.3125 L 218.039062 48.503906 C 218.039062 44.796875 215.027344 41.78125 211.332031 41.78125 L 157.042969 41.78125 L 157.042969 17.945312 C 157.042969 14.234375 154.03125 11.21875 150.332031 11.21875 L 90.554688 11.21875 C 90.339844 11.21875 90.15625 11.324219 89.945312 11.34375 C 89.734375 11.324219 89.550781 11.21875 89.332031 11.21875 L 29.558594 11.21875 C 25.855469 11.21875 22.847656 14.234375 22.847656 17.945312 L 22.847656 261.816406 L 11.257812 261.816406 C 7.558594 261.816406 4.546875 264.832031 4.546875 268.539062 L 4.546875 291.765625 C 4.546875 295.472656 7.558594 298.488281 11.257812 298.488281 "/>
</g>
<path style=" stroke:none;fill-rule:nonzero;fill:rgb(6.269836%,5.879211%,5.099487%);fill-opacity:1;" d="M 53.34375 47.890625 L 65.546875 47.890625 C 68.914062 47.890625 71.644531 45.15625 71.644531 41.78125 C 71.644531 38.40625 68.914062 35.667969 65.546875 35.667969 L 53.34375 35.667969 C 49.976562 35.667969 47.246094 38.40625 47.246094 41.78125 C 47.246094 45.15625 49.976562 47.890625 53.34375 47.890625 "/>
<path style=" stroke:none;fill-rule:nonzero;fill:rgb(6.269836%,5.879211%,5.099487%);fill-opacity:1;" d="M 59.445312 60.117188 C 56.078125 60.117188 53.34375 62.855469 53.34375 66.230469 L 53.34375 182.359375 C 53.34375 185.734375 56.078125 188.472656 59.445312 188.472656 C 62.8125 188.472656 65.546875 185.734375 65.546875 182.359375 L 65.546875 66.230469 C 65.546875 62.855469 62.8125 60.117188 59.445312 60.117188 "/>
<path style=" stroke:none;fill-rule:nonzero;fill:rgb(6.269836%,5.879211%,5.099487%);fill-opacity:1;" d="M 114.34375 47.890625 L 126.542969 47.890625 C 129.910156 47.890625 132.644531 45.15625 132.644531 41.78125 C 132.644531 38.40625 129.910156 35.667969 126.542969 35.667969 L 114.34375 35.667969 C 110.976562 35.667969 108.242188 38.40625 108.242188 41.78125 C 108.242188 45.15625 110.976562 47.890625 114.34375 47.890625 "/>
<path style=" stroke:none;fill-rule:nonzero;fill:rgb(6.269836%,5.879211%,5.099487%);fill-opacity:1;" d="M 120.445312 60.117188 C 117.074219 60.117188 114.34375 62.855469 114.34375 66.230469 L 114.34375 182.359375 C 114.34375 185.734375 117.074219 188.472656 120.445312 188.472656 C 123.8125 188.472656 126.542969 185.734375 126.542969 182.359375 L 126.542969 66.230469 C 126.542969 62.855469 123.8125 60.117188 120.445312 60.117188 "/>
<path style=" stroke:none;fill-rule:nonzero;fill:rgb(6.269836%,5.879211%,5.099487%);fill-opacity:1;" d="M 181.441406 212.917969 C 184.808594 212.917969 187.542969 210.183594 187.542969 206.804688 L 187.542969 109.011719 C 187.542969 105.640625 184.808594 102.902344 181.441406 102.902344 C 178.074219 102.902344 175.34375 105.640625 175.34375 109.011719 L 175.34375 206.804688 C 175.34375 210.183594 178.074219 212.917969 181.441406 212.917969 "/>
<path style=" stroke:none;fill-rule:nonzero;fill:rgb(6.269836%,5.879211%,5.099487%);fill-opacity:1;" d="M 256.628906 110.65625 L 290.714844 202.292969 C 291.628906 204.75 293.957031 206.273438 296.429688 206.273438 C 297.140625 206.273438 297.859375 206.148438 298.5625 205.882812 C 301.71875 204.707031 303.324219 201.1875 302.144531 198.023438 L 268.058594 106.386719 C 266.886719 103.222656 263.359375 101.609375 260.214844 102.796875 C 257.058594 103.972656 255.453125 107.492188 256.628906 110.65625 "/>
</g>
</svg>
