<svg xmlns="http://www.w3.org/2000/svg" xmlns:xlink="http://www.w3.org/1999/xlink" width="500" zoomAndPan="magnify" viewBox="0 0 375 374.999991" height="500" preserveAspectRatio="xMidYMid meet" version="1.0"><defs><clipPath id="id1"><path d="M 20 99.332031 L 356 99.332031 L 356 256.082031 L 20 256.082031 Z M 20 99.332031 " clip-rule="nonzero"/></clipPath></defs><g clip-path="url(#id1)"><path fill="#ffffff" d="M 338.914062 231.355469 C 323.078125 225.011719 316.113281 221.773438 317.027344 211.582031 C 317.785156 203.066406 312.265625 162.195312 287.195312 134.738281 C 272.785156 118.957031 254.804688 110.953125 233.757812 110.953125 C 204.03125 110.953125 193.402344 113.492188 184.863281 115.527344 C 179.195312 116.882812 174.714844 117.953125 165.832031 117.953125 C 157.757812 117.953125 153.949219 115.484375 148.679688 112.070312 C 139.992188 106.4375 129.179688 99.433594 96.316406 99.433594 C 78.851562 99.433594 64.789062 102.558594 54.308594 108.730469 C 54.078125 108.460938 53.855469 108.1875 53.582031 107.929688 C 52.796875 107.203125 51.699219 106.59375 50.472656 106.425781 C 49.894531 106.390625 49.347656 106.363281 48.769531 106.4375 C 48.183594 106.558594 47.585938 106.648438 47.054688 106.96875 C 45.925781 107.484375 45.160156 108.386719 44.554688 109.246094 C 44.023438 110.132812 43.625 111.027344 43.351562 111.917969 C 42.796875 113.695312 42.554688 115.4375 42.453125 117.164062 C 42.410156 117.746094 42.398438 118.320312 42.382812 118.894531 C 36.207031 126.585938 34.613281 134.429688 33.957031 137.644531 L 33.878906 138.050781 C 33.476562 140.003906 30.3125 143.0625 27.773438 145.515625 C 23.285156 149.855469 18.640625 154.34375 20.652344 159.476562 C 22.820312 165 32.191406 168.417969 39.636719 168.417969 C 40.492188 168.417969 41.335938 168.371094 42.140625 168.289062 C 45.722656 167.898438 49.199219 166.121094 52.878906 164.238281 C 56.078125 162.597656 59.363281 160.929688 62.742188 160.152344 C 63.015625 160.09375 63.285156 160.039062 63.558594 159.996094 C 63.636719 159.980469 63.710938 159.972656 63.789062 159.957031 C 64.148438 159.886719 64.503906 159.835938 64.863281 159.792969 C 65.386719 159.742188 65.917969 159.703125 66.449219 159.703125 C 66.808594 159.703125 67.164062 159.71875 67.515625 159.742188 C 68.722656 159.835938 69.976562 159.898438 71.265625 159.964844 C 80.886719 160.464844 90.832031 160.980469 97.78125 172.628906 C 104.0625 183.164062 110.96875 194.71875 124.722656 205.039062 C 125.816406 208.457031 126.515625 212.007812 126.816406 215.355469 C 127.691406 225.050781 123.976562 233.070312 122.011719 235.40625 C 120.046875 237.738281 119.175781 238.832031 114.804688 239.777344 C 110.4375 240.730469 103.523438 245.324219 102.574219 248.238281 C 102.574219 248.238281 105.851562 246.121094 108.617188 246.195312 C 108.617188 246.195312 107.890625 247.871094 107.378906 249.769531 C 107.378906 249.769531 110.730469 248.089844 112.695312 247.652344 C 112.695312 247.652344 111.75 249.253906 111.75 250.789062 C 111.75 250.789062 114.585938 247.726562 117.355469 247.578125 C 119.492188 247.46875 124.765625 247.527344 129.167969 247.191406 C 125.878906 249.035156 122.792969 251.609375 122.183594 253.484375 C 122.183594 253.484375 125.457031 251.371094 128.226562 251.445312 C 128.226562 251.445312 127.496094 253.121094 126.988281 255.019531 C 126.988281 255.019531 130.335938 253.335938 132.304688 252.902344 C 132.304688 252.902344 131.355469 254.507812 131.355469 256.039062 C 131.355469 256.039062 134.191406 252.976562 136.960938 252.828125 C 139.726562 252.683594 147.734375 252.828125 152.320312 252.027344 C 156.910156 251.226562 170.667969 240.582031 170.667969 227.3125 C 170.667969 226.132812 170.664062 224.96875 170.664062 223.808594 C 177.332031 224.746094 183.777344 225.097656 190.125 225.445312 C 197.710938 225.859375 205.554688 226.289062 213.527344 227.742188 C 222.21875 229.324219 229.9375 232.394531 238.105469 235.640625 C 241.71875 237.078125 245.367188 238.523438 249.15625 239.875 C 244.78125 240.988281 238.222656 245.398438 237.300781 248.238281 C 237.300781 248.238281 240.578125 246.121094 243.34375 246.195312 C 243.34375 246.195312 242.617188 247.871094 242.105469 249.769531 C 242.105469 249.769531 245.453125 248.089844 247.417969 247.652344 C 247.417969 247.652344 246.472656 249.253906 246.472656 250.789062 C 246.472656 250.789062 249.3125 247.726562 252.078125 247.578125 C 254.21875 247.46875 259.488281 247.527344 263.890625 247.191406 C 260.601562 249.035156 257.519531 251.609375 256.90625 253.484375 C 256.90625 253.484375 260.183594 251.371094 262.949219 251.445312 C 262.949219 251.445312 262.222656 253.121094 261.710938 255.019531 C 261.710938 255.019531 265.0625 253.335938 267.027344 252.902344 C 267.027344 252.902344 266.078125 254.507812 266.078125 256.039062 C 266.078125 256.039062 268.917969 252.976562 271.6875 252.828125 C 274.449219 252.683594 282.460938 252.828125 287.046875 252.027344 C 289.007812 251.6875 292.652344 249.535156 296.179688 246.148438 C 296.90625 246.175781 297.488281 246.269531 298.015625 246.457031 C 298.441406 246.609375 299.007812 246.835938 299.710938 247.125 C 304.378906 249.003906 314.085938 252.917969 326.042969 252.917969 C 326.78125 252.917969 327.519531 252.90625 328.246094 252.875 C 330.242188 252.792969 332.195312 252.753906 334.222656 252.753906 C 337.652344 252.753906 340.605469 252.871094 342.976562 252.96875 C 344.714844 253.039062 346.214844 253.09375 347.496094 253.09375 C 349.792969 253.09375 352.382812 252.957031 354.0625 251.269531 C 355.542969 249.792969 356.136719 247.523438 355.660156 245.203125 C 354.9375 241.65625 351.441406 236.371094 338.914062 231.355469 " fill-opacity="1" fill-rule="nonzero"/></g></svg>