<svg xmlns="http://www.w3.org/2000/svg" xmlns:xlink="http://www.w3.org/1999/xlink" width="500" zoomAndPan="magnify" viewBox="0 0 375 374.999991" height="500" preserveAspectRatio="xMidYMid meet" version="1.0"><defs><g/><clipPath id="id1"><path d="M 8.070312 37.515625 L 366.566406 37.515625 L 366.566406 241.488281 L 8.070312 241.488281 Z M 8.070312 37.515625 " clip-rule="nonzero"/></clipPath></defs><rect x="-37.5" width="450" fill="#ffffff" y="-37.499999" height="449.999989" fill-opacity="1"/><rect x="-37.5" width="450" fill="#42235e" y="-37.499999" height="449.999989" fill-opacity="1"/><rect x="-37.5" width="450" fill="#ffffff" y="-37.499999" height="449.999989" fill-opacity="1"/><rect x="-37.5" width="450" fill="#42235e" y="-37.499999" height="449.999989" fill-opacity="1"/><path fill="#f1effa" d="M 52.707031 63.085938 C 56.609375 61.890625 57.257812 57.433594 61.921875 57.003906 C 63.566406 61.808594 60.921875 66.378906 59.449219 70.515625 C 58 74.582031 56.589844 78.996094 54.28125 82 C 53.15625 83.464844 51.253906 84.191406 50.910156 86.054688 C 53.839844 85.613281 54.992188 83.390625 58.550781 83.578125 C 61.007812 89.078125 57.226562 94.25 54.953125 98.894531 C 53.203125 102.464844 51.1875 105.835938 49.335938 108.574219 C 47.027344 108.761719 45.300781 109.046875 43.941406 108.125 C 42.339844 107.042969 42.792969 104.902344 41.46875 103.621094 C 39.296875 104.050781 39.410156 105.859375 37.871094 106.550781 C 31.929688 109.207031 28.746094 102.890625 26.859375 99.117188 C 24.4375 100.597656 23.839844 103.902344 21.464844 105.425781 C 14.742188 105.925781 15.65625 98.78125 15.171875 93.039062 C 16.003906 92.421875 16.003906 94.199219 17.191406 93.9375 C 19.042969 92.984375 17.828125 88.019531 17.640625 85.832031 C 17.148438 79.980469 18.019531 66.96875 22.136719 67.136719 C 24.121094 67.21875 24.429688 70.125 24.835938 72.316406 C 26.289062 61.949219 31.074219 50.824219 37.648438 44.617188 C 41.273438 41.191406 46.34375 38.183594 50.910156 43.042969 C 54.4375 46.796875 53.949219 55.109375 53.605469 61.058594 C 53.464844 61.894531 52.972656 62.375 52.707031 63.085938 " fill-opacity="1" fill-rule="evenodd"/><path fill="#9a5fc5" d="M 297.703125 124.566406 C 294.746094 124.875 293.566406 121.726562 293.65625 118.484375 C 290.105469 119.730469 292.351562 124.519531 294.105469 125.691406 C 300.765625 130.148438 304.683594 120.097656 299.726562 116.460938 C 299.5 116.460938 299.277344 116.460938 299.050781 116.460938 C 299.113281 119.664062 301.507812 124.171875 297.703125 124.566406 Z M 289.160156 86.957031 C 289.269531 91.738281 287.636719 96.679688 287.140625 101.597656 C 284.761719 101.148438 282.128906 98.980469 279.945312 99.792969 C 281.339844 102.800781 284.855469 102.664062 287.363281 103.847656 C 289.132812 104.683594 291.042969 106.21875 292.757812 107.449219 C 294.550781 108.742188 296.59375 109.8125 298.152344 111.054688 C 300.730469 113.113281 302.933594 116.070312 305.34375 118.484375 C 307.824219 120.96875 309.753906 123.859375 311.863281 126.367188 C 310.476562 129.96875 310.023438 134.632812 306.019531 135.152344 C 301.351562 135.757812 297.453125 131.457031 294.554688 128.847656 C 285.371094 120.5625 276.910156 109.730469 271.855469 98.667969 C 272.523438 97.890625 273.535156 99.558594 274.777344 99.34375 C 276.726562 99.003906 279.789062 92.5625 281.292969 91.011719 C 283.351562 88.890625 285.988281 87.085938 289.160156 86.957031 " fill-opacity="1" fill-rule="evenodd"/><path fill="#000000" d="M 230.949219 112.628906 C 232.417969 111.40625 235.199219 108.515625 232.296875 106.773438 C 231.777344 108.507812 230.746094 110.925781 230.949219 112.628906 Z M 229.148438 114.207031 C 229.066406 111.019531 229.933594 104.25 232.96875 104.972656 C 234.339844 105.300781 235.738281 107.722656 235.441406 109.703125 C 235.203125 111.308594 231.46875 115.367188 229.148438 114.207031 " fill-opacity="1" fill-rule="evenodd"/><path fill="#ba3768" d="M 232.296875 106.773438 C 235.199219 108.515625 232.417969 111.40625 230.945312 112.628906 C 230.746094 110.925781 231.777344 108.507812 232.296875 106.773438 " fill-opacity="1" fill-rule="evenodd"/><path fill="#000000" d="M 299.050781 116.460938 C 299.277344 116.460938 299.5 116.460938 299.722656 116.460938 C 304.683594 120.097656 300.765625 130.148438 294.105469 125.691406 C 292.347656 124.519531 290.105469 119.730469 293.65625 118.488281 C 293.5625 121.726562 294.746094 124.875 297.703125 124.566406 C 301.503906 124.171875 299.113281 119.664062 299.050781 116.460938 " fill-opacity="1" fill-rule="evenodd"/><path fill="#000000" d="M 263.3125 122.089844 C 266.960938 125.917969 266.636719 136.175781 260.839844 137.179688 C 256.253906 137.96875 254.046875 133.398438 253.648438 128.847656 C 253.527344 127.445312 253.257812 125.539062 254.773438 125.015625 C 256.050781 125.460938 255.3125 127.195312 255.445312 128.171875 C 255.78125 130.601562 256.75 134.863281 259.269531 135.152344 C 264.734375 135.773438 263.96875 127.488281 263.3125 122.089844 " fill-opacity="1" fill-rule="evenodd"/><path fill="#9a5fc5" d="M 345.351562 137.402344 C 354.238281 136.453125 365.109375 133.742188 363.785156 145.0625 C 363.265625 149.503906 359.957031 152.019531 356.816406 154.96875 C 354.957031 156.71875 352.183594 158.914062 350.300781 159.023438 C 348.160156 159.148438 344.957031 157.199219 343.78125 155.871094 C 339.441406 150.980469 340.71875 140.839844 345.351562 137.402344 " fill-opacity="1" fill-rule="evenodd"/><path fill="#000000" d="M 226.226562 164.203125 C 228.699219 164.578125 230.371094 165.753906 231.621094 167.355469 C 229.367188 167.640625 227.371094 165.777344 226.226562 164.203125 " fill-opacity="1" fill-rule="evenodd"/><path fill="#f1effa" d="M 97.210938 215.777344 C 101.394531 216.6875 105.492188 217.683594 109.796875 218.476562 C 110.402344 220.351562 110.746094 222.484375 111.144531 224.558594 C 113.160156 226.445312 117.417969 226.082031 116.765625 230.640625 C 111.546875 232.320312 105.664062 232.097656 99.90625 231.089844 C 98.296875 226.699219 98.023438 220.96875 97.210938 215.777344 " fill-opacity="1" fill-rule="evenodd"/><path fill="#f1effa" d="M 185.769531 218.027344 C 186.808594 219.394531 188.660156 221.777344 190.261719 224.109375 C 191.769531 226.304688 193.871094 228.585938 194.308594 230.1875 C 195.277344 233.722656 184.496094 235.800781 180.148438 233.566406 C 178.816406 231.859375 175.074219 229.609375 177.226562 226.585938 C 178.40625 226.90625 179.203125 227.609375 179.921875 228.386719 C 183.132812 226.199219 184.324219 221.984375 185.769531 218.027344 " fill-opacity="1" fill-rule="evenodd"/><path fill="#9a5fc5" d="M 259.265625 135.152344 C 256.75 134.863281 255.78125 130.601562 255.445312 128.171875 C 255.3125 127.195312 256.050781 125.460938 254.773438 125.015625 C 253.257812 125.539062 253.527344 127.445312 253.648438 128.847656 C 254.046875 133.398438 256.253906 137.96875 260.839844 137.179688 C 266.636719 136.175781 266.960938 125.917969 263.3125 122.089844 C 263.96875 127.488281 264.734375 135.773438 259.265625 135.152344 Z M 235.441406 109.703125 C 235.738281 107.722656 234.34375 105.300781 232.96875 104.972656 C 229.929688 104.25 229.066406 111.019531 229.148438 114.207031 C 231.46875 115.367188 235.203125 111.308594 235.441406 109.703125 Z M 244.210938 99.792969 C 244.480469 100.40625 242.933594 103.167969 244.210938 104.074219 C 246.375 103.660156 248.277344 101.988281 250.5 100.921875 C 252.765625 99.832031 255.113281 98.890625 257.695312 98.21875 C 260.722656 107.761719 267.738281 115.492188 275.226562 122.316406 C 279.582031 126.285156 284.765625 130.367188 289.835938 134.699219 C 291.429688 136.066406 293.921875 137.847656 293.882812 139.429688 C 293.765625 143.886719 280.3125 144.800781 275.226562 145.0625 C 259.09375 145.890625 242.777344 143.726562 229.824219 139.429688 C 228.289062 138.921875 226.234375 138.167969 224.652344 137.402344 C 223.152344 136.679688 221.300781 135.003906 220.160156 134.925781 C 218.199219 134.792969 214.367188 137.074219 212.066406 137.855469 C 202.386719 141.136719 190.132812 138.535156 181.273438 135.828125 C 176.199219 134.277344 171.203125 132.507812 166.4375 130.648438 C 154.054688 125.8125 141.726562 121.304688 123.957031 122.089844 C 88.617188 123.652344 68.527344 142.097656 52.929688 163.753906 C 47.699219 171.019531 42.394531 178.285156 41.019531 189.425781 C 39.976562 186.941406 40.042969 183.34375 39.667969 180.195312 C 28.910156 175.464844 16.105469 167.566406 14.496094 152.71875 C 14.8125 151.699219 14.875 154.496094 16.070312 154.070312 C 16.484375 151.140625 15.25 148.042969 14.496094 144.835938 C 13.359375 140.015625 12.074219 135.039062 13.148438 129.296875 C 13.949219 130.371094 14.015625 132.179688 15.394531 132.675781 C 13.332031 124.628906 8.574219 112.273438 12.023438 101.597656 C 14.945312 103.007812 16.96875 108.332031 21.6875 107 C 24.1875 106.296875 24.570312 103.609375 26.632812 102.046875 C 27.695312 107.660156 36.132812 111.054688 40.792969 106.550781 C 41.761719 109.335938 43.917969 110.929688 47.761719 110.828125 C 47.222656 112.566406 44.933594 113.667969 45.511719 115.785156 C 46.332031 116.921875 47.894531 115.464844 49.335938 115.785156 C 45.921875 124.683594 35.519531 129.757812 34.5 141.457031 C 33.609375 151.707031 36.46875 158.820312 41.691406 163.976562 C 43.605469 162.3125 43.957031 159.75 45.0625 157.671875 C 48.34375 151.515625 51.433594 144.894531 55.402344 138.980469 C 70.824219 116.003906 93.757812 99.699219 132.050781 99.570312 C 145.386719 99.523438 155.894531 102.460938 165.988281 106.324219 C 170.949219 108.222656 175.359375 110.359375 179.476562 113.304688 C 185.5 117.617188 191.292969 119.851562 200.828125 120.289062 C 209.496094 120.683594 219.808594 120.585938 225.328125 116.234375 C 225.636719 114.722656 223.804688 115.355469 223.082031 114.882812 C 222.683594 113.855469 221.996094 113.117188 221.957031 111.730469 C 222.585938 110.796875 223.214844 113.570312 224.878906 113.082031 C 226.054688 111.792969 225.558594 109.769531 225.777344 108.125 C 226.640625 101.6875 228.097656 94.625 232.519531 91.910156 C 235.019531 93.71875 235.402344 97.445312 236.34375 100.695312 C 237.289062 103.976562 238.023438 107.546875 239.265625 110.378906 C 240.726562 109.472656 239.675781 107.976562 239.9375 106.773438 C 240.53125 104.046875 243.328125 102.285156 244.210938 99.792969 " fill-opacity="1" fill-rule="evenodd"/><g clip-path="url(#id1)"><path fill="#000000" d="M 179.925781 228.386719 C 179.203125 227.609375 178.40625 226.90625 177.226562 226.585938 C 175.078125 229.609375 178.816406 231.859375 180.148438 233.566406 C 184.496094 235.800781 195.277344 233.722656 194.308594 230.1875 C 193.871094 228.585938 191.769531 226.304688 190.265625 224.109375 C 188.660156 221.777344 186.808594 219.394531 185.769531 218.027344 C 184.324219 221.984375 183.132812 226.195312 179.925781 228.386719 Z M 99.90625 231.089844 C 105.664062 232.097656 111.546875 232.320312 116.765625 230.640625 C 117.417969 226.082031 113.160156 226.445312 111.144531 224.558594 C 110.746094 222.484375 110.402344 220.351562 109.796875 218.476562 C 105.492188 217.683594 101.394531 216.6875 97.210938 215.777344 C 98.023438 220.96875 98.296875 226.699219 99.90625 231.089844 Z M 343.78125 155.871094 C 344.957031 157.199219 348.160156 159.148438 350.296875 159.023438 C 352.183594 158.914062 354.957031 156.71875 356.816406 154.96875 C 359.957031 152.019531 363.261719 149.503906 363.785156 145.0625 C 365.109375 133.742188 354.238281 136.453125 345.351562 137.402344 C 340.71875 140.839844 339.445312 150.980469 343.78125 155.871094 Z M 259.265625 97.992188 C 263.519531 109.152344 271.371094 116.59375 279.496094 123.667969 C 281.789062 125.664062 284.113281 127.8125 286.464844 129.746094 C 288.925781 131.769531 291.839844 133.445312 293.882812 135.601562 C 300.601562 142.695312 288.1875 145.742188 281.292969 146.410156 C 257.660156 148.71875 233.542969 144.835938 219.707031 136.503906 C 210.1875 143.746094 193.753906 141.78125 182.171875 138.078125 C 176.871094 136.386719 171.480469 134.953125 166.664062 133.125 C 156.699219 129.339844 146.367188 124.773438 134.523438 124.117188 C 127.96875 123.753906 120.179688 124.160156 114.292969 125.015625 C 84.921875 129.285156 66.515625 147.695312 52.03125 167.804688 C 49.847656 170.839844 47.433594 174.832031 45.738281 179.066406 C 44.214844 182.875 41.714844 188.628906 41.917969 192.804688 C 42.027344 195.070312 43.464844 197.90625 44.390625 200.011719 C 46.601562 205.050781 47.765625 209.476562 51.132812 213.074219 C 52.691406 214.738281 55.257812 215.972656 55.851562 218.253906 C 56.722656 221.59375 56.207031 224.566406 57.425781 227.035156 C 58.128906 228.460938 59.414062 228.960938 60.125 230.640625 C 60.296875 231.625 59.515625 232.394531 60.125 233.117188 C 61.808594 234.035156 63.882812 236.429688 66.417969 237.171875 C 70.417969 238.339844 75.378906 237.050781 79.230469 236.496094 C 77.851562 231.269531 73.117188 229.40625 67.988281 227.9375 C 69.386719 226.578125 72.265625 227.113281 74.058594 227.710938 C 78.101562 225.574219 78.917969 218.414062 82.824219 216.453125 C 86.988281 214.359375 90.402344 214.09375 93.164062 210.820312 C 95.054688 208.582031 96.289062 206.085938 98.109375 203.839844 C 98.929688 202.824219 99.757812 201.632812 100.582031 200.460938 C 101.222656 199.550781 101.898438 197.757812 103.503906 197.757812 C 102.164062 203.625 96.964844 207.570312 94.289062 212.847656 C 119.664062 222.410156 157.835938 218.726562 181.722656 211.273438 C 180.570312 208.816406 179.898438 203.070312 181.273438 200.238281 C 182.664062 203.335938 181.835938 206.765625 182.847656 209.695312 C 183.710938 212.203125 185.710938 214.660156 187.339844 216.902344 C 189.0625 219.265625 190.507812 221.882812 192.0625 224.109375 C 195.371094 228.855469 199.574219 232.78125 202.175781 237.847656 C 207.417969 238.339844 215.484375 240.144531 219.707031 237.171875 C 219.964844 231.429688 213.417969 231.402344 208.917969 232.890625 C 209.925781 230.820312 212.300781 230.125 214.988281 229.738281 C 210.355469 220.269531 208.363281 208.152344 207.121094 195.28125 C 209.992188 198.1875 209.496094 204.460938 210.941406 208.792969 C 212.261719 199.683594 216.988281 191.242188 221.730469 185.148438 C 226.617188 178.871094 231.441406 172.433594 237.914062 168.257812 C 234.285156 166.863281 230.917969 165.210938 229.371094 161.726562 C 235.40625 165.488281 242.351562 167.851562 249.828125 169.832031 C 279.457031 177.691406 315.777344 170.144531 340.859375 162.628906 C 342.257812 161.027344 345.707031 161.476562 347.375 160.148438 C 339.078125 158.613281 337.730469 145.300781 341.757812 139.203125 C 342.164062 138.59375 343.203125 138.171875 342.882812 137.402344 C 329.582031 137.664062 321.402344 132.800781 313.4375 127.71875 C 312.242188 132.089844 310.496094 136.546875 306.242188 136.953125 C 299.722656 137.574219 295.246094 131.789062 291.859375 128.394531 C 286.554688 123.078125 281.027344 117.085938 276.800781 110.828125 C 273.78125 106.363281 271.199219 102.320312 270.28125 97.542969 C 266.585938 97.667969 262.292969 97.195312 259.265625 97.992188 Z M 239.9375 106.773438 C 239.675781 107.976562 240.726562 109.472656 239.265625 110.378906 C 238.023438 107.546875 237.289062 103.976562 236.339844 100.695312 C 235.402344 97.445312 235.019531 93.71875 232.519531 91.910156 C 228.097656 94.625 226.640625 101.6875 225.777344 108.125 C 225.554688 109.769531 226.054688 111.792969 224.878906 113.082031 C 223.214844 113.570312 222.585938 110.796875 221.957031 111.730469 C 221.996094 113.117188 222.683594 113.855469 223.082031 114.882812 C 223.804688 115.355469 225.636719 114.722656 225.328125 116.234375 C 219.808594 120.585938 209.496094 120.683594 200.828125 120.289062 C 191.292969 119.851562 185.5 117.617188 179.476562 113.304688 C 175.359375 110.359375 170.949219 108.222656 165.988281 106.324219 C 155.894531 102.460938 145.386719 99.523438 132.050781 99.570312 C 93.757812 99.699219 70.824219 116.003906 55.402344 138.980469 C 51.433594 144.894531 48.34375 151.515625 45.0625 157.671875 C 43.957031 159.75 43.605469 162.3125 41.691406 163.976562 C 36.46875 158.820312 33.609375 151.707031 34.5 141.457031 C 35.519531 129.757812 45.921875 124.683594 49.335938 115.785156 C 47.894531 115.464844 46.332031 116.921875 45.511719 115.785156 C 44.933594 113.667969 47.222656 112.566406 47.761719 110.828125 C 43.917969 110.929688 41.761719 109.335938 40.792969 106.550781 C 36.132812 111.054688 27.695312 107.660156 26.632812 102.046875 C 24.570312 103.609375 24.1875 106.296875 21.6875 107 C 16.96875 108.332031 14.945312 103.007812 12.023438 101.597656 C 8.574219 112.273438 13.332031 124.628906 15.394531 132.675781 C 14.015625 132.179688 13.949219 130.371094 13.148438 129.296875 C 12.074219 135.039062 13.359375 140.015625 14.496094 144.835938 C 15.25 148.042969 16.484375 151.144531 16.070312 154.070312 C 14.875 154.496094 14.8125 151.699219 14.496094 152.71875 C 16.105469 167.566406 28.910156 175.464844 39.671875 180.195312 C 40.042969 183.34375 39.976562 186.941406 41.019531 189.425781 C 42.394531 178.285156 47.699219 171.019531 52.929688 163.753906 C 68.527344 142.097656 88.617188 123.652344 123.957031 122.089844 C 141.726562 121.304688 154.054688 125.8125 166.4375 130.648438 C 171.203125 132.507812 176.199219 134.277344 181.273438 135.828125 C 190.132812 138.535156 202.386719 141.140625 212.066406 137.855469 C 214.367188 137.074219 218.199219 134.792969 220.15625 134.925781 C 221.300781 135.003906 223.152344 136.679688 224.652344 137.402344 C 226.234375 138.167969 228.292969 138.921875 229.824219 139.429688 C 242.777344 143.726562 259.09375 145.890625 275.226562 145.0625 C 280.3125 144.800781 293.765625 143.886719 293.882812 139.429688 C 293.921875 137.847656 291.429688 136.066406 289.835938 134.703125 C 284.765625 130.367188 279.582031 126.285156 275.226562 122.316406 C 267.738281 115.492188 260.722656 107.761719 257.695312 98.21875 C 255.113281 98.890625 252.761719 99.832031 250.503906 100.921875 C 248.273438 101.988281 246.375 103.660156 244.207031 104.074219 C 242.933594 103.167969 244.480469 100.40625 244.207031 99.792969 C 243.324219 102.285156 240.53125 104.046875 239.9375 106.773438 Z M 281.292969 91.011719 C 279.789062 92.5625 276.726562 99.003906 274.777344 99.34375 C 273.535156 99.558594 272.523438 97.890625 271.855469 98.667969 C 276.910156 109.730469 285.371094 120.5625 294.554688 128.847656 C 297.453125 131.457031 301.351562 135.757812 306.019531 135.152344 C 310.023438 134.632812 310.476562 129.96875 311.863281 126.367188 C 309.753906 123.859375 307.824219 120.96875 305.34375 118.484375 C 302.9375 116.070312 300.726562 113.113281 298.152344 111.054688 C 296.59375 109.8125 294.550781 108.742188 292.757812 107.449219 C 291.042969 106.21875 289.132812 104.683594 287.363281 103.847656 C 284.855469 102.664062 281.339844 102.800781 279.945312 99.792969 C 282.132812 98.980469 284.761719 101.148438 287.140625 101.597656 C 287.636719 96.679688 289.269531 91.738281 289.160156 86.957031 C 285.984375 87.085938 283.351562 88.890625 281.292969 91.011719 Z M 53.605469 61.058594 C 53.949219 55.109375 54.4375 46.796875 50.90625 43.042969 C 46.34375 38.183594 41.273438 41.191406 37.648438 44.617188 C 31.074219 50.828125 26.289062 61.949219 24.835938 72.320312 C 24.429688 70.125 24.121094 67.21875 22.136719 67.136719 C 18.019531 66.96875 17.148438 79.980469 17.640625 85.832031 C 17.828125 88.019531 19.042969 92.988281 17.191406 93.9375 C 16.003906 94.199219 16.003906 92.421875 15.171875 93.039062 C 15.65625 98.78125 14.742188 105.925781 21.464844 105.425781 C 23.839844 103.902344 24.4375 100.597656 26.859375 99.117188 C 28.746094 102.890625 31.929688 109.210938 37.871094 106.550781 C 39.410156 105.859375 39.296875 104.054688 41.46875 103.621094 C 42.792969 104.902344 42.335938 107.042969 43.941406 108.125 C 45.300781 109.042969 47.027344 108.761719 49.335938 108.578125 C 51.1875 105.835938 53.203125 102.46875 54.953125 98.894531 C 57.226562 94.25 61.007812 89.082031 58.550781 83.578125 C 54.992188 83.390625 53.839844 85.613281 50.90625 86.054688 C 51.25 84.195312 53.15625 83.464844 54.277344 82.003906 C 56.589844 78.996094 58 74.582031 59.449219 70.515625 C 60.921875 66.382812 63.566406 61.808594 61.921875 57.003906 C 57.257812 57.433594 56.609375 61.890625 52.707031 63.085938 C 52.972656 62.375 53.464844 61.894531 53.605469 61.058594 Z M 56.078125 56.777344 C 57.640625 55.957031 60.9375 52.785156 63.71875 54.976562 C 66.734375 57.351562 64.328125 65.628906 63.046875 68.941406 C 61.117188 73.921875 59.617188 77.828125 57.652344 80.652344 C 61.417969 81.0625 62.664062 83.847656 62.148438 88.535156 C 61.65625 92.972656 58.671875 97.085938 56.527344 101.597656 C 54.289062 106.300781 51.144531 110.285156 49.335938 113.082031 C 56.558594 114.796875 47.171875 124.328125 45.0625 126.820312 C 41.648438 130.851562 37.761719 135.816406 37.195312 141.910156 C 36.578125 148.582031 37.839844 154.5625 41.019531 159.472656 C 47.265625 145.785156 54.453125 134.738281 63.496094 124.792969 C 76.738281 110.222656 95.4375 98.855469 121.710938 97.316406 C 130.429688 96.804688 140.132812 96.519531 148.457031 98.21875 C 156.324219 99.824219 163.800781 102.25 170.257812 104.972656 C 176.734375 107.707031 181.980469 111.988281 188.242188 115.558594 C 191.160156 117.226562 199.242188 117.585938 203.523438 117.585938 C 209.898438 117.585938 215.445312 117.136719 220.832031 115.785156 C 219.921875 114.34375 218.355469 107.613281 223.082031 109.253906 C 224.089844 103.308594 224.925781 95.929688 228.023438 91.910156 C 229.113281 90.5 231.175781 89.0625 232.96875 89.210938 C 237.972656 89.613281 237.582031 97.882812 239.488281 102.046875 C 240.765625 100.070312 247.082031 91.101562 246.90625 99.792969 C 252.597656 95.929688 266.28125 92.234375 274.328125 96.191406 C 277.15625 92.257812 280.554688 86.636719 285.339844 84.707031 C 296.269531 80.296875 290.195312 96.242188 289.835938 101.820312 C 298.621094 107.957031 307.214844 114.285156 312.761719 123.667969 C 320.40625 130.101562 331.132812 135.617188 346.253906 134.703125 C 351.035156 134.410156 359.261719 132.195312 363.109375 135.152344 C 367.226562 138.316406 367.65625 146.222656 364.460938 151.140625 C 361.246094 156.085938 354.761719 160.558594 348.726562 162.851562 C 342.347656 165.273438 334.875 167.199219 327.597656 168.933594 C 308.59375 173.464844 282.34375 178.902344 259.042969 174.5625 C 256.132812 174.019531 252.789062 173.605469 249.601562 172.761719 C 246.246094 171.871094 242.558594 169.609375 239.488281 170.285156 C 236.574219 170.921875 233.28125 175.199219 230.949219 177.714844 C 225.640625 183.441406 221.539062 189.96875 217.910156 196.632812 C 216.953125 198.394531 215.933594 199.984375 215.214844 201.8125 C 214.109375 204.613281 214.050781 208.425781 211.390625 209.921875 C 212.625 216.714844 214.863281 222.507812 216.113281 229.289062 C 220.152344 229.574219 224.5625 236.027344 221.507812 239.421875 C 219.382812 241.78125 213.90625 241.691406 209.371094 241.226562 C 206.019531 240.878906 202.503906 241.246094 200.828125 239.648438 C 200.0625 238.917969 200.210938 238.035156 199.703125 237.171875 C 198.84375 235.699219 197.378906 234.632812 196.332031 233.34375 C 194.542969 233.800781 193.945312 235.441406 192.0625 236.269531 C 188.757812 237.722656 182.492188 237.863281 179.027344 236.269531 C 176.761719 235.230469 173.050781 230.71875 173.632812 227.261719 C 174.050781 224.757812 177.652344 222.453125 179.925781 225.007812 C 180.828125 221.140625 185.171875 217.046875 182.398438 213.523438 C 163.054688 218.847656 138.429688 223.304688 113.167969 219.832031 C 112.746094 220.492188 113.488281 221.902344 113.617188 222.757812 C 117 224.273438 121.351562 227.882812 119.011719 231.992188 C 117.683594 234.328125 111.203125 234.976562 106.875 234.695312 C 104.144531 234.515625 99.796875 234.347656 98.109375 232.890625 C 96.300781 231.332031 96.25 226.917969 95.863281 224.335938 C 95.375 221.109375 95.058594 217.941406 94.289062 215.324219 C 92.574219 214.15625 91.476562 216.179688 90.019531 216.902344 C 88.136719 217.832031 85.59375 217.992188 83.949219 219.152344 C 80.695312 221.453125 80.171875 226.746094 76.980469 228.839844 C 78.539062 231.246094 82.796875 233.007812 81.703125 237.394531 C 80.941406 240.429688 69.375 241.195312 65.292969 239.871094 C 63.910156 239.425781 62.480469 237.769531 61.472656 237.171875 C 59.019531 235.710938 56.523438 234.992188 57.425781 231.316406 C 54.683594 228.429688 53.199219 224.292969 53.378906 218.476562 C 47.9375 214.914062 45.492188 209.03125 42.816406 202.9375 C 40.210938 197.007812 37.699219 190.222656 37.421875 182.445312 C 28.652344 178.101562 19.140625 171.433594 14.269531 161.726562 C 12.546875 158.292969 10.234375 152.601562 13.148438 149.339844 C 11.644531 143.039062 8.605469 133.683594 11.574219 127.042969 C 10.257812 124.1875 9.007812 119.613281 8.425781 114.433594 C 7.710938 108.066406 7.570312 99.277344 12.921875 98.667969 C 12.386719 95.144531 11.988281 90.777344 15.171875 89.886719 C 15.179688 83.113281 14.660156 72.410156 17.417969 67.8125 C 18.558594 65.914062 20.976562 63.644531 24.160156 65.113281 C 25.066406 59.964844 27.253906 54.058594 30.453125 49.347656 C 33.402344 45.007812 37.414062 40.183594 41.46875 38.3125 C 43.472656 37.386719 46.019531 37.207031 48.210938 38.085938 C 54.140625 40.46875 57.332031 47.726562 56.078125 56.777344 " fill-opacity="1" fill-rule="evenodd"/></g><path fill="#000000" d="M 222.179688 152.71875 C 225.40625 155.339844 228.257812 158.339844 231.394531 161.050781 C 228.027344 159.46875 224.035156 156.566406 222.179688 152.71875 " fill-opacity="1" fill-rule="evenodd"/><path fill="#f1effa" d="M 231.621094 167.355469 C 230.375 165.753906 228.703125 164.578125 226.226562 164.203125 C 227.371094 165.777344 229.367188 167.640625 231.621094 167.355469 Z M 231.394531 161.050781 C 228.257812 158.335938 225.40625 155.339844 222.179688 152.71875 C 224.035156 156.566406 228.027344 159.46875 231.394531 161.050781 Z M 270.28125 97.542969 C 271.199219 102.320312 273.78125 106.363281 276.800781 110.828125 C 281.027344 117.085938 286.550781 123.078125 291.859375 128.394531 C 295.246094 131.789062 299.722656 137.574219 306.242188 136.953125 C 310.5 136.546875 312.242188 132.089844 313.4375 127.71875 C 321.402344 132.800781 329.585938 137.664062 342.882812 137.402344 C 343.203125 138.171875 342.160156 138.59375 341.757812 139.203125 C 337.730469 145.300781 339.074219 158.613281 347.378906 160.148438 C 345.707031 161.476562 342.257812 161.027344 340.859375 162.628906 C 315.78125 170.144531 279.457031 177.691406 249.828125 169.832031 C 242.351562 167.851562 235.40625 165.488281 229.371094 161.726562 C 230.914062 165.210938 234.285156 166.863281 237.914062 168.257812 C 231.441406 172.433594 226.617188 178.871094 221.730469 185.148438 C 216.988281 191.242188 212.261719 199.683594 210.945312 208.792969 C 209.496094 204.460938 209.992188 198.1875 207.121094 195.28125 C 208.363281 208.152344 210.355469 220.269531 214.988281 229.738281 C 212.300781 230.125 209.925781 230.820312 208.921875 232.890625 C 213.421875 231.402344 219.964844 231.429688 219.707031 237.171875 C 215.484375 240.144531 207.417969 238.339844 202.175781 237.847656 C 199.574219 232.78125 195.371094 228.855469 192.0625 224.109375 C 190.511719 221.882812 189.0625 219.265625 187.339844 216.902344 C 185.714844 214.660156 183.714844 212.203125 182.847656 209.695312 C 181.835938 206.765625 182.664062 203.335938 181.273438 200.238281 C 179.898438 203.070312 180.570312 208.816406 181.722656 211.273438 C 157.835938 218.726562 119.664062 222.410156 94.289062 212.847656 C 96.964844 207.570312 102.164062 203.625 103.503906 197.757812 C 101.898438 197.757812 101.222656 199.550781 100.582031 200.460938 C 99.757812 201.632812 98.929688 202.824219 98.109375 203.839844 C 96.289062 206.085938 95.054688 208.582031 93.164062 210.820312 C 90.402344 214.09375 86.988281 214.359375 82.824219 216.453125 C 78.917969 218.414062 78.101562 225.574219 74.058594 227.710938 C 72.265625 227.113281 69.386719 226.578125 67.992188 227.9375 C 73.117188 229.40625 77.851562 231.269531 79.230469 236.496094 C 75.378906 237.050781 70.417969 238.339844 66.417969 237.171875 C 63.882812 236.429688 61.808594 234.035156 60.125 233.117188 C 59.515625 232.394531 60.296875 231.625 60.125 230.640625 C 59.414062 228.960938 58.128906 228.460938 57.425781 227.035156 C 56.207031 224.566406 56.722656 221.59375 55.851562 218.253906 C 55.257812 215.972656 52.691406 214.738281 51.132812 213.074219 C 47.769531 209.476562 46.601562 205.050781 44.390625 200.011719 C 43.464844 197.90625 42.027344 195.070312 41.917969 192.804688 C 41.714844 188.628906 44.214844 182.875 45.738281 179.066406 C 47.433594 174.832031 49.847656 170.839844 52.03125 167.804688 C 66.515625 147.691406 84.921875 129.285156 114.292969 125.015625 C 120.179688 124.160156 127.96875 123.753906 134.523438 124.117188 C 146.367188 124.773438 156.699219 129.339844 166.664062 133.125 C 171.480469 134.953125 176.871094 136.386719 182.171875 138.078125 C 193.753906 141.777344 210.1875 143.746094 219.707031 136.503906 C 233.542969 144.835938 257.660156 148.71875 281.296875 146.410156 C 288.1875 145.742188 300.601562 142.695312 293.882812 135.601562 C 291.835938 133.445312 288.925781 131.769531 286.464844 129.746094 C 284.113281 127.8125 281.789062 125.664062 279.496094 123.667969 C 271.371094 116.589844 263.519531 109.152344 259.269531 97.992188 C 262.292969 97.195312 266.585938 97.667969 270.28125 97.542969 " fill-opacity="1" fill-rule="evenodd"/><g fill="#f1effa" fill-opacity="1"><g transform="translate(14.534956, 301.234564)"><g><path d="M 26.71875 0 L 4.25 0 C 3.644531 0 3.34375 -0.273438 3.34375 -0.828125 L 3.34375 -4.390625 C 3.34375 -4.941406 3.644531 -5.21875 4.25 -5.21875 L 9.53125 -5.21875 L 9.53125 -44.734375 L 4.25 -44.734375 C 3.644531 -44.734375 3.34375 -45.015625 3.34375 -45.578125 L 3.34375 -49.125 C 3.34375 -49.675781 3.644531 -49.953125 4.25 -49.953125 L 26.65625 -49.953125 C 31.289062 -49.953125 34.894531 -48.722656 37.46875 -46.265625 C 40.039062 -43.804688 41.328125 -40.582031 41.328125 -36.59375 C 41.328125 -31.914062 39.265625 -28.414062 35.140625 -26.09375 C 41.078125 -24.375 44.046875 -20.429688 44.046875 -14.265625 C 44.046875 -9.898438 42.59375 -6.429688 39.6875 -3.859375 C 36.789062 -1.285156 32.46875 0 26.71875 0 Z M 15.578125 -5.21875 L 26.234375 -5.21875 C 29.898438 -5.21875 32.765625 -5.992188 34.828125 -7.546875 C 36.890625 -9.097656 37.921875 -11.5 37.921875 -14.75 C 37.921875 -20.550781 34.164062 -23.453125 26.65625 -23.453125 L 15.578125 -23.453125 Z M 15.578125 -28.046875 L 26.234375 -28.046875 C 28.640625 -28.085938 30.734375 -28.78125 32.515625 -30.125 C 34.304688 -31.46875 35.203125 -33.578125 35.203125 -36.453125 C 35.203125 -39.328125 34.265625 -41.425781 32.390625 -42.75 C 30.515625 -44.070312 28.207031 -44.734375 25.46875 -44.734375 L 15.578125 -44.734375 Z M 15.578125 -28.046875 "/></g></g></g><g fill="#f1effa" fill-opacity="1"><g transform="translate(61.914969, 301.234564)"><g><path d="M 32.421875 -4.375 C 29.171875 -1.132812 25.019531 0.484375 19.96875 0.484375 C 14.914062 0.484375 10.765625 -1.125 7.515625 -4.34375 C 4.265625 -7.570312 2.640625 -11.863281 2.640625 -17.21875 C 2.640625 -22.570312 4.285156 -26.828125 7.578125 -29.984375 C 10.878906 -33.140625 15.019531 -34.71875 20 -34.71875 C 24.988281 -34.71875 29.117188 -33.128906 32.390625 -29.953125 C 35.660156 -26.773438 37.296875 -22.53125 37.296875 -17.21875 C 37.296875 -11.90625 35.671875 -7.625 32.421875 -4.375 Z M 8.484375 -17.1875 C 8.484375 -13.382812 9.597656 -10.300781 11.828125 -7.9375 C 14.054688 -5.570312 16.78125 -4.390625 20 -4.390625 C 23.226562 -4.390625 25.953125 -5.570312 28.171875 -7.9375 C 30.398438 -10.300781 31.515625 -13.382812 31.515625 -17.1875 C 31.515625 -20.988281 30.390625 -24.046875 28.140625 -26.359375 C 25.890625 -28.679688 23.1875 -29.84375 20.03125 -29.84375 C 16.882812 -29.84375 14.171875 -28.679688 11.890625 -26.359375 C 9.617188 -24.046875 8.484375 -20.988281 8.484375 -17.1875 Z M 8.484375 -17.1875 "/></g></g></g><g fill="#f1effa" fill-opacity="1"><g transform="translate(101.920124, 301.234564)"><g><path d="M 32.421875 -4.375 C 29.171875 -1.132812 25.019531 0.484375 19.96875 0.484375 C 14.914062 0.484375 10.765625 -1.125 7.515625 -4.34375 C 4.265625 -7.570312 2.640625 -11.863281 2.640625 -17.21875 C 2.640625 -22.570312 4.285156 -26.828125 7.578125 -29.984375 C 10.878906 -33.140625 15.019531 -34.71875 20 -34.71875 C 24.988281 -34.71875 29.117188 -33.128906 32.390625 -29.953125 C 35.660156 -26.773438 37.296875 -22.53125 37.296875 -17.21875 C 37.296875 -11.90625 35.671875 -7.625 32.421875 -4.375 Z M 8.484375 -17.1875 C 8.484375 -13.382812 9.597656 -10.300781 11.828125 -7.9375 C 14.054688 -5.570312 16.78125 -4.390625 20 -4.390625 C 23.226562 -4.390625 25.953125 -5.570312 28.171875 -7.9375 C 30.398438 -10.300781 31.515625 -13.382812 31.515625 -17.1875 C 31.515625 -20.988281 30.390625 -24.046875 28.140625 -26.359375 C 25.890625 -28.679688 23.1875 -29.84375 20.03125 -29.84375 C 16.882812 -29.84375 14.171875 -28.679688 11.890625 -26.359375 C 9.617188 -24.046875 8.484375 -20.988281 8.484375 -17.1875 Z M 8.484375 -17.1875 "/></g></g></g><g fill="#f1effa" fill-opacity="1"><g transform="translate(141.925279, 301.234564)"><g><path d="M 39.65625 0 L 35.90625 0 C 34.46875 0 33.238281 -0.71875 32.21875 -2.15625 L 19.90625 -18.859375 L 13.15625 -12.59375 L 13.15625 -4.65625 L 16.84375 -4.65625 C 17.445312 -4.65625 17.75 -4.378906 17.75 -3.828125 L 17.75 -0.828125 C 17.75 -0.273438 17.445312 0 16.84375 0 L 3.546875 0 C 2.941406 0 2.640625 -0.273438 2.640625 -0.828125 L 2.640625 -3.828125 C 2.640625 -4.378906 2.941406 -4.65625 3.546875 -4.65625 L 7.375 -4.65625 L 7.375 -45.296875 L 3.546875 -45.296875 C 2.941406 -45.296875 2.640625 -45.570312 2.640625 -46.125 L 2.640625 -49.125 C 2.640625 -49.675781 2.941406 -49.953125 3.546875 -49.953125 L 12.3125 -49.953125 C 12.875 -49.953125 13.15625 -49.675781 13.15625 -49.125 L 13.15625 -17.953125 L 25.8125 -29.578125 L 23.3125 -29.578125 C 22.75 -29.578125 22.46875 -29.851562 22.46875 -30.40625 L 22.46875 -33.390625 C 22.46875 -33.953125 22.75 -34.234375 23.3125 -34.234375 L 36.671875 -34.234375 C 37.222656 -34.234375 37.5 -33.953125 37.5 -33.390625 L 37.5 -30.40625 C 37.5 -29.851562 37.222656 -29.578125 36.671875 -29.578125 L 32.140625 -29.578125 L 23.65625 -22.125 L 36.671875 -4.65625 L 39.65625 -4.65625 C 40.21875 -4.65625 40.5 -4.378906 40.5 -3.828125 L 40.5 -0.828125 C 40.5 -0.273438 40.21875 0 39.65625 0 Z M 39.65625 0 "/></g></g></g><g fill="#f1effa" fill-opacity="1"><g transform="translate(184.643816, 301.234564)"><g><path d="M 45.578125 0 L 39.515625 0 C 37.847656 0 36.457031 -1.113281 35.34375 -3.34375 L 28.8125 -16.625 C 28.25 -17.789062 27.65625 -18.648438 27.03125 -19.203125 C 26.40625 -19.753906 25.535156 -20.054688 24.421875 -20.109375 L 15.578125 -20.109375 L 15.578125 -5.21875 L 21.84375 -5.21875 C 22.40625 -5.21875 22.6875 -4.941406 22.6875 -4.390625 L 22.6875 -0.828125 C 22.6875 -0.273438 22.40625 0 21.84375 0 L 4.25 0 C 3.644531 0 3.34375 -0.273438 3.34375 -0.828125 L 3.34375 -4.390625 C 3.34375 -4.941406 3.644531 -5.21875 4.25 -5.21875 L 9.53125 -5.21875 L 9.53125 -44.734375 L 4.25 -44.734375 C 3.644531 -44.734375 3.34375 -45.015625 3.34375 -45.578125 L 3.34375 -49.125 C 3.34375 -49.675781 3.644531 -49.953125 4.25 -49.953125 L 25.671875 -49.953125 C 30.640625 -49.953125 34.675781 -48.640625 37.78125 -46.015625 C 40.882812 -43.398438 42.4375 -39.703125 42.4375 -34.921875 C 42.4375 -27.640625 39.03125 -23.097656 32.21875 -21.296875 C 33.09375 -20.597656 34.179688 -19.039062 35.484375 -16.625 L 41.328125 -5.21875 L 45.578125 -5.21875 C 46.128906 -5.21875 46.40625 -4.941406 46.40625 -4.390625 L 46.40625 -0.828125 C 46.40625 -0.273438 46.128906 0 45.578125 0 Z M 15.578125 -25.046875 L 24.484375 -25.046875 C 32.367188 -25.046875 36.3125 -28.269531 36.3125 -34.71875 C 36.3125 -41.394531 32.367188 -44.734375 24.484375 -44.734375 L 15.578125 -44.734375 Z M 15.578125 -25.046875 "/></g></g></g><g fill="#f1effa" fill-opacity="1"><g transform="translate(234.389358, 301.234564)"><g><path d="M 36.8125 0 L 30.75 0 C 28.757812 0 27.765625 -0.972656 27.765625 -2.921875 L 27.765625 -6.46875 L 27.625 -6.46875 C 24.238281 -1.78125 19.71875 0.5625 14.0625 0.5625 C 10.71875 0.5625 7.976562 -0.304688 5.84375 -2.046875 C 3.707031 -3.785156 2.640625 -6.140625 2.640625 -9.109375 C 2.640625 -12.910156 4.296875 -15.703125 7.609375 -17.484375 C 10.929688 -19.273438 15.492188 -20.171875 21.296875 -20.171875 L 27.140625 -20.171875 L 27.140625 -21.015625 C 27.140625 -26.804688 24.125 -29.703125 18.09375 -29.703125 C 15.257812 -29.703125 13.21875 -29.4375 11.96875 -28.90625 C 10.71875 -28.375 9.820312 -27.945312 9.28125 -27.625 C 8.75 -27.300781 8.347656 -27.046875 8.078125 -26.859375 C 7.378906 -26.296875 6.867188 -26.25 6.546875 -26.71875 L 4.59375 -29.15625 C 4.269531 -29.519531 4.316406 -29.890625 4.734375 -30.265625 C 5.523438 -31.285156 7.148438 -32.285156 9.609375 -33.265625 C 12.066406 -34.234375 14.960938 -34.71875 18.296875 -34.71875 C 28.035156 -34.71875 32.90625 -30.078125 32.90625 -20.796875 L 32.90625 -4.65625 L 36.8125 -4.65625 C 37.363281 -4.65625 37.640625 -4.378906 37.640625 -3.828125 L 37.640625 -0.828125 C 37.640625 -0.273438 37.363281 0 36.8125 0 Z M 27.140625 -16 L 21.640625 -16 C 18.953125 -16 16.722656 -15.859375 14.953125 -15.578125 C 13.191406 -15.304688 11.695312 -14.707031 10.46875 -13.78125 C 9.238281 -12.851562 8.625 -11.578125 8.625 -9.953125 C 8.625 -8.328125 9.285156 -6.992188 10.609375 -5.953125 C 11.929688 -4.910156 13.660156 -4.390625 15.796875 -4.390625 C 20.296875 -4.390625 24.078125 -6.378906 27.140625 -10.359375 Z M 27.140625 -16 "/></g></g></g><g fill="#f1effa" fill-opacity="1"><g transform="translate(274.742367, 301.234564)"><g><path d="M 25.890625 -3.546875 C 26.066406 -3.359375 26.15625 -3.160156 26.15625 -2.953125 C 26.15625 -2.742188 26.019531 -2.5 25.75 -2.21875 C 23.707031 -0.414062 21.140625 0.484375 18.046875 0.484375 C 14.960938 0.484375 12.4375 -0.519531 10.46875 -2.53125 C 8.5 -4.550781 7.515625 -7.488281 7.515625 -11.34375 L 7.515625 -29.578125 L 3.625 -29.578125 C 2.96875 -29.578125 2.640625 -29.875 2.640625 -30.46875 L 2.640625 -33.328125 C 2.640625 -33.929688 2.96875 -34.234375 3.625 -34.234375 L 7.515625 -34.234375 L 7.515625 -41.265625 C 7.515625 -41.910156 7.835938 -42.234375 8.484375 -42.234375 L 12.390625 -42.234375 C 12.992188 -42.234375 13.296875 -41.910156 13.296875 -41.265625 L 13.296875 -34.234375 L 22.125 -34.234375 C 22.769531 -34.234375 23.09375 -33.929688 23.09375 -33.328125 L 23.09375 -30.46875 C 23.09375 -29.875 22.769531 -29.578125 22.125 -29.578125 L 13.296875 -29.578125 L 13.296875 -11.484375 C 13.296875 -9.160156 13.816406 -7.40625 14.859375 -6.21875 C 15.898438 -5.039062 17.289062 -4.453125 19.03125 -4.453125 C 20.769531 -4.453125 22.078125 -4.894531 22.953125 -5.78125 C 23.421875 -6.195312 23.84375 -6.171875 24.21875 -5.703125 Z M 25.890625 -3.546875 "/></g></g></g><g fill="#f1effa" fill-opacity="1"><g transform="translate(302.641597, 301.234564)"><g><path d="M 33.609375 -16.421875 L 8.5625 -16.421875 C 8.75 -12.566406 9.960938 -9.597656 12.203125 -7.515625 C 14.453125 -5.429688 16.992188 -4.390625 19.828125 -4.390625 C 22.660156 -4.390625 25.082031 -4.988281 27.09375 -6.1875 C 29.113281 -7.394531 30.472656 -8.578125 31.171875 -9.734375 C 31.546875 -10.203125 31.960938 -10.273438 32.421875 -9.953125 L 34.296875 -8.078125 C 34.578125 -7.796875 34.71875 -7.550781 34.71875 -7.34375 C 34.71875 -7.132812 34.613281 -6.863281 34.40625 -6.53125 C 34.195312 -6.207031 33.765625 -5.695312 33.109375 -5 C 32.460938 -4.3125 31.546875 -3.523438 30.359375 -2.640625 C 29.179688 -1.765625 27.648438 -1.023438 25.765625 -0.421875 C 23.890625 0.179688 21.890625 0.484375 19.765625 0.484375 C 14.890625 0.484375 10.816406 -1.113281 7.546875 -4.3125 C 4.273438 -7.507812 2.640625 -11.8125 2.640625 -17.21875 C 2.640625 -22.625 4.265625 -26.890625 7.515625 -30.015625 C 10.765625 -33.148438 14.742188 -34.71875 19.453125 -34.71875 C 24.160156 -34.71875 27.859375 -33.195312 30.546875 -30.15625 C 33.234375 -27.125 34.578125 -23.03125 34.578125 -17.875 C 34.578125 -17.695312 34.578125 -17.515625 34.578125 -17.328125 C 34.578125 -16.722656 34.253906 -16.421875 33.609375 -16.421875 Z M 28.8125 -20.671875 C 28.664062 -23.546875 27.757812 -25.835938 26.09375 -27.546875 C 24.425781 -29.265625 22.195312 -30.125 19.40625 -30.125 C 16.625 -30.125 14.234375 -29.332031 12.234375 -27.75 C 10.242188 -26.175781 9.066406 -23.816406 8.703125 -20.671875 Z M 28.8125 -20.671875 "/></g></g></g><g fill="#f1effa" fill-opacity="1"><g transform="translate(340.072518, 301.234564)"><g><path d="M 16.84375 0 L 3.546875 0 C 2.941406 0 2.640625 -0.273438 2.640625 -0.828125 L 2.640625 -3.828125 C 2.640625 -4.378906 2.941406 -4.65625 3.546875 -4.65625 L 7.375 -4.65625 L 7.375 -45.296875 L 3.546875 -45.296875 C 2.941406 -45.296875 2.640625 -45.570312 2.640625 -46.125 L 2.640625 -49.125 C 2.640625 -49.675781 2.941406 -49.953125 3.546875 -49.953125 L 11.265625 -49.953125 C 12.523438 -49.953125 13.15625 -49.375 13.15625 -48.21875 L 13.15625 -4.65625 L 16.84375 -4.65625 C 17.445312 -4.65625 17.75 -4.378906 17.75 -3.828125 L 17.75 -0.828125 C 17.75 -0.273438 17.445312 0 16.84375 0 Z M 16.84375 0 "/></g></g></g></svg>