<?xml version="1.0" encoding="UTF-8"?>
<svg xmlns="http://www.w3.org/2000/svg" xmlns:xlink="http://www.w3.org/1999/xlink" width="375pt" height="374.999991pt" viewBox="0 0 375 374.999991" version="1.2">
<defs>
<clipPath id="clip1">
  <path d="M 4.257812 6.617188 L 367.960938 6.617188 L 367.960938 370.320312 L 4.257812 370.320312 Z M 4.257812 6.617188 "/>
</clipPath>
</defs>
<g id="surface1">
<g clip-path="url(#clip1)" clip-rule="nonzero">
<path style=" stroke:none;fill-rule:nonzero;fill:rgb(0%,0%,0%);fill-opacity:1;" d="M 352.808594 67.234375 L 292.1875 67.234375 L 292.1875 52.082031 C 292.1875 43.746094 285.367188 36.929688 277.035156 36.929688 L 216.417969 36.929688 L 216.417969 21.777344 C 216.417969 13.441406 209.59375 6.621094 201.261719 6.621094 L 19.410156 6.621094 C 11.082031 6.617188 4.257812 13.4375 4.257812 21.769531 L 4.257812 355.164062 C 4.257812 363.5 11.082031 370.320312 19.410156 370.320312 L 201.261719 370.320312 C 209.59375 370.320312 216.417969 363.5 216.417969 355.164062 L 216.417969 340.015625 L 277.035156 340.015625 C 285.367188 340.015625 292.1875 333.1875 292.1875 324.859375 L 292.1875 309.699219 L 352.808594 309.699219 C 361.136719 309.699219 367.960938 302.882812 367.960938 294.554688 L 367.960938 82.390625 C 367.960938 74.058594 361.136719 67.234375 352.808594 67.234375 Z M 186.109375 340.015625 L 34.566406 340.015625 L 34.566406 36.929688 L 186.109375 36.929688 Z M 261.882812 309.699219 L 216.417969 309.699219 L 216.417969 67.234375 L 261.882812 67.234375 Z M 337.652344 279.394531 L 292.1875 279.394531 L 292.1875 97.542969 L 337.652344 97.542969 Z M 337.652344 279.394531 "/>
</g>
</g>
</svg>
