<?xml version="1.0" encoding="UTF-8"?>
<svg xmlns="http://www.w3.org/2000/svg" xmlns:xlink="http://www.w3.org/1999/xlink" width="375pt" height="374.999991pt" viewBox="0 0 375 374.999991" version="1.2">
<defs>
<clipPath id="clip1">
  <path d="M 6.148438 175 L 218 175 L 218 369.148438 L 6.148438 369.148438 Z M 6.148438 175 "/>
</clipPath>
</defs>
<g id="surface1">
<path style=" stroke:none;fill-rule:nonzero;fill:rgb(100%,35.289001%,40.388489%);fill-opacity:1;" d="M 70.777344 363.578125 L 12.023438 363.578125 L 12.023438 257.828125 L 70.777344 257.828125 L 70.777344 363.578125 "/>
<path style=" stroke:none;fill-rule:nonzero;fill:rgb(100%,74.508667%,70.979309%);fill-opacity:1;" d="M 158.902344 257.828125 L 158.902344 210.824219 C 158.902344 194.597656 145.75 181.449219 129.527344 181.449219 L 111.902344 181.449219 L 111.902344 228.449219 L 70.777344 257.828125 L 70.777344 363.578125 L 189.746094 363.578125 C 201.914062 363.578125 211.78125 353.714844 211.78125 341.546875 L 211.78125 279.859375 C 211.78125 267.691406 201.914062 257.828125 189.746094 257.828125 L 158.902344 257.828125 "/>
<path style=" stroke:none;fill-rule:nonzero;fill:rgb(100%,83.139038%,81.17981%);fill-opacity:1;" d="M 189.746094 257.828125 L 144.214844 257.828125 C 136.101562 257.828125 129.527344 264.402344 129.527344 272.515625 L 129.527344 278.390625 C 129.527344 286.503906 136.101562 293.078125 144.214844 293.078125 C 136.101562 293.078125 129.527344 299.652344 129.527344 307.765625 L 129.527344 313.640625 C 129.527344 321.753906 136.101562 328.328125 144.214844 328.328125 C 136.101562 328.328125 129.527344 334.902344 129.527344 343.015625 L 129.527344 348.890625 C 129.527344 357.003906 136.101562 363.578125 144.214844 363.578125 L 189.746094 363.578125 C 201.914062 363.578125 211.78125 353.714844 211.78125 341.546875 L 211.78125 279.859375 C 211.78125 267.691406 201.914062 257.828125 189.746094 257.828125 "/>
<g clip-path="url(#clip1)" clip-rule="nonzero">
<path style=" stroke:none;fill-rule:nonzero;fill:rgb(0%,0%,0%);fill-opacity:1;" d="M 205.90625 341.546875 C 205.90625 350.457031 198.65625 357.703125 189.746094 357.703125 L 144.214844 357.703125 C 139.355469 357.703125 135.402344 353.75 135.402344 348.890625 L 135.402344 343.015625 C 135.402344 338.15625 139.355469 334.203125 144.214844 334.203125 L 205.90625 334.203125 Z M 76.652344 260.851562 L 115.316406 233.234375 C 116.863281 232.128906 117.777344 230.347656 117.777344 228.449219 L 117.777344 187.324219 L 129.527344 187.324219 C 142.484375 187.324219 153.027344 197.867188 153.027344 210.824219 L 153.027344 251.949219 L 144.214844 251.949219 C 132.878906 251.949219 123.652344 261.175781 123.652344 272.515625 L 123.652344 278.390625 C 123.652344 284.136719 126.023438 289.34375 129.835938 293.078125 C 126.023438 296.8125 123.652344 302.015625 123.652344 307.765625 L 123.652344 313.640625 C 123.652344 319.390625 126.023438 324.59375 129.835938 328.328125 C 126.023438 332.0625 123.652344 337.265625 123.652344 343.015625 L 123.652344 348.890625 C 123.652344 352.042969 124.367188 355.03125 125.636719 357.703125 L 76.652344 357.703125 Z M 17.898438 263.703125 L 64.902344 263.703125 L 64.902344 357.703125 L 17.898438 357.703125 Z M 189.746094 263.703125 C 198.65625 263.703125 205.90625 270.949219 205.90625 279.859375 L 205.90625 287.203125 L 144.214844 287.203125 C 139.355469 287.203125 135.402344 283.25 135.402344 278.390625 L 135.402344 272.515625 C 135.402344 267.65625 139.355469 263.703125 144.214844 263.703125 Z M 135.402344 313.640625 L 135.402344 307.765625 C 135.402344 302.90625 139.355469 298.953125 144.214844 298.953125 L 205.90625 298.953125 L 205.90625 322.453125 L 144.214844 322.453125 C 139.355469 322.453125 135.402344 318.5 135.402344 313.640625 Z M 189.746094 251.949219 L 164.777344 251.949219 L 164.777344 210.824219 C 164.777344 191.386719 148.964844 175.574219 129.527344 175.574219 L 111.902344 175.574219 C 108.65625 175.574219 106.027344 178.203125 106.027344 181.449219 L 106.027344 225.425781 L 68.894531 251.949219 L 12.023438 251.949219 C 8.78125 251.949219 6.148438 254.582031 6.148438 257.828125 L 6.148438 363.578125 C 6.148438 366.824219 8.78125 369.453125 12.023438 369.453125 L 189.746094 369.453125 C 205.136719 369.453125 217.65625 356.933594 217.65625 341.546875 L 217.65625 279.859375 C 217.65625 264.46875 205.136719 251.949219 189.746094 251.949219 "/>
</g>
<path style=" stroke:none;fill-rule:nonzero;fill:rgb(0%,0%,0%);fill-opacity:1;" d="M 53.152344 345.953125 L 29.648438 345.953125 L 29.648438 334.203125 L 53.152344 334.203125 L 53.152344 345.953125 "/>
<path style=" stroke:none;fill-rule:nonzero;fill:rgb(100%,83.918762%,25.878906%);fill-opacity:1;" d="M 282.96875 207.671875 C 265.382812 212.355469 246.914062 211.816406 229.566406 206.113281 L 225.421875 204.75 L 195.246094 212.785156 L 198.945312 189.574219 L 193.445312 184.253906 C 181.128906 172.34375 172.3125 157.390625 167.953125 141.011719 C 154.621094 90.921875 184.523438 39.328125 234.613281 25.992188 C 284.703125 12.660156 336.300781 42.566406 349.628906 92.65625 C 362.964844 142.746094 333.0625 194.339844 282.96875 207.671875 "/>
<path style=" stroke:none;fill-rule:nonzero;fill:rgb(0%,0%,0%);fill-opacity:1;" d="M 225.410156 198.863281 C 226.027344 198.863281 226.648438 198.964844 227.242188 199.160156 L 231.386719 200.523438 C 247.652344 205.863281 264.964844 206.371094 281.445312 201.988281 C 328.40625 189.484375 356.441406 141.113281 343.941406 94.15625 C 331.441406 47.195312 283.070312 19.164062 236.113281 31.660156 C 213.402344 37.707031 194.390625 52.265625 182.570312 72.652344 C 170.753906 93.042969 167.574219 116.78125 173.617188 139.488281 C 177.703125 154.835938 185.96875 168.851562 197.515625 180.019531 L 203.015625 185.339844 C 204.394531 186.671875 205.035156 188.59375 204.734375 190.488281 L 202.457031 204.769531 L 223.898438 199.0625 C 224.394531 198.929688 224.902344 198.863281 225.410156 198.863281 Z M 195.234375 218.648438 C 193.796875 218.648438 192.386719 218.121094 191.292969 217.132812 C 189.820312 215.800781 189.117188 213.8125 189.429688 211.847656 L 192.648438 191.660156 L 189.347656 188.46875 C 176.265625 175.816406 166.898438 159.921875 162.261719 142.511719 C 155.410156 116.769531 159.011719 89.867188 172.40625 66.761719 C 185.796875 43.65625 207.351562 27.15625 233.089844 20.304688 C 286.308594 6.136719 341.132812 37.914062 355.300781 91.132812 C 369.460938 144.355469 337.6875 199.175781 284.46875 213.339844 C 265.78125 218.316406 246.15625 217.746094 227.722656 211.6875 L 225.230469 210.867188 L 196.746094 218.449219 C 196.246094 218.582031 195.738281 218.648438 195.234375 218.648438 "/>
<path style=" stroke:none;fill-rule:nonzero;fill:rgb(100%,99.609375%,98.039246%);fill-opacity:1;" d="M 260.144531 63.945312 L 276.0625 96.203125 L 311.65625 101.375 L 285.898438 126.480469 L 291.980469 161.933594 L 260.144531 145.195312 L 228.304688 161.933594 L 234.386719 126.480469 L 208.625 101.375 L 244.222656 96.203125 L 260.144531 63.945312 "/>
<path style=" stroke:none;fill-rule:nonzero;fill:rgb(0%,0%,0%);fill-opacity:1;" d="M 260.144531 139.320312 C 261.082031 139.320312 262.019531 139.546875 262.875 139.996094 L 284.179688 151.195312 L 280.109375 127.472656 C 279.78125 125.570312 280.414062 123.625 281.800781 122.277344 L 299.03125 105.476562 L 275.214844 102.015625 C 273.300781 101.738281 271.648438 100.535156 270.792969 98.800781 L 260.144531 77.21875 L 249.492188 98.800781 C 248.636719 100.535156 246.980469 101.738281 245.070312 102.015625 L 221.253906 105.476562 L 238.484375 122.277344 C 239.871094 123.625 240.5 125.570312 240.175781 127.472656 L 236.105469 151.195312 L 257.410156 139.996094 C 258.265625 139.546875 259.203125 139.320312 260.144531 139.320312 Z M 291.980469 167.808594 C 291.046875 167.808594 290.105469 167.585938 289.246094 167.132812 L 260.144531 151.832031 L 231.039062 167.132812 C 229.058594 168.175781 226.660156 168 224.847656 166.6875 C 223.042969 165.371094 222.136719 163.144531 222.515625 160.941406 L 228.070312 128.53125 L 204.523438 105.578125 C 202.925781 104.019531 202.347656 101.6875 203.039062 99.558594 C 203.730469 97.433594 205.570312 95.878906 207.785156 95.558594 L 240.320312 90.832031 L 254.875 61.347656 C 255.863281 59.339844 257.90625 58.070312 260.144531 58.070312 C 262.378906 58.070312 264.421875 59.339844 265.410156 61.347656 L 279.964844 90.832031 L 312.5 95.558594 C 314.714844 95.878906 316.554688 97.433594 317.246094 99.558594 C 317.9375 101.6875 317.359375 104.019531 315.757812 105.578125 L 292.214844 128.53125 L 297.769531 160.941406 C 298.148438 163.144531 297.242188 165.371094 295.433594 166.6875 C 294.410156 167.429688 293.195312 167.808594 291.980469 167.808594 "/>
<path style=" stroke:none;fill-rule:nonzero;fill:rgb(100%,87.059021%,39.99939%);fill-opacity:1;" d="M 69.410156 44.957031 L 79.796875 63.945312 L 98.785156 74.332031 L 79.796875 84.71875 L 69.410156 103.710938 L 59.027344 84.71875 L 40.035156 74.332031 L 59.027344 63.945312 L 69.410156 44.957031 "/>
<path style=" stroke:none;fill-rule:nonzero;fill:rgb(0%,0%,0%);fill-opacity:1;" d="M 52.28125 74.332031 L 61.84375 79.5625 C 62.828125 80.101562 63.640625 80.914062 64.179688 81.898438 L 69.410156 91.460938 L 74.644531 81.898438 C 75.183594 80.914062 75.992188 80.101562 76.976562 79.5625 L 86.542969 74.332031 L 76.976562 69.101562 C 75.992188 68.5625 75.183594 67.75 74.644531 66.765625 L 69.410156 57.199219 L 64.179688 66.765625 C 63.640625 67.75 62.828125 68.5625 61.84375 69.101562 Z M 69.410156 109.585938 C 67.265625 109.585938 65.289062 108.410156 64.253906 106.527344 L 54.695312 89.046875 L 37.21875 79.484375 C 35.332031 78.457031 34.160156 76.480469 34.160156 74.332031 C 34.160156 72.183594 35.332031 70.207031 37.21875 69.179688 L 54.695312 59.617188 L 64.253906 42.136719 C 65.289062 40.253906 67.265625 39.082031 69.410156 39.082031 C 71.558594 39.082031 73.535156 40.253906 74.566406 42.136719 L 84.128906 59.617188 L 101.605469 69.179688 C 103.492188 70.207031 104.660156 72.183594 104.660156 74.332031 C 104.660156 76.480469 103.492188 78.457031 101.605469 79.484375 L 84.128906 89.046875 L 74.566406 106.527344 C 73.535156 108.410156 71.558594 109.585938 69.410156 109.585938 "/>
<path style=" stroke:none;fill-rule:nonzero;fill:rgb(100%,87.059021%,39.99939%);fill-opacity:1;" d="M 294.03125 257.828125 L 304.417969 276.8125 L 323.40625 287.203125 L 304.417969 297.589844 L 294.03125 316.578125 L 283.648438 297.589844 L 264.65625 287.203125 L 283.648438 276.8125 L 294.03125 257.828125 "/>
<path style=" stroke:none;fill-rule:nonzero;fill:rgb(0%,0%,0%);fill-opacity:1;" d="M 276.898438 287.203125 L 286.464844 292.433594 C 287.449219 292.972656 288.261719 293.78125 288.800781 294.769531 L 294.03125 304.335938 L 299.261719 294.769531 C 299.800781 293.78125 300.613281 292.972656 301.597656 292.433594 L 311.164062 287.203125 L 301.597656 281.96875 C 300.613281 281.429688 299.800781 280.621094 299.261719 279.632812 L 294.03125 270.070312 L 288.800781 279.632812 C 288.261719 280.621094 287.449219 281.429688 286.464844 281.96875 Z M 294.03125 322.453125 C 291.882812 322.453125 289.90625 321.28125 288.875 319.398438 L 279.316406 301.914062 L 261.835938 292.355469 C 259.953125 291.324219 258.78125 289.351562 258.78125 287.203125 C 258.78125 285.054688 259.953125 283.078125 261.835938 282.046875 L 279.316406 272.488281 L 288.875 255.007812 C 289.90625 253.125 291.882812 251.949219 294.03125 251.949219 C 296.179688 251.949219 298.15625 253.125 299.1875 255.007812 L 308.746094 272.488281 L 326.226562 282.046875 C 328.109375 283.078125 329.28125 285.054688 329.28125 287.203125 C 329.28125 289.351562 328.109375 291.324219 326.226562 292.355469 L 308.746094 301.914062 L 299.1875 319.398438 C 298.15625 321.28125 296.179688 322.453125 294.03125 322.453125 "/>
</g>
</svg>
