<?xml version="1.0" encoding="UTF-8"?>
<svg xmlns="http://www.w3.org/2000/svg" xmlns:xlink="http://www.w3.org/1999/xlink" width="375pt" height="374.999991pt" viewBox="0 0 375 374.999991" version="1.2">
<g id="surface1">
<rect x="0" y="0" width="375" height="374.999991" style="fill:rgb(100%,100%,100%);fill-opacity:1;stroke:none;"/>
<rect x="0" y="0" width="375" height="374.999991" style="fill:rgb(100%,100%,100%);fill-opacity:1;stroke:none;"/>
<rect x="0" y="0" width="375" height="374.999991" style="fill:rgb(100%,100%,100%);fill-opacity:1;stroke:none;"/>
<path style=" stroke:none;fill-rule:nonzero;fill:rgb(98.81897%,78.42865%,70.199585%);fill-opacity:1;" d="M 236.050781 159.671875 C 236.050781 161.261719 235.976562 162.847656 235.820312 164.429688 C 235.664062 166.011719 235.429688 167.582031 235.121094 169.144531 C 234.808594 170.703125 234.421875 172.242188 233.960938 173.765625 C 233.5 175.285156 232.964844 176.78125 232.355469 178.25 C 231.75 179.71875 231.070312 181.15625 230.320312 182.558594 C 229.570312 183.960938 228.753906 185.324219 227.871094 186.644531 C 226.988281 187.96875 226.039062 189.242188 225.03125 190.472656 C 224.023438 191.703125 222.957031 192.878906 221.832031 194.003906 C 220.707031 195.128906 219.53125 196.195312 218.300781 197.203125 C 217.070312 198.210938 215.796875 199.15625 214.472656 200.042969 C 213.152344 200.925781 211.789062 201.742188 210.386719 202.492188 C 208.984375 203.238281 207.550781 203.917969 206.082031 204.527344 C 204.609375 205.136719 203.117188 205.671875 201.59375 206.132812 C 200.074219 206.59375 198.53125 206.980469 196.972656 207.289062 C 195.414062 207.601562 193.839844 207.835938 192.257812 207.988281 C 190.675781 208.144531 189.089844 208.222656 187.5 208.222656 C 185.910156 208.222656 184.324219 208.144531 182.742188 207.988281 C 181.160156 207.835938 179.585938 207.601562 178.027344 207.289062 C 176.46875 206.980469 174.925781 206.59375 173.40625 206.132812 C 171.882812 205.671875 170.390625 205.136719 168.917969 204.527344 C 167.449219 203.917969 166.015625 203.238281 164.613281 202.492188 C 163.210938 201.742188 161.847656 200.925781 160.527344 200.042969 C 159.203125 199.15625 157.929688 198.210938 156.699219 197.203125 C 155.46875 196.195312 154.292969 195.128906 153.167969 194.003906 C 152.042969 192.878906 150.976562 191.703125 149.96875 190.472656 C 148.960938 189.242188 148.011719 187.96875 147.128906 186.644531 C 146.246094 185.324219 145.429688 183.960938 144.679688 182.558594 C 143.929688 181.15625 143.25 179.71875 142.644531 178.25 C 142.035156 176.78125 141.5 175.285156 141.039062 173.765625 C 140.578125 172.242188 140.191406 170.703125 139.878906 169.144531 C 139.570312 167.582031 139.335938 166.011719 139.179688 164.429688 C 139.023438 162.847656 138.949219 161.261719 138.949219 159.671875 C 138.949219 158.082031 139.023438 156.496094 139.179688 154.910156 C 139.335938 153.328125 139.570312 151.757812 139.878906 150.199219 C 140.191406 148.640625 140.578125 147.097656 141.039062 145.578125 C 141.5 144.054688 142.035156 142.558594 142.644531 141.089844 C 143.25 139.621094 143.929688 138.1875 144.679688 136.785156 C 145.429688 135.382812 146.246094 134.019531 147.128906 132.695312 C 148.011719 131.375 148.960938 130.097656 149.96875 128.871094 C 150.976562 127.640625 152.042969 126.464844 153.167969 125.339844 C 154.292969 124.214844 155.46875 123.148438 156.699219 122.140625 C 157.929688 121.128906 159.203125 120.183594 160.527344 119.300781 C 161.847656 118.417969 163.210938 117.601562 164.613281 116.851562 C 166.015625 116.101562 167.449219 115.421875 168.917969 114.8125 C 170.390625 114.207031 171.882812 113.671875 173.40625 113.210938 C 174.925781 112.746094 176.46875 112.363281 178.027344 112.050781 C 179.585938 111.742188 181.160156 111.507812 182.742188 111.351562 C 184.324219 111.195312 185.910156 111.117188 187.5 111.117188 C 189.089844 111.117188 190.675781 111.195312 192.257812 111.351562 C 193.839844 111.507812 195.414062 111.742188 196.972656 112.050781 C 198.53125 112.363281 200.074219 112.746094 201.59375 113.210938 C 203.117188 113.671875 204.609375 114.207031 206.082031 114.8125 C 207.550781 115.421875 208.984375 116.101562 210.386719 116.851562 C 211.789062 117.601562 213.152344 118.417969 214.472656 119.300781 C 215.796875 120.183594 217.070312 121.128906 218.300781 122.140625 C 219.53125 123.148438 220.707031 124.214844 221.832031 125.339844 C 222.957031 126.464844 224.023438 127.640625 225.03125 128.871094 C 226.039062 130.097656 226.988281 131.375 227.871094 132.695312 C 228.753906 134.019531 229.570312 135.382812 230.320312 136.785156 C 231.070312 138.1875 231.75 139.621094 232.355469 141.089844 C 232.964844 142.558594 233.5 144.054688 233.960938 145.578125 C 234.421875 147.097656 234.808594 148.640625 235.121094 150.199219 C 235.429688 151.757812 235.664062 153.328125 235.820312 154.910156 C 235.976562 156.496094 236.050781 158.082031 236.050781 159.671875 Z M 236.050781 159.671875 "/>
<path style=" stroke:none;fill-rule:nonzero;fill:rgb(98.81897%,78.42865%,70.199585%);fill-opacity:1;" d="M 187.5 222.238281 C 244.933594 222.238281 291.710938 269.011719 291.710938 326.25 C 262.699219 348.15625 226.578125 360.988281 187.5 360.988281 C 148.421875 360.988281 112.300781 347.960938 83.289062 326.25 C 83.488281 268.816406 130.066406 222.238281 187.5 222.238281 Z M 187.5 222.238281 "/>
<path style=" stroke:none;fill-rule:nonzero;fill:rgb(50.979614%,65.489197%,74.899292%);fill-opacity:1;" d="M 361.183594 187.5 C 361.183594 238.027344 339.472656 283.421875 305.132812 315.199219 C 300.394531 266.449219 266.050781 226.183594 220.261719 212.960938 C 238.222656 201.90625 250.261719 182.171875 250.261719 159.671875 C 250.261719 125.132812 222.238281 97.105469 187.699219 97.105469 C 153.15625 97.105469 124.933594 125.328125 124.933594 159.671875 C 124.933594 182.171875 136.972656 201.90625 154.933594 212.960938 C 109.144531 226.183594 74.605469 266.25 70.066406 315.199219 C 35.527344 283.421875 13.816406 238.027344 13.816406 187.5 C 13.816406 91.777344 91.777344 13.816406 187.5 13.816406 C 283.222656 13.816406 361.183594 91.777344 361.183594 187.5 Z M 361.183594 187.5 "/>
<path style=" stroke:none;fill-rule:nonzero;fill:rgb(100%,100%,100%);fill-opacity:1;" d="M 187.5 0 C 290.921875 0 375 84.078125 375 187.5 C 375 290.921875 290.921875 375 187.5 375 C 84.078125 375 0 290.921875 0 187.5 C 0 84.078125 84.078125 0 187.5 0 Z M 304.933594 315.199219 C 339.472656 283.421875 361.183594 238.027344 361.183594 187.5 C 361.183594 91.777344 283.222656 13.816406 187.5 13.816406 C 91.777344 13.816406 13.816406 91.777344 13.816406 187.5 C 13.816406 238.027344 35.527344 283.421875 69.867188 315.199219 C 74.40625 266.449219 108.949219 226.183594 154.738281 212.960938 C 136.777344 201.90625 124.738281 182.171875 124.738281 159.671875 C 124.738281 125.132812 152.761719 97.105469 187.300781 97.105469 C 221.84375 97.105469 249.867188 125.132812 249.867188 159.671875 C 249.867188 182.171875 237.828125 201.90625 219.867188 212.960938 C 265.855469 226.183594 300.394531 266.25 304.933594 315.199219 Z M 291.710938 326.25 C 291.710938 268.816406 244.933594 222.238281 187.5 222.238281 C 130.066406 222.238281 83.289062 269.011719 83.289062 326.25 C 112.300781 348.15625 148.421875 361.183594 187.5 361.183594 C 226.578125 361.183594 262.699219 348.15625 291.710938 326.25 Z M 236.050781 159.671875 C 236.050781 132.828125 214.34375 111.117188 187.5 111.117188 C 160.65625 111.117188 138.949219 132.828125 138.949219 159.671875 C 138.949219 186.511719 160.65625 208.222656 187.5 208.222656 C 214.34375 208.222656 236.050781 186.511719 236.050781 159.671875 Z M 236.050781 159.671875 "/>
</g>
</svg>
