<?xml version="1.0" standalone="no"?>
<!DOCTYPE svg PUBLIC "-//W3C//DTD SVG 20010904//EN"
 "http://www.w3.org/TR/2001/REC-SVG-20010904/DTD/svg10.dtd">
<svg version="1.0" xmlns="http://www.w3.org/2000/svg"
 width="700.000000pt" height="700.000000pt" viewBox="0 0 700.000000 700.000000"
 preserveAspectRatio="xMidYMid meet">
<metadata>
Created by potrace 1.14, written by Peter Selinger 2001-2017
</metadata>
<g transform="translate(0.000000,700.000000) scale(0.100000,-0.100000)"
fill="#000000" stroke="none">
<path d="M1469 5106 c-2 -2 -36 -7 -75 -10 -39 -4 -82 -9 -95 -11 -13 -3 -41
-7 -64 -10 -113 -17 -270 -67 -384 -124 l-62 -31 -28 21 c-54 40 -125 29 -165
-25 -29 -38 -44 -84 -51 -153 -3 -35 -15 -67 -38 -101 -29 -44 -75 -132 -99
-187 -4 -11 -17 -56 -28 -99 -23 -90 -35 -108 -152 -226 -130 -131 -158 -186
-137 -266 25 -91 188 -178 355 -189 98 -6 155 9 314 84 80 38 169 74 198 81
80 19 325 3 432 -27 140 -40 224 -112 325 -278 164 -269 295 -428 478 -578 49
-41 59 -63 80 -172 36 -192 -13 -413 -113 -514 -31 -31 -57 -46 -119 -64 -79
-25 -174 -78 -223 -126 -25 -24 -38 -48 -20 -38 4 3 30 12 59 20 l52 16 -10
-25 c-18 -49 -12 -56 28 -34 52 28 65 26 53 -5 -11 -30 -7 -31 28 -5 15 11 41
24 57 28 34 10 255 16 255 8 0 -3 -12 -12 -27 -20 -33 -16 -106 -86 -99 -93 2
-2 15 1 27 8 39 20 89 29 89 15 0 -7 -3 -16 -7 -20 -12 -12 -12 -36 0 -36 7 1
23 7 37 15 39 22 51 19 44 -11 -8 -29 -8 -29 53 12 27 18 48 22 120 23 139 3
235 10 273 22 67 22 174 108 239 193 84 109 119 204 120 324 l1 54 68 -6 c37
-4 85 -9 107 -11 22 -3 85 -7 140 -10 123 -6 229 -13 315 -20 268 -23 419 -61
745 -188 77 -30 161 -62 187 -72 l48 -18 -70 -36 c-112 -58 -214 -154 -124
-116 20 8 47 15 60 15 22 0 23 -1 8 -35 l-15 -36 28 14 c61 31 102 30 71 -1
-25 -25 2 -22 41 4 39 25 51 27 171 32 72 2 130 2 130 -2 0 -3 -13 -12 -29
-20 -32 -17 -105 -85 -99 -92 3 -2 18 2 34 10 28 13 84 29 84 24 0 -2 -4 -18
-9 -36 -11 -37 -12 -37 36 -17 49 21 54 19 47 -12 -7 -27 -6 -27 12 -11 36 32
88 46 179 48 233 5 264 12 363 85 l74 54 51 -21 c66 -26 224 -79 257 -84 14
-3 41 -9 60 -14 19 -5 64 -12 100 -16 101 -10 632 -12 665 -1 52 16 75 54 75
122 0 69 -16 101 -79 161 -59 57 -134 100 -294 166 -208 87 -284 127 -342 183
-63 61 -72 92 -79 270 -7 158 -8 169 -40 326 -68 330 -201 666 -362 916 -260
405 -596 651 -997 733 -51 10 -114 21 -142 24 -51 6 -438 7 -530 1 -120 -7
-242 -16 -270 -20 -16 -2 -55 -6 -85 -10 -30 -3 -62 -7 -70 -9 -78 -15 -112
-22 -230 -48 -182 -40 -176 -39 -340 -44 -190 -5 -230 6 -405 116 -127 80
-189 112 -280 147 -74 29 -226 68 -292 77 -15 2 -48 6 -73 10 -25 4 -65 9 -90
12 -55 6 -526 15 -531 10z"/>
</g>
</svg>
